<?xml version="1.0" standalone="no"?>
<!DOCTYPE svg PUBLIC "-//W3C//DTD SVG 1.1//EN" "http://www.w3.org/Graphics/SVG/1.1/DTD/svg11.dtd" >
<svg xmlns="http://www.w3.org/2000/svg" xmlns:xlink="http://www.w3.org/1999/xlink" version="1.1">
<metadata>
Created by FontForge 20200427 at Thu Feb  5 04:34:32 2015
 By www
Copyright (c) 2009, Nick Curtis. All Rights Reserved. Unauthorized duplication or redistribution is expressly prohibited.
</metadata>
<defs>
<font id="GroovadelicNFW01-Regular" horiz-adv-x="813" >
  <font-face 
    font-family="GroovadelicNFW01-Regular"
    font-weight="400"
    font-stretch="normal"
    units-per-em="2048"
    panose-1="1 0 0 0 0 0 0 0 0 0"
    ascent="1638"
    descent="-410"
    x-height="1079"
    cap-height="1251"
    bbox="-281 -537 2103 1741"
    underline-thickness="102"
    underline-position="-358"
    unicode-range="U+000D-2122"
  />
<missing-glyph horiz-adv-x="2048" 
 />
    <glyph glyph-name=".notdef" horiz-adv-x="2048" 
 />
    <glyph glyph-name="glyph1" horiz-adv-x="0" 
 />
    <glyph glyph-name="glyph1" horiz-adv-x="0" 
 />
    <glyph glyph-name="uni000D" unicode="&#xd;" horiz-adv-x="329" 
 />
    <glyph glyph-name="space" unicode=" " horiz-adv-x="329" 
 />
    <glyph glyph-name="exclam" unicode="!" horiz-adv-x="522" 
d="M473 1251q-31 -65 -54 -141q-23 -77 -38 -157q-16 -80 -23 -160q-8 -80 -8 -152q0 -80 13 -161q13 -82 47 -156q-48 32 -103 50q-56 17 -114 17q-46 0 -89 -12q25 74 34 151t9 154q0 68 -5 141t-15 146q-10 72 -25 144q-15 71 -36 136h407zM229 322q34 0 66 -12t57 -33
t41 -50q15 -30 15 -65q0 -36 -15 -66q-16 -30 -41 -51t-57 -33t-66 -12q-35 0 -67 12t-57 33q-26 21 -41 51t-15 66q0 35 15 65q15 29 41 50q25 21 57 33z" />
    <glyph glyph-name="quotedbl" unicode="&#x22;" horiz-adv-x="668" 
d="M618 1339q-32 -34 -56 -77q-24 -44 -41 -92t-27 -97q-11 -49 -17 -94h-160q7 43 9 86t2 86q0 37 -2 75q-2 37 -7 74q-23 -34 -40 -73q-18 -40 -31 -81q-14 -42 -23 -84q-9 -43 -14 -83h-160q6 43 8 86t2 86q0 93 -12 188h569z" />
    <glyph glyph-name="numbersign" unicode="#" horiz-adv-x="862" 
d="M795 1239q-31 -72 -56 -145q-25 -74 -45 -148q13 -2 25 -2h60q17 0 34 2v-178q-37 15 -75 28q-38 12 -76 23q-19 -81 -31 -164q28 -2 57 -3q28 -1 55 -1h36q17 0 34 2v-178q-48 20 -98 36q-50 15 -101 28q-5 -41 -6 -79q-2 -39 -2 -77q0 -20 1 -41q0 -21 3 -41h-248
q36 62 64 129t51 135q-37 6 -74 11q-38 5 -75 8q-8 -51 -11 -100q-4 -50 -4 -101v-41q0 -21 2 -41h-245q38 66 68 138q29 72 55 147q-38 -2 -73 -5q-36 -4 -71 -14v248q45 -25 92 -44q47 -20 97 -36q9 35 18 72l16 72h-41q-46 0 -91 -3q-46 -3 -91 -14v246q59 -32 122 -56
t126 -42q9 57 16 114q7 56 11 115h178q-28 -63 -50 -127q-22 -65 -40 -131q42 -9 84 -15q42 -7 86 -12q12 72 22 143q9 70 12 142h179zM512 670l24 86q12 43 21 88q-43 9 -87 15t-89 11q-9 -42 -18 -83t-17 -85q40 -9 82 -17z" />
    <glyph glyph-name="dollar" unicode="$" horiz-adv-x="725" 
d="M49 621q21 -29 52 -64q31 -36 68 -67t78 -51q40 -21 79 -21q18 0 35 7q17 6 30 17q12 11 20 27q7 16 7 35q0 26 -12 50q-13 23 -33 40l-127 115q-29 26 -53 53q-25 26 -42 56q-17 29 -26 63q-10 33 -10 73q0 41 14 74q13 32 37 57q24 24 57 40q32 16 70 24q-3 26 -6 51
t-8 51h202q-5 -28 -9 -55t-7 -55q34 -10 66 -28q32 -19 57 -45t40 -59t15 -71q0 -43 -25 -73q-25 -31 -71 -31q-26 0 -51 10q-26 10 -46 28q-20 17 -32 41t-12 52q0 34 25 55q24 20 56 20q25 0 43 -12q-14 31 -45 47q-32 15 -63 15q-45 0 -77 -27t-32 -74q0 -40 16 -71
q15 -32 41 -59q25 -27 58 -52q32 -25 67 -52q34 -27 67 -58q32 -32 58 -72q25 -41 41 -92q15 -52 15 -119q0 -48 -11 -91q-12 -44 -35 -80q-24 -36 -59 -62q-36 -27 -84 -42q7 -35 15 -70q7 -35 18 -69h-280q18 63 30 133q-52 9 -101 29q-50 19 -95 47z" />
    <glyph glyph-name="percent" unicode="%" horiz-adv-x="1141" 
d="M307 1300q44 0 80 -16t65 -43q28 -28 50 -64q21 -37 35 -76q14 -40 21 -81t7 -78t-7 -77q-7 -41 -21 -81t-35 -76q-22 -36 -50 -63q-29 -28 -65 -44q-37 -17 -80 -17t-79 17q-37 16 -65 44q-29 27 -50 63q-22 36 -36 76t-21 81q-7 40 -7 77t7 78t21 81q14 39 36 76
q21 36 50 64q28 27 64 43zM360 1212q-32 0 -54 -20q-22 -21 -35 -50q-14 -30 -20 -62q-7 -32 -7 -56q0 -25 7 -57q6 -33 20 -62q13 -30 35 -50q22 -21 54 -21q31 0 53 21q22 20 36 50q14 29 20 62q6 32 6 57q0 24 -6 56t-20 62q-14 29 -36 50zM946 1264l-631 -1264h-133
l633 1264h131zM834 707q44 0 80 -16q36 -17 65 -44q29 -28 50 -64q21 -37 35 -77t21 -81t7 -77q0 -37 -7 -77q-7 -41 -21 -81t-35 -76t-50 -63q-29 -28 -65 -44q-36 -17 -80 -17t-80 17q-36 16 -65 44q-29 27 -50 63q-22 36 -36 76t-21 81q-7 40 -7 77q0 36 7 77t21 81
t36 77q21 36 50 64q29 27 65 44zM887 618q-32 0 -53 -20q-22 -21 -36 -50q-14 -30 -20 -62q-6 -33 -6 -58q0 -24 6 -56t20 -61q14 -30 36 -50q21 -21 53 -21q31 0 53 21q22 20 36 50q13 29 19 61t6 56q0 25 -6 58q-6 32 -19 62q-14 29 -36 50z" />
    <glyph glyph-name="ampersand" unicode="&#x26;" horiz-adv-x="1440" 
d="M391 758q-35 20 -64 47t-50 60q-22 33 -34 71t-12 80q0 70 27 122q26 51 71 85q44 34 102 51q58 16 122 16q58 0 123 -19q65 -20 120 -56t92 -88q36 -52 36 -117q0 -23 -9 -42q-10 -19 -25 -33q-16 -14 -36 -22t-41 -8q-28 0 -55 10q-28 9 -50 27q-22 17 -35 42
q-14 25 -14 56q0 34 24 57t56 29q-20 26 -50 42q-31 16 -66 16q-32 0 -59 -13q-28 -13 -48 -35q-20 -23 -31 -52q-12 -29 -12 -60q0 -38 13 -73q12 -35 35 -61q22 -27 54 -43t72 -16q17 0 34 3l32 6q9 -7 16 -17q6 -10 6 -22q0 -33 -27 -49q-27 -17 -67 -27q-41 -10 -88 -19
t-87 -25q-41 -17 -68 -47t-27 -83q0 -38 17 -70t45 -55q27 -24 62 -37q35 -14 70 -14q22 0 52 7q29 6 56 20q27 13 46 33q18 19 18 46q0 25 -19 40q-19 14 -42 14q-28 0 -52 -17q-25 -18 -40 -43q-20 13 -36 32t-16 44q0 26 13 45q12 19 32 32q19 13 43 21q23 8 44 13
q52 11 109 25q56 13 110 34q53 20 101 48q48 27 85 66q36 38 57 89t21 118q0 39 -14 82q-15 42 -41 77q-27 34 -63 57q-36 22 -79 22q-26 0 -47 -17q-22 -17 -33 -40q-15 11 -25 27q-11 16 -11 34q0 23 12 40t30 28t40 17q21 5 40 5q70 0 133 -31q62 -32 113 -82t89 -111
q38 -62 61 -122q18 -53 29 -107q10 -54 10 -110q0 -65 -17 -128q-18 -63 -53 -112q-36 -50 -89 -81t-124 -31q-31 0 -59 4q-29 4 -57 10l-55 12q-27 6 -56 9q42 -39 65 -91q23 -53 23 -112q0 -55 -19 -101t-51 -84t-75 -66q-43 -29 -91 -48t-99 -29t-99 -10q-95 0 -182 31
q-88 32 -155 90q-68 58 -108 140q-41 81 -41 181q0 79 26 141q26 61 72 106t109 74z" />
    <glyph glyph-name="quotesingle" unicode="'" horiz-adv-x="401" 
d="M352 1339q-32 -33 -56 -77t-41 -92q-18 -48 -28 -97q-11 -50 -16 -94h-160q6 43 8 86t2 86q0 93 -12 188h303z" />
    <glyph glyph-name="parenleft" unicode="(" horiz-adv-x="475" 
d="M383 1339q9 0 12 -3q2 -4 2 -13q0 -20 -4 -41q-5 -21 -8 -41q-26 -159 -30 -326q-5 -167 -5 -331q0 -97 7 -193t24 -190q4 -21 12 -52q7 -32 15 -65q7 -33 13 -63q5 -30 5 -48q0 -16 -6 -26q-7 -9 -17 -15q-11 -5 -24 -7q-13 -1 -25 -1q-67 0 -115 30q-48 31 -82 81
t-55 114q-21 63 -33 130q-12 66 -16 129t-4 112q0 131 29 259t80 249q5 14 19 43q14 28 33 63q19 34 42 71q22 36 46 66q23 30 45 49z" />
    <glyph glyph-name="parenright" unicode=")" horiz-adv-x="475" 
d="M92 -76q-9 0 -10 3q-2 4 -2 12q0 20 4 41q4 22 6 40q26 161 31 328q4 166 4 330q0 97 -7 193t-24 192q-4 21 -11 52q-8 31 -15 64q-8 33 -13 63q-6 30 -6 48q0 15 7 25q6 10 17 15q10 5 23 7t25 2q66 0 115 -30q48 -31 82 -81t55 -114t33 -130t16 -129t4 -112
q0 -133 -28 -260t-81 -247q-6 -14 -20 -42q-14 -29 -33 -63q-19 -35 -41 -72q-23 -37 -46 -67t-45 -49z" />
    <glyph glyph-name="asterisk" unicode="*" horiz-adv-x="750" 
d="M375 1339q15 0 27 -8q11 -8 19 -20q7 -13 11 -28t4 -28q0 -26 -9 -54q-9 -29 -15 -54q-11 -38 -18 -78t-7 -82q34 22 64 47q30 24 59 51q7 9 18 21q10 11 22 23q11 11 23 21q11 10 21 15q23 13 51 13q23 0 39 -12t16 -38q0 -23 -14 -40q-14 -18 -33 -29q-11 -7 -25 -12
q-15 -6 -31 -10q-17 -4 -32 -7q-16 -3 -28 -6q-38 -11 -72 -24q-34 -14 -66 -31q65 -35 136 -54q13 -3 29 -6q16 -4 33 -8q16 -5 31 -10q14 -5 25 -12q19 -11 33 -29t14 -41t-16 -36q-17 -13 -39 -13q-14 0 -27 3q-14 3 -26 11q-9 4 -20 14q-12 10 -23 22q-12 11 -23 23
q-11 11 -18 19q-55 55 -121 98q0 -42 7 -81q6 -40 16 -78q8 -23 17 -53q9 -31 9 -56q0 -13 -4 -28t-11 -27q-8 -13 -19 -21q-12 -8 -27 -8t-27 8t-19 21q-8 12 -12 27t-4 28q0 29 11 59q10 30 18 58q9 37 15 74t8 75q-32 -20 -61 -42q-30 -23 -56 -48q-22 -22 -43 -45
t-47 -39q-13 -8 -24 -12t-25 -4q-22 0 -41 13t-19 36t15 41q14 18 32 29q9 5 24 10q14 5 30 10l32 8q15 3 27 6q37 11 74 25q36 14 71 33q-71 36 -147 57q-11 3 -26 7t-31 9q-16 4 -30 9q-15 5 -24 10q-18 11 -32 29q-15 17 -15 40t18 37q18 13 39 13q16 0 28 -3
q11 -4 24 -12q26 -17 47 -39q21 -23 43 -45q26 -26 56 -48q29 -23 61 -42q-4 72 -23 148q-8 28 -18 58q-11 29 -11 58q0 13 4 28t12 28q7 12 19 20z" />
    <glyph glyph-name="plus" unicode="+" horiz-adv-x="944" 
d="M571 539v-322h-200v322h-322v200h322v322h200v-322h324v-200h-324z" />
    <glyph glyph-name="comma" unicode="," horiz-adv-x="467" 
d="M418 104q0 -72 -32 -130q-32 -57 -83 -98q-52 -40 -117 -62t-131 -23q62 32 109 86q46 54 61 123q-32 0 -63 11q-32 10 -57 30t-40 48q-16 28 -16 63q0 37 13 65q12 28 35 47q22 19 53 29q30 10 65 10q42 0 79 -15t65 -41q27 -27 43 -63z" />
    <glyph glyph-name="hyphen" unicode="-" horiz-adv-x="496" 
d="M49 539v200h397v-200h-397z" />
    <glyph glyph-name="period" unicode="." horiz-adv-x="457" 
d="M229 303q32 0 64 -10q32 -11 58 -30q25 -20 41 -48t16 -63q0 -36 -16 -64q-16 -29 -41 -49q-26 -20 -58 -30q-32 -11 -64 -11t-64 11q-33 10 -58 30q-26 20 -42 49q-16 28 -16 64q0 35 16 63t42 48q25 19 58 30z" />
    <glyph glyph-name="slash" unicode="/" horiz-adv-x="899" 
d="M264 -219h-215l586 1522h215z" />
    <glyph glyph-name="zero" unicode="0" horiz-adv-x="1051" 
d="M526 1300q85 0 156 -35q70 -36 126 -93q55 -58 95 -130q39 -73 62 -147q18 -62 27 -126q9 -65 9 -130t-9 -130t-27 -128q-23 -73 -62 -145q-40 -73 -95 -130q-56 -58 -126 -93q-71 -36 -156 -36q-83 0 -152 34q-70 34 -124 90q-55 55 -95 125q-40 69 -63 141
q-22 66 -32 135q-11 68 -11 137t11 138q10 68 32 134q23 72 63 142q40 69 95 124q54 55 124 89zM623 1139q-39 0 -70 -17q-31 -18 -54 -47q-24 -29 -41 -66t-27 -76q-11 -39 -16 -77t-5 -68t5 -67q5 -38 16 -77q10 -39 27 -76t41 -66q23 -29 54 -46q31 -18 70 -18t70 18
q30 17 54 46t41 66q16 37 27 76t16 77q5 37 5 67t-5 68t-16 77t-27 76q-17 37 -41 66t-54 47z" />
    <glyph glyph-name="one" unicode="1" horiz-adv-x="571" 
d="M471 1288q8 -51 11 -102q3 -52 3 -103q0 -62 -4 -123q-4 -62 -8 -123q-5 -62 -8 -124q-4 -62 -4 -123q0 -150 15 -297q14 -147 46 -293h-448q-6 88 -6 178q0 91 11 180q10 89 23 179q12 89 23 178q10 89 10 180q0 33 -4 71q-4 37 -14 74q-10 36 -26 70q-17 33 -42 57z
" />
    <glyph glyph-name="two" unicode="2" horiz-adv-x="831" 
d="M174 1038q29 17 59 17q25 0 48 -10q22 -11 38 -29t26 -41q9 -23 9 -47q0 -23 -10 -43q-10 -21 -26 -36q-17 -15 -38 -23q-22 -9 -44 -9q-44 0 -78 15q-35 15 -59 42t-37 64q-13 36 -13 78q0 67 28 119t74 88q45 35 104 53q58 18 120 18q84 0 159 -26q74 -27 129 -76
q55 -50 87 -120q32 -71 32 -159q0 -70 -23 -124t-61 -98q-39 -45 -88 -82t-100 -72l-205 -140h418v-397h-647v387q36 24 81 59q44 34 90 76q45 41 88 88t77 97q33 49 53 99t20 99q0 42 -12 85q-13 42 -37 76q-24 33 -60 54t-83 21q-21 0 -42 -7q-21 -8 -37 -21
q-17 -14 -28 -33z" />
    <glyph glyph-name="three" unicode="3" horiz-adv-x="891" 
d="M115 442q40 -46 94 -77t117 -31q27 0 54 9q26 9 48 26q22 16 36 40q13 23 13 52q0 32 -13 59t-35 47q-22 19 -50 30q-29 11 -60 11q-34 0 -65 -13q-32 -14 -53 -40l-15 12q5 25 7 50q2 24 2 49q0 77 -21 151q23 -11 49 -15q25 -5 49 -5q45 0 82 13q37 12 64 37
q27 24 42 60q15 35 15 80q0 41 -14 78q-14 36 -39 64q-26 27 -61 43t-76 16q-37 0 -65 -20q-29 -20 -42 -54q11 5 23 9q12 3 26 3q25 0 47 -11q21 -11 36 -29t24 -41q8 -23 8 -48q0 -21 -8 -38q-8 -18 -22 -31q-14 -14 -32 -21q-19 -8 -40 -8q-39 0 -73 15q-35 14 -61 39
t-41 59q-16 34 -16 73q0 61 29 105q28 43 73 71q45 27 100 40q55 12 107 12q74 0 144 -21q69 -22 123 -64q53 -42 86 -104q32 -62 32 -143q0 -50 -20 -92q-20 -43 -53 -75q-34 -32 -77 -53t-89 -28q73 -16 135 -55q62 -40 107 -96t71 -125q25 -69 25 -144q0 -86 -38 -155
q-39 -70 -100 -119q-62 -49 -139 -76q-78 -26 -157 -26q-87 0 -171 19q-84 20 -159 62z" />
    <glyph glyph-name="four" unicode="4" horiz-adv-x="975" 
d="M872 1288q8 -51 12 -102q3 -52 3 -103q0 -62 -3 -123q-4 -62 -8 -123q-5 -62 -8 -124q-4 -62 -4 -123q0 -150 14 -297t48 -293h-449q-3 45 -5 89q-3 44 -3 89q0 50 4 99q3 48 8 96l-243 -47l-189 344l287 714q20 -16 35 -37q15 -22 26 -47q10 -25 16 -51q5 -27 5 -53v-24
q-1 -12 -4 -23l-92 -395q0 -5 -1 -10q-2 -5 -2 -11q0 -9 2 -21t7 -22q5 -11 13 -18q8 -8 19 -8l162 10q8 56 13 111q4 54 4 110q0 32 -4 70q-5 37 -15 74q-11 37 -27 71q-16 33 -40 57z" />
    <glyph glyph-name="five" unicode="5" horiz-adv-x="870" 
d="M416 932q67 0 124 -23q56 -24 101 -64q45 -41 79 -94q33 -54 56 -114t34 -123t11 -121q0 -108 -35 -190q-36 -83 -99 -139t-150 -85q-87 -28 -191 -28q-77 0 -152 20q-76 21 -145 56l31 442q19 -19 43 -36q23 -17 50 -30q26 -13 54 -20q27 -8 54 -8q41 0 81 13
q39 13 70 38q30 24 49 59t19 80q0 43 -18 81t-48 67q-31 28 -70 45q-40 16 -83 16q-53 0 -112 -18t-106 -41l39 551h437q24 0 47 9q22 8 41 23v-182q0 -37 -25 -62q-26 -26 -63 -26h-316l-10 -137q48 18 99 30z" />
    <glyph glyph-name="six" unicode="6" horiz-adv-x="942" 
d="M770 1255q-85 -100 -151 -213q-67 -114 -107 -239q25 23 56 37t65 14q47 0 85 -20t67 -54t50 -77q20 -43 33 -89t19 -91q6 -46 6 -83q0 -93 -27 -182q-28 -90 -82 -160q-54 -71 -132 -114q-79 -43 -181 -43q-93 0 -170 35q-78 36 -134 97t-87 142q-31 80 -31 170
q0 122 29 241q28 118 79 229q50 111 120 212q69 101 151 188h342zM596 735q-43 0 -73 -28t-49 -68t-27 -84q-9 -45 -9 -78q0 -34 9 -78q8 -45 27 -85q19 -41 49 -69t73 -28t73 28t49 69q19 40 28 85q8 44 8 78q0 33 -8 78q-9 44 -28 84t-49 68z" />
    <glyph glyph-name="seven" unicode="7" horiz-adv-x="797" 
d="M723 1251q14 -96 20 -193q5 -97 5 -194q0 -84 -16 -166q-16 -83 -35 -165q-20 -83 -36 -166t-16 -168q0 -48 9 -94q8 -46 8 -93v-12h-535q6 95 26 192q19 96 50 190q30 94 70 183q39 88 85 168q20 35 42 70q21 34 40 69t35 72t25 78q-35 15 -71 24t-77 9q-43 0 -85 -9
q-43 -9 -82 -27q-40 -18 -74 -45q-35 -27 -62 -63l72 340h602z" />
    <glyph glyph-name="eight" unicode="8" horiz-adv-x="981" 
d="M473 1288q62 0 125 -20q62 -21 112 -59q49 -38 80 -92q31 -55 31 -124q0 -39 -11 -74q-11 -36 -31 -67q-21 -31 -48 -57q-28 -26 -61 -45q57 -24 105 -62q48 -39 83 -87q35 -49 55 -106q19 -58 19 -120q0 -90 -37 -165q-37 -76 -98 -131q-62 -55 -142 -86
q-80 -30 -166 -30t-165 30q-80 31 -141 86t-97 131q-37 75 -37 165q0 60 18 115q17 55 49 102t77 85q44 38 98 64q-36 19 -67 45t-53 59q-23 32 -35 70q-13 37 -13 78q0 69 31 124q31 54 81 92t113 59zM555 1159q-25 0 -44 -11q-19 -12 -32 -30q-14 -18 -21 -41t-7 -45
t7 -44q7 -23 21 -41q13 -19 32 -30q19 -12 44 -12t45 12q20 11 34 30q14 18 21 41q7 22 7 44t-7 45t-21 41t-34 30zM588 657q-34 0 -59 -18t-42 -45t-25 -59q-9 -32 -9 -60q0 -29 9 -60q8 -32 25 -58q17 -27 42 -44q25 -18 59 -18t59 18q25 17 42 44q16 26 24 58q8 31 8 60
q0 28 -8 60t-24 59q-17 27 -42 45z" />
    <glyph glyph-name="nine" unicode="9" horiz-adv-x="874" 
d="M657 707q-43 -75 -116 -118q-73 -44 -160 -44q-72 0 -133 30q-61 29 -105 79q-45 49 -69 113q-25 64 -25 134q0 76 29 143t79 117q50 49 117 78t142 29q86 0 150 -30q63 -31 109 -82q45 -52 75 -119q29 -68 46 -141q16 -74 23 -149q6 -75 6 -141t-7 -138t-24 -141
q-18 -70 -48 -132t-75 -109q-46 -47 -109 -74q-63 -28 -146 -28q-73 0 -145 15q-72 16 -138 48l25 379q35 -29 78 -45t90 -16q68 0 124 31t98 80t70 110zM426 1139q-29 0 -52 -13q-23 -14 -39 -35q-16 -22 -24 -49t-8 -53t8 -53t24 -48q16 -22 39 -36t52 -14t52 14t39 36
q15 21 24 48q8 27 8 53t-8 53q-9 27 -24 49q-16 21 -39 35z" />
    <glyph glyph-name="colon" unicode=":" horiz-adv-x="457" 
d="M229 786q32 0 64 -10q32 -11 58 -31q25 -20 41 -48q16 -29 16 -64t-16 -63q-16 -29 -41 -48q-26 -20 -58 -30q-32 -11 -64 -11t-64 11q-33 10 -58 30q-26 19 -42 48q-16 28 -16 63t16 64q16 28 42 48q25 20 58 31zM229 303q32 0 64 -10q32 -11 58 -30q25 -20 41 -48
t16 -63q0 -36 -16 -64q-16 -29 -41 -49q-26 -20 -58 -30q-32 -11 -64 -11t-64 11q-33 10 -58 30q-26 20 -42 49q-16 28 -16 64q0 35 16 63t42 48q25 19 58 30z" />
    <glyph glyph-name="semicolon" unicode=";" horiz-adv-x="467" 
d="M229 786q32 0 64 -10q32 -11 58 -31q25 -20 41 -48q16 -29 16 -64t-16 -63q-16 -29 -41 -48q-26 -20 -58 -30q-32 -11 -64 -11t-64 11q-33 10 -58 30q-26 19 -42 48q-16 28 -16 63t16 64q16 28 42 48q25 20 58 31zM418 104q0 -72 -32 -130q-32 -57 -83 -98
q-52 -40 -117 -62t-131 -23q62 32 109 86q46 54 61 123q-32 0 -63 11q-32 10 -57 30t-40 48q-16 28 -16 63q0 37 13 65q12 28 35 47q22 19 53 29q30 10 65 10q42 0 79 -15t65 -41q27 -27 43 -63z" />
    <glyph glyph-name="less" unicode="&#x3c;" horiz-adv-x="1004" 
d="M49 547v184l905 408v-221l-620 -279l620 -281v-219z" />
    <glyph glyph-name="equal" unicode="=" horiz-adv-x="944" 
d="M49 711v200h846v-200h-846zM49 365v200h846v-200h-846z" />
    <glyph glyph-name="greater" unicode="&#x3e;" horiz-adv-x="1004" 
d="M49 358l621 281l-621 279v221l905 -408v-184l-905 -408v219z" />
    <glyph glyph-name="question" unicode="?" horiz-adv-x="926" 
d="M434 1251q80 0 159 -19q79 -20 142 -61q63 -42 103 -107q39 -66 39 -157q0 -76 -20 -131q-21 -55 -55 -94q-34 -40 -77 -67t-88 -48q-46 -22 -89 -41q-44 -20 -78 -42q-35 -23 -56 -53q-22 -30 -23 -73h-31q-5 17 -6 34q-2 17 -2 36q0 56 17 99q16 42 41 77q25 34 54 65
q28 30 53 63t42 72q16 38 16 89q0 45 -17 87q-17 41 -46 73q-30 31 -70 50t-86 19q-28 0 -62 -8q-34 -9 -64 -26t-50 -42t-20 -59v-11q0 -4 2 -9q17 17 41 27q23 10 49 10q28 0 53 -11t43 -30q18 -20 29 -45q10 -26 10 -54q0 -27 -10 -50q-11 -23 -29 -39q-19 -17 -43 -26
q-24 -10 -51 -10q-43 0 -80 19q-38 18 -65 49q-28 31 -44 71q-16 39 -16 80q0 76 36 132q35 55 91 91q55 36 124 53zM387 305q34 0 66 -12t57 -33q25 -22 40 -52q15 -31 15 -67t-15 -65q-15 -30 -40 -51q-25 -22 -57 -34q-32 -11 -66 -11q-35 0 -67 11q-32 12 -57 34
q-26 21 -41 51q-15 29 -15 65t15 67q15 30 41 52q25 21 57 33z" />
    <glyph glyph-name="at" unicode="@" horiz-adv-x="1331" 
d="M764 985q-75 0 -132 -31q-58 -31 -98 -82t-60 -116q-21 -65 -21 -133q0 -91 34 -171t93 -140t139 -95q79 -35 170 -35q57 0 111 15t102 43q48 27 89 67q41 39 71 88q-34 -93 -93 -169q-59 -77 -136 -131q-77 -55 -168 -85q-92 -30 -191 -30q-86 0 -166 23q-80 22 -149 63
q-70 41 -127 99t-97 128q-41 69 -63 149q-23 80 -23 166q0 142 48 258q47 115 133 197q85 81 203 126q117 44 257 44q114 0 221 -35q107 -36 190 -103q82 -68 132 -164q49 -97 49 -220q0 -92 -32 -168q-33 -76 -90 -131q-57 -56 -134 -86q-78 -31 -168 -31q-66 0 -124 19
q-59 19 -103 57q-45 37 -70 92q-26 54 -26 125q0 45 17 86q17 40 47 71q30 30 71 48q40 18 86 18q63 0 116 -33q52 -34 80 -90q-21 28 -53 44t-68 16q-31 0 -59 -12q-28 -13 -49 -34t-33 -49q-12 -29 -12 -61t11 -57q10 -25 29 -43q18 -18 44 -27q26 -10 57 -10q53 0 93 23
t67 61q26 37 40 84q13 46 13 94q0 54 -21 103t-57 86q-37 36 -86 58z" />
    <glyph glyph-name="A" unicode="A" horiz-adv-x="1137" 
d="M983 1251q-38 -96 -56 -199t-18 -206q0 -61 5 -134q5 -74 16 -152t29 -158t44 -153q25 -74 58 -138t76 -111h-545q51 34 76 90q24 55 24 115q0 27 -8 56q-9 28 -25 52q-16 23 -40 39q-25 15 -56 15t-53 -15q-23 -15 -37 -38q-15 -23 -22 -51q-7 -29 -7 -56q0 -65 3 -129
q2 -65 2 -131q0 -49 -19 -93q-19 -43 -51 -76t-75 -52q-44 -19 -93 -19q-64 0 -132 22t-132 58t-120 82q-55 47 -93 96q43 -18 88 -29q46 -10 92 -10q69 0 125 41q55 42 99 113q43 71 76 166q32 94 56 199q23 104 38 214q15 109 24 211q9 101 13 189q3 88 3 149v43h635z
M549 899q-11 0 -24 -16t-25 -41q-13 -25 -24 -55q-12 -30 -21 -58t-14 -51t-5 -33q0 -30 11 -57q10 -27 29 -47q18 -21 44 -33q25 -12 55 -12q23 0 42 9t32 25q13 15 20 35t7 41q0 13 -7 40q-7 26 -18 59q-11 32 -25 67q-14 34 -28 63q-15 28 -27 46z" />
    <glyph glyph-name="B" unicode="B" horiz-adv-x="1036" 
d="M598 735q75 -17 145 -58q70 -42 124 -100q54 -59 87 -131q33 -73 33 -151q0 -63 -25 -117t-67 -93q-42 -40 -97 -62q-55 -23 -116 -23h-682q35 57 61 134q25 77 43 165q18 87 29 181t17 184t8 172t2 147q0 30 -6 70q-6 39 -19 78t-33 72q-21 32 -49 48h510q61 0 123 -20
q61 -21 111 -59q49 -39 80 -93q30 -54 30 -121q0 -57 -31 -97t-77 -66q-47 -26 -101 -40zM522 1098q-18 0 -33 -7q-16 -7 -27 -19q-12 -12 -19 -28t-7 -34v-215q33 0 69 15t67 40q30 25 50 58q19 32 19 67q0 24 -9 46q-10 22 -26 39t-37 28zM551 348q26 0 47 12q21 11 36 29
q14 18 22 41t8 47q0 88 -50 139q-50 50 -137 50q-11 0 -21 -1t-20 -3v-173q0 -29 6 -54q5 -26 18 -45q13 -20 35 -31z" />
    <glyph glyph-name="C" unicode="C" horiz-adv-x="1016" 
d="M1083 416q-49 -75 -68 -160q-20 -86 -26 -174q-5 -69 -33 -124t-73 -94q-46 -38 -105 -59q-60 -20 -127 -20q-107 0 -201 39t-170 104q-77 66 -134 153t-91 183q-28 78 -41 159q-14 81 -14 163q0 77 11 153t34 150q28 84 75 159q46 75 109 131t143 89q79 32 173 32
q84 0 162 -29t138 -81q60 -53 96 -126t36 -161q0 -38 -16 -69t-42 -53q-26 -23 -60 -35q-35 -13 -71 -13q-56 0 -106 22q-50 21 -88 58q-38 36 -60 86t-22 107q0 21 9 39t24 31q14 13 33 21q18 7 38 7q41 0 80 -11q38 -11 70 -36q-38 52 -92 87q-55 34 -121 34
q-77 0 -132 -36q-56 -36 -91 -92q-36 -57 -53 -125q-17 -69 -17 -134t14 -130q14 -66 41 -126q27 -61 67 -113q39 -53 90 -92q50 -39 111 -61q61 -23 132 -23q51 0 99 15q47 15 88 42q41 26 75 62t59 79z" />
    <glyph glyph-name="D" unicode="D" horiz-adv-x="922" 
d="M516 1251q75 0 134 -26t104 -69q45 -44 77 -102q32 -59 52 -123q20 -65 30 -132q9 -67 9 -129q0 -69 -10 -145q-11 -76 -34 -150q-23 -75 -59 -143q-37 -68 -88 -119q-51 -52 -117 -82q-67 -31 -151 -31h-463q28 66 49 145q20 78 35 163t25 174q10 88 16 175q5 86 8 168
q2 81 2 152q0 31 -5 74q-6 43 -20 84t-37 73t-59 43h502zM512 1044q-29 0 -51 -13t-36 -33q-15 -20 -22 -46q-8 -26 -8 -51q0 -40 2 -78q1 -39 6 -80q1 -7 4 -31t9 -56q5 -32 12 -66q6 -35 15 -64q8 -29 17 -48t19 -19q11 0 29 21q18 20 36 46t32 51t18 33q23 48 41 102
t18 109q0 31 -7 70q-8 39 -24 73q-17 34 -44 57z" />
    <glyph glyph-name="E" unicode="E" horiz-adv-x="981" 
d="M702 655q61 -10 112 -46t88 -87q37 -52 58 -112q21 -61 21 -119q0 -60 -23 -113t-63 -92q-40 -40 -93 -63t-114 -23h-688q31 93 59 203t49 225q21 114 34 227q12 113 12 211q0 48 -4 101q-4 52 -16 103t-33 98q-22 47 -56 83h680v-346q-15 28 -37 57q-22 28 -49 51
q-28 23 -59 38q-32 14 -66 14q-56 0 -88 -30q-33 -30 -33 -87q0 -25 9 -48t25 -40q16 -18 39 -28q22 -11 48 -11q20 0 39 7t36 19q16 12 29 28t21 34v-291q-31 31 -60 45q-29 13 -73 13q-20 0 -39 -6q-19 -7 -33 -19q-15 -13 -24 -30q-9 -18 -9 -39q0 -41 16 -77t43 -63
t63 -43q35 -16 75 -16q30 0 55 14t43 37q17 22 27 50t10 55q0 29 -7 61z" />
    <glyph glyph-name="F" unicode="F" horiz-adv-x="803" 
d="M655 -27q0 -54 -19 -97q-19 -42 -51 -74t-74 -55q-43 -22 -90 -36q-47 -13 -95 -20q-49 -6 -93 -6q-89 0 -184 22q-96 22 -178 60q75 92 133 202q57 110 96 229t60 243q20 123 20 241q0 150 -35 296q-35 145 -112 273h770v-374q-21 34 -51 68t-66 61t-76 44t-82 17
q-29 0 -50 -9q-21 -10 -35 -27t-20 -40q-7 -23 -7 -49q0 -30 12 -60q12 -31 33 -56q20 -25 48 -40q28 -16 60 -16q35 0 65 21q29 20 46 51l55 -350q-12 21 -32 43q-21 22 -46 40t-52 30q-27 11 -52 11q-42 0 -63 -28t-21 -66q0 -33 14 -69q14 -37 35 -77q20 -40 44 -84
q24 -45 45 -95q20 -50 34 -106z" />
    <glyph glyph-name="G" unicode="G" horiz-adv-x="1098" 
d="M608 1110q41 0 80 -12q38 -12 70 -35q-32 53 -84 88t-117 35q-70 0 -125 -33t-93 -84q-39 -52 -59 -116q-20 -65 -20 -128q0 -60 14 -123q13 -64 39 -123q25 -60 63 -112q38 -53 87 -92q48 -40 107 -63q58 -23 126 -23q28 0 63 6q35 5 68 18q33 12 59 33q26 20 38 51
q-38 -20 -79 -29q-41 -10 -83 -10q-66 0 -122 28q-57 28 -99 75q-43 46 -70 105q-27 58 -33 120q39 -20 85 -33q45 -14 93 -22t96 -11q48 -4 91 -4q74 0 149 9t146 30q-21 -48 -35 -98t-23 -101q-9 -52 -15 -103q-7 -52 -13 -103q-10 -88 -33 -157q-24 -69 -66 -117
q-43 -48 -109 -74q-66 -25 -161 -25q-114 0 -205 32q-92 33 -163 89q-72 57 -124 133q-52 75 -85 161q-34 85 -50 176t-16 179q0 128 32 247q32 118 99 209q66 91 169 146q103 54 245 54q78 0 154 -27t136 -78t97 -124q37 -74 37 -167q0 -38 -16 -68q-17 -31 -43 -53
q-27 -23 -61 -35t-69 -12q-57 0 -107 22q-50 21 -87 58q-38 36 -60 86t-22 107q0 21 9 39q8 18 23 31q14 13 33 21z" />
    <glyph glyph-name="H" unicode="H" horiz-adv-x="1022" 
d="M645 1251q-29 -35 -50 -83q-22 -49 -36 -102t-20 -106q-7 -54 -7 -98q0 -27 4 -60t16 -62q11 -29 33 -48q21 -20 56 -20q34 0 55 21q21 20 32 50q10 29 14 62q3 33 3 57q0 38 -3 76l-8 74t-7 74q-4 37 -4 75q0 73 21 137q20 64 60 112t99 76q58 27 135 27q56 0 115 -13
q58 -13 111 -39t97 -65t71 -91q-25 8 -49 12q-25 4 -50 4q-95 0 -162 -43t-113 -113q-46 -71 -73 -160t-41 -181q-14 -93 -18 -180q-4 -88 -4 -155q0 -125 18 -248q17 -123 55 -241h-360q12 18 25 45q13 26 24 55t18 58q7 28 7 49q0 19 -3 41q-4 21 -12 39q-9 18 -24 30
q-15 11 -39 11q-26 0 -44 -15q-19 -16 -31 -39t-18 -49t-6 -47q0 -20 3 -43q2 -24 6 -47q4 -24 10 -47t14 -41h-565q56 43 100 103q43 60 76 130t56 147t38 155q14 78 21 153q6 75 6 141q0 107 -13 213t-42 209h403z" />
    <glyph glyph-name="I" unicode="I" horiz-adv-x="602" 
d="M518 1251q-45 -128 -64 -264q-20 -136 -20 -270q0 -87 9 -181q9 -95 29 -189t52 -183t78 -164h-602q46 75 78 164t52 183q19 94 28 189q8 94 8 181q0 134 -18 270q-19 136 -64 264h434z" />
    <glyph glyph-name="J" unicode="J" horiz-adv-x="920" 
d="M920 1251q-29 -52 -49 -125q-21 -74 -34 -153t-18 -156q-6 -77 -6 -137q0 -56 7 -110q6 -54 14 -107q7 -53 14 -105q6 -52 6 -104q0 -179 -80 -270q-81 -90 -264 -90q-90 0 -173 31q-84 32 -147 89q-64 57 -102 136q-39 78 -39 172q0 85 27 153q27 67 77 115
q49 48 118 75q68 26 151 29q-53 -20 -87 -65q-34 -46 -34 -105q0 -32 15 -63q14 -32 38 -57q24 -26 55 -42q30 -16 62 -16q57 0 93 36t36 93q0 17 -5 43t-12 54t-15 54t-13 44q-13 43 -26 91q-14 47 -25 97q-11 49 -18 99q-7 49 -7 94q0 51 8 102q8 50 27 98h406z" />
    <glyph glyph-name="K" unicode="K" horiz-adv-x="1112" 
d="M647 688q42 -14 77 -57q34 -44 66 -106q31 -62 62 -136t67 -149q35 -75 78 -145q42 -70 96 -125q53 -54 120 -87t153 -33q67 0 117 17t100 61q0 -78 -22 -157q-23 -78 -66 -142q-44 -63 -107 -103q-64 -40 -147 -40q-110 0 -199 49t-154 127q-66 79 -106 177
q-41 99 -53 198q-6 49 -12 97q-7 48 -10 97q-2 27 -6 68q-4 40 -11 85q-8 45 -19 90t-28 81q-17 35 -39 58q-23 22 -53 22q-8 0 -12 -10q-4 -11 -6 -23q-2 -13 -2 -24q-1 -12 -1 -13q0 -68 10 -142q10 -75 29 -149q19 -75 47 -145q27 -70 62 -129h-678q66 76 123 175
t100 207q42 108 66 219t24 212q0 113 -21 223q-22 110 -63 215h400q-27 -40 -46 -87t-31 -97q-13 -51 -18 -101q-6 -51 -6 -98q0 -11 3 -27q2 -17 9 -32q6 -16 17 -27q10 -12 25 -12q29 0 51 27t38 69t26 94q10 51 17 100q6 48 9 88q2 39 2 58v45h405q-48 -42 -80 -97
q-33 -56 -61 -115q-29 -60 -57 -118t-65 -106q-38 -49 -90 -83z" />
    <glyph glyph-name="L" unicode="L" horiz-adv-x="979" 
d="M707 649q54 -20 103 -58q49 -39 87 -89q37 -50 60 -107q22 -58 22 -116q0 -69 -26 -121q-27 -52 -72 -87t-103 -53t-121 -18h-657q43 88 72 195q29 106 47 218q18 111 26 222q7 110 7 207q0 51 -3 105q-4 53 -14 107q-10 53 -27 103t-45 94h617q-76 -47 -130 -112
q-55 -66 -90 -143q-36 -78 -52 -163q-17 -85 -17 -171q0 -46 10 -95q9 -50 32 -90q23 -41 60 -67q37 -27 93 -27q34 0 63 12t50 34q21 21 33 50q11 29 11 64q0 28 -9 55z" />
    <glyph glyph-name="M" unicode="M" horiz-adv-x="1419" 
d="M702 1251q-22 -26 -35 -59q-14 -34 -21 -70q-8 -37 -10 -74q-3 -37 -3 -69q0 -38 3 -77q2 -40 7 -77q1 -11 5 -32t10 -46t15 -51t20 -47q11 -22 25 -35q13 -14 30 -14q21 0 38 31q17 30 29 77q12 46 21 103q8 56 13 108t7 93q2 40 2 55v43q0 25 -1 50q-2 25 -5 49t-8 42
h551q-47 -52 -82 -116q-36 -64 -59 -134q-24 -70 -36 -142q-12 -73 -12 -142q0 -103 13 -210q12 -108 40 -212q27 -105 71 -202q44 -98 108 -181q-31 -14 -64 -22q-33 -7 -67 -7q-64 0 -120 25q-57 25 -99 67q-42 43 -66 100q-25 56 -25 120q0 24 2 49q2 24 2 49q0 7 -1 22
q-1 14 -4 28q-3 13 -10 24q-7 10 -19 10q-20 0 -32 -19t-18 -44t-8 -50t-2 -37q0 -28 4 -59q3 -31 11 -61t21 -58t32 -49h-377q17 15 30 37q12 21 20 45q8 23 12 48q4 24 4 46q0 23 -3 47q-4 24 -10 45q-3 11 -12 36q-10 24 -23 49t-28 44t-29 19q-17 0 -20 -13
q-4 -14 -4 -26q0 -26 4 -53q3 -27 7 -54l8 -56q3 -28 3 -56q0 -150 -76 -228q-77 -77 -229 -77q-40 0 -81 5q-42 5 -80 17q-39 12 -73 33q-35 22 -61 55q63 48 113 114q49 66 87 143q37 77 64 161q26 84 43 170q16 85 24 169q7 83 7 157q0 94 -11 189q-11 94 -36 185h454z
" />
    <glyph glyph-name="N" unicode="N" horiz-adv-x="1028" 
d="M539 1251q-8 -45 -13 -91q-6 -47 -6 -93q0 -71 19 -141t45 -135q4 -12 19 -43t34 -64t39 -58q19 -26 33 -26q10 0 16 18q5 18 8 44t4 55v49q0 56 -4 119q-5 62 -14 126q-9 63 -24 125q-15 61 -36 115h570q-60 -31 -105 -85q-46 -54 -80 -122t-57 -145q-23 -78 -37 -155
q-14 -78 -20 -151q-6 -74 -6 -134q0 -56 4 -114q3 -59 12 -118q8 -59 21 -116q13 -58 32 -111h-329q5 25 8 50q2 24 2 50q0 72 -24 148q-24 75 -70 131q-3 3 -9 12q-7 8 -15 17q-9 8 -18 15t-16 7q-5 0 -6 -4q-2 -5 -2 -10q0 -7 4 -20q3 -14 8 -29q4 -15 9 -28q4 -14 6 -22
q18 -77 18 -155q0 -67 -17 -129q-18 -63 -53 -111q-36 -48 -90 -77q-55 -29 -129 -29q-45 0 -93 7q-49 7 -97 19t-94 29t-86 37q70 22 124 76t93 127q39 72 66 157q26 85 42 171t23 166q6 80 6 143q0 60 -4 125t-13 131q-10 65 -25 128t-36 119h363z" />
    <glyph glyph-name="O" unicode="O" horiz-adv-x="1153" 
d="M616 1352q93 0 169 -31q76 -32 136 -86q60 -55 104 -127q43 -72 72 -152q28 -81 42 -165q14 -85 14 -164q0 -87 -14 -173q-15 -86 -45 -164q-31 -79 -77 -146q-46 -68 -109 -117q-63 -50 -143 -79q-81 -28 -179 -28q-96 0 -177 27q-81 28 -146 77q-65 48 -114 114
q-50 66 -83 144q-33 77 -49 163q-17 85 -17 173q0 86 21 176q20 90 64 165t114 126q69 51 168 60q-7 22 -7 51q0 48 27 78q26 30 65 48q39 17 84 24zM682 1184q-51 0 -91 -26q-41 -26 -72 -65q-31 -40 -51 -87q-21 -48 -32 -91q-11 -42 -16 -84q-6 -42 -6 -86q0 -90 24 -180
q12 -41 33 -86t52 -82q30 -38 70 -63t89 -25q50 0 90 25t71 63q31 37 52 82t33 86q12 45 17 90t5 90q0 44 -4 86q-5 42 -16 84q-11 43 -32 91q-21 47 -51 87q-31 39 -72 65z" />
    <glyph glyph-name="P" unicode="P" horiz-adv-x="997" 
d="M512 162q0 -92 -24 -155q-24 -64 -69 -104q-46 -39 -113 -57t-154 -18q-93 0 -180 33q-86 33 -152 96q55 42 99 102q45 59 80 130q36 70 62 148q26 77 43 155q16 78 25 153q8 75 8 141q0 58 -4 119q-5 60 -15 119t-26 117q-17 57 -41 110h596q80 0 145 -33
q64 -34 110 -89t71 -125q24 -71 24 -146q0 -86 -27 -152q-27 -67 -76 -112q-50 -45 -118 -68q-69 -24 -153 -24h-76q-38 0 -54 -17t-16 -59q0 -19 3 -36q2 -17 5 -36q10 -48 19 -95zM522 1079q-35 0 -58 -15q-24 -16 -39 -40q-15 -25 -21 -55q-7 -31 -7 -60q0 -11 2 -37
q1 -27 4 -60q2 -34 7 -70q4 -37 10 -67t14 -49q7 -20 17 -20q12 0 28 14q15 13 31 35q16 21 32 47q15 26 29 51q13 25 22 46q9 20 13 30q11 29 18 60t7 63q0 23 -8 46t-22 41t-34 29z" />
    <glyph glyph-name="Q" unicode="Q" horiz-adv-x="1180" 
d="M616 1333q102 0 181 -33q78 -33 137 -89q58 -57 99 -132q40 -75 65 -159t36 -173t11 -172q0 -63 -9 -124q-9 -62 -28 -120t-49 -111q-31 -54 -74 -101q-14 -13 -27 -25q-14 -13 -28 -24q-9 -8 -20 -14t-19 -15q-14 -16 -23 -38q-10 -22 -10 -42q0 -15 12 -27
q11 -11 27 -19q16 -7 33 -11t28 -4q37 0 73 8q35 8 70 17q34 10 69 18t71 8q66 0 131 -15q64 -15 124 -42t115 -65t103 -83q25 -23 48 -48q22 -25 40 -54q-51 21 -104 36t-109 15q-58 0 -111 -15q-53 -14 -103 -36q-51 -21 -100 -47q-49 -25 -99 -47q-51 -21 -103 -36
q-53 -14 -110 -14q-59 0 -122 20t-116 56q-53 37 -87 90t-34 119q0 54 22 96q21 43 58 78q-23 -3 -47 -6q-25 -2 -51 -2q-141 0 -250 56q-110 56 -184 150q-75 94 -113 216q-39 121 -39 252q0 86 21 173t66 159q44 72 114 120q69 48 166 56q-7 22 -7 51q0 46 27 75t66 46
q39 16 84 22zM676 1153q-48 0 -86 -20q-39 -21 -69 -55t-51 -78q-22 -44 -35 -91q-14 -47 -20 -93q-7 -47 -7 -85t7 -83q6 -46 20 -93q13 -47 35 -91q21 -44 51 -78t69 -54q38 -21 86 -21t87 21q38 20 68 54t51 78t35 91t21 93q6 45 6 83t-6 85q-7 46 -21 93t-35 91t-51 78
t-68 55z" />
    <glyph glyph-name="R" unicode="R" horiz-adv-x="1196" 
d="M686 1251q81 0 164 -21t150 -68q67 -48 109 -124q42 -77 42 -188q0 -81 -37 -138t-95 -93q-59 -36 -131 -52q-73 -16 -143 -16h-51q38 -30 70 -77q31 -47 59 -103t55 -117q27 -62 58 -121q30 -60 67 -113q36 -54 82 -95t105 -65q58 -24 133 -24q67 0 117 17q50 18 100 61
q0 -79 -22 -158q-22 -78 -65 -141q-44 -63 -107 -102q-64 -39 -148 -39q-73 0 -137 22q-64 23 -118 62q-55 39 -98 92q-44 53 -76 114q-33 61 -54 127t-29 132q-6 49 -13 98q-8 49 -11 98q-3 37 -6 78q-4 41 -14 80q-10 38 -29 72q-20 33 -56 55q-5 -45 -7 -90
q-3 -45 -3 -90q0 -39 2 -81t7 -84t13 -82q7 -41 19 -77h-588q51 78 100 185q48 107 86 224q37 116 60 231q22 115 22 208q0 50 -5 104q-6 53 -18 106q-12 52 -31 102q-20 49 -48 91h520zM621 1049q-39 0 -62 -27q-24 -28 -24 -66v-278q24 0 61 18t72 48q34 30 59 70
q25 39 25 81q0 28 -9 56q-10 27 -27 49t-41 36z" />
    <glyph glyph-name="S" unicode="S" horiz-adv-x="836" 
d="M0 584q27 -39 69 -88q41 -49 90 -92t103 -72t107 -29q25 0 47 9t38 25t26 38q9 21 9 47q0 35 -15 68q-16 32 -42 57l-170 160q-39 36 -71 73t-55 78q-23 40 -35 87q-13 46 -13 102q0 71 28 124q27 53 74 88q46 34 106 51q59 17 124 17q64 0 131 -20q66 -20 119 -58
q53 -39 87 -95t34 -128q0 -30 -8 -56q-8 -27 -24 -46q-16 -20 -40 -31q-24 -12 -55 -12q-36 0 -70 15q-35 14 -61 39t-42 58q-16 32 -16 68q0 23 9 43q8 19 23 33t36 22q20 8 43 8q28 0 57 -16q-10 21 -26 37q-17 15 -36 26q-20 10 -42 16q-22 5 -43 5q-31 0 -57 -10
t-45 -28q-20 -19 -31 -44q-11 -26 -11 -57q0 -36 10 -69t27 -62t40 -54t50 -47l142 -112q51 -41 91 -92q39 -52 67 -110q28 -59 43 -123q14 -64 14 -130q0 -95 -28 -170q-29 -75 -81 -128q-53 -52 -129 -80t-170 -28q-103 0 -205 33q-102 34 -192 88z" />
    <glyph glyph-name="T" unicode="T" horiz-adv-x="1307" 
d="M729 1063q-22 -75 -25 -155q-4 -81 -4 -158q0 -87 13 -187q12 -101 37 -201q24 -101 61 -195q36 -94 84 -167h-709q26 35 47 77t39 83q33 70 68 157q34 86 62 177q27 91 45 181q18 89 18 167q0 37 -2 82q-3 44 -16 83q-14 38 -42 64q-28 25 -79 25q-34 0 -79 -6
q-46 -7 -92 -19q-46 -13 -87 -31q-41 -19 -66 -43q-2 13 -2 23v22q0 87 25 156t73 118q47 48 116 74q68 25 155 25q54 0 107 -5t107 -11q53 -7 107 -12q53 -5 107 -5q49 0 110 6q60 6 121 20q60 14 114 38t91 59q31 -55 53 -124q21 -69 21 -134q0 -68 -20 -117
q-21 -49 -58 -81q-37 -33 -89 -48q-52 -16 -116 -16q-35 0 -73 7q-39 6 -78 17t-76 25z" />
    <glyph glyph-name="U" unicode="U" horiz-adv-x="987" 
d="M72 1507q82 0 149 -17q66 -17 113 -54q46 -38 71 -98t25 -146q0 -71 -13 -140q-13 -70 -28 -138q-15 -69 -28 -136q-13 -68 -13 -135q0 -37 12 -72q11 -35 33 -62q21 -27 52 -43q31 -17 71 -17t71 16q30 16 52 43q21 27 35 62q14 34 23 71q8 36 11 73q3 36 3 66
q0 48 -11 113t-30 132q-20 66 -46 127q-26 60 -55 99h424q-27 -16 -47 -46q-20 -31 -34 -69q-15 -38 -25 -81q-10 -44 -16 -86t-8 -80q-3 -38 -3 -66q0 -127 5 -251t5 -250q0 -183 -87 -272q-88 -89 -269 -89q-109 0 -197 40q-88 39 -149 105q-62 66 -95 153q-34 86 -34 181
q0 75 10 150q9 75 21 150q11 75 21 150q9 75 9 150l2 15q0 54 -13 115q-14 61 -42 115q-29 54 -73 95q-43 40 -103 52q43 35 93 55z" />
    <glyph glyph-name="V" unicode="V" horiz-adv-x="1083" 
d="M508 1251q-50 -93 -79 -194q-30 -102 -30 -207q0 -45 6 -94q5 -49 19 -96t38 -90q23 -43 58 -74q8 -7 21 -16t24 -9q9 0 15 5q5 4 8 11q3 6 4 14v15q-2 47 -11 91q-10 44 -18 89q-8 53 -11 107t-3 108q0 115 23 220t77 186q54 80 142 128t219 48q34 0 72 -5q37 -5 75 -13
q37 -9 73 -20q36 -12 68 -25q-108 -55 -191 -137t-144 -182q-62 -100 -104 -214q-43 -114 -69 -232q-26 -119 -37 -239q-12 -120 -12 -231q0 -50 2 -97q2 -48 7 -98h-666q29 53 49 115t32 127t18 131q5 65 5 125q0 92 -10 192q-10 99 -32 198q-22 98 -58 191t-88 172h508z
" />
    <glyph glyph-name="W" unicode="W" horiz-adv-x="1352" 
d="M305 1251q47 -52 69 -118q21 -66 21 -136q0 -20 -2 -41t-2 -41q0 -7 3 -16q2 -9 7 -17q4 -9 11 -14q7 -6 16 -6q18 0 29 18t17 42t8 48q1 24 1 36q0 65 -21 126t-46 119h366q-15 -27 -26 -45q-11 -19 -18 -38q-8 -19 -11 -41q-4 -22 -4 -56q0 -41 12 -78q3 -12 14 -38
q10 -26 24 -52q14 -27 31 -47t32 -20q12 0 16 10q4 9 4 20q0 26 -5 53q-6 26 -9 52q-6 38 -8 78q-3 39 -3 77q0 64 25 125h496q-70 -79 -117 -178q-48 -99 -77 -206q-29 -108 -41 -218q-13 -111 -13 -213q0 -111 12 -220q11 -110 37 -216h-444q21 23 33 56q11 32 17 68
q6 35 8 71q1 36 1 65q0 35 -2 70q-3 35 -8 69q-2 11 -6 34q-4 22 -11 49t-16 55q-10 28 -22 51t-26 38t-30 15t-29 -28q-14 -29 -24 -73q-11 -45 -18 -98q-8 -53 -13 -102t-7 -87q-3 -39 -3 -54q0 -50 2 -100q2 -51 14 -99h-549q42 44 74 103q31 59 53 124q21 65 32 132
q11 66 11 126q0 91 -10 193t-32 204q-23 102 -59 197t-89 172h305z" />
    <glyph glyph-name="X" unicode="X" horiz-adv-x="1290" 
d="M549 1251q-25 -45 -36 -99t-11 -105q0 -60 12 -115q1 -7 7 -25q6 -19 15 -43q8 -24 18 -49q10 -26 22 -47q11 -21 22 -35q10 -14 20 -14q8 0 13 12q4 12 7 28q2 15 3 29v19q0 40 -4 79t-8 79q-5 39 -9 78t-4 79q0 152 81 232t233 80q111 0 207 -33q95 -34 188 -94
q-54 -25 -114 -60q-61 -35 -119 -78q-59 -44 -112 -95q-54 -51 -94 -108q-41 -58 -65 -120q-24 -63 -24 -129q0 -64 22 -132q21 -68 57 -135t84 -132q47 -65 99 -123q52 -59 106 -108q53 -50 101 -87h-621q16 19 30 43q13 23 23 49q10 25 16 51q5 26 5 52q0 12 -5 41
q-5 28 -14 58q-10 30 -23 53q-14 22 -32 22t-37 -23q-19 -24 -34 -56q-16 -32 -25 -64q-10 -32 -10 -50q0 -26 2 -51t2 -51q0 -78 -14 -138q-14 -59 -47 -99q-34 -39 -89 -59t-137 -20q-46 0 -97 14q-52 15 -101 39q-50 25 -94 56q-43 32 -73 67q66 20 130 56q64 37 122 87
q57 49 105 109t84 126q35 66 55 137q19 70 19 141q0 89 -32 182q-33 93 -85 181q-52 87 -117 164t-129 134h506z" />
    <glyph glyph-name="Y" unicode="Y" horiz-adv-x="1376" 
d="M453 1251q-15 -18 -27 -41t-20 -48q-9 -26 -14 -51q-5 -26 -5 -48q0 -72 31 -140q30 -68 78 -120q11 -14 28 -29q16 -16 33 -24q17 17 30 43q12 26 21 56q8 29 13 58q4 28 4 49q0 31 -7 72q-7 40 -19 81t-28 79t-34 63h839q-73 -37 -150 -89q-78 -53 -151 -117
q-74 -65 -139 -139q-66 -75 -115 -156q-50 -82 -79 -169t-29 -175q0 -112 36 -214t101 -192h-850q34 25 74 59t80 75q40 40 78 85q37 45 66 93q29 47 47 96q17 48 17 94q0 60 -25 121q-26 61 -65 123q-39 61 -84 124q-46 63 -86 126t-68 127q-29 64 -32 128h451z" />
    <glyph glyph-name="Z" unicode="Z" horiz-adv-x="1094" 
d="M942 641q32 -15 58 -39t45 -55q18 -32 28 -69q10 -38 10 -79q0 -98 -35 -173q-36 -75 -93 -125q-58 -50 -129 -75q-72 -26 -144 -26h-682q17 19 35 43t43 63q24 38 58 96q33 58 82 148q49 89 116 214q67 124 158 296q0 19 -15 35q-16 16 -39 28t-51 19q-28 6 -53 6
q-32 0 -69 -14q-38 -14 -71 -38q-33 -25 -55 -58t-22 -70q0 -8 1 -14q1 -7 3 -15q-26 12 -46 32q-21 19 -35 44t-22 54t-8 61q0 81 36 141q36 59 91 98q54 39 119 58q64 18 121 18h702q-57 -39 -112 -99q-56 -61 -106 -132q-50 -72 -92 -148q-42 -77 -72 -147
q-31 -70 -48 -128q-18 -58 -18 -93q0 -25 6 -47q5 -22 19 -38q13 -17 35 -26q22 -10 54 -10q41 0 78 18q36 17 64 48q27 30 43 71t16 88q0 9 -1 20z" />
    <glyph glyph-name="bracketleft" unicode="[" horiz-adv-x="633" 
d="M561 1303v-259l-143 33v-1126l215 26v-270h-633q43 98 73 211q29 113 47 231t26 235t8 224q0 177 -18 351q-19 173 -64 344h489z" />
    <glyph glyph-name="backslash" unicode="\" horiz-adv-x="801" 
d="M215 1303l586 -1522h-215l-586 1522h215z" />
    <glyph glyph-name="bracketright" unicode="]" horiz-adv-x="633" 
d="M561 1303q-45 -171 -63 -344q-19 -174 -19 -351q0 -107 8 -223q8 -117 26 -235t48 -231q29 -113 72 -212h-633v270l215 -26v1126l-143 -33v259h489z" />
    <glyph glyph-name="asciicircum" unicode="^" horiz-adv-x="989" 
d="M422 1251h145l422 -524h-71l-424 356l-422 -356h-72z" />
    <glyph glyph-name="underscore" unicode="_" horiz-adv-x="1024" 
d="M0 0h1024v-125h-1024v125z" />
    <glyph glyph-name="grave" unicode="`" horiz-adv-x="694" 
d="M100 1567h236l258 -332h-59z" />
    <glyph glyph-name="a" unicode="a" 
d="M698 1108q-29 -72 -41 -150t-12 -155q0 -68 9 -156q8 -88 28 -177q19 -89 51 -169t80 -133h-407q38 26 57 68q18 41 18 86q0 21 -6 43q-7 21 -19 39q-12 17 -30 29q-18 11 -41 11q-24 0 -41 -11t-28 -28q-11 -18 -16 -39t-5 -42q0 -41 1 -80q1 -40 1 -80h-297
q45 38 80 100q34 61 59 137q24 76 40 161t26 171q9 85 13 166q3 81 3 148v61h477zM375 842q-9 0 -18 -12q-10 -12 -19 -30q-10 -19 -19 -41q-9 -23 -15 -44q-7 -21 -11 -38q-4 -18 -4 -26q0 -22 8 -42q7 -20 21 -35t33 -24t42 -9q35 0 56 25q20 25 20 59q0 7 -5 26t-13 44
q-9 24 -19 50q-11 26 -21 48q-11 21 -20 35z" />
    <glyph glyph-name="b" unicode="b" horiz-adv-x="764" 
d="M449 776q56 -12 108 -43t93 -75q40 -44 65 -98q24 -55 24 -114q0 -47 -18 -87q-19 -40 -50 -70t-72 -47q-42 -17 -87 -17h-512q19 31 35 79q15 47 26 103t19 117q8 60 13 118t7 109q2 50 2 87q0 35 -2 79q-3 44 -9 89q-7 45 -19 87q-13 41 -33 72h383q46 0 92 -16t83 -45
t60 -69q23 -41 23 -91q0 -43 -23 -73t-58 -49q-35 -20 -75 -31zM391 1049q-25 0 -44 -18q-19 -19 -19 -48v-162q24 0 51 12q27 11 50 30q22 18 37 43q15 24 15 50q0 18 -7 35t-19 30q-13 12 -29 20zM414 487q19 0 35 9q15 8 26 22t17 31t6 35q0 65 -37 103q-38 38 -103 38
q-8 0 -15 -1q-8 -1 -17 -1v-137q0 -42 20 -70z" />
    <glyph glyph-name="c" unicode="c" horiz-adv-x="776" 
d="M805 553q-40 -51 -60 -111q-21 -61 -30 -123q-8 -49 -34 -87t-63 -64q-38 -26 -83 -39q-46 -14 -93 -14q-103 0 -185 42t-139 112q-57 69 -87 159q-31 89 -31 184q0 65 14 132q13 66 40 128q26 61 65 115q39 53 90 93q51 39 113 62t135 23q54 0 108 -17q53 -17 96 -50
q42 -33 69 -80q26 -47 26 -107q0 -32 -12 -58t-33 -44t-48 -27q-28 -10 -59 -10q-38 0 -72 13q-35 12 -61 35q-27 22 -43 54t-16 72q0 37 25 60q24 22 61 22q59 0 108 -31q-28 38 -66 60q-39 22 -85 22q-61 0 -107 -27q-46 -28 -77 -71q-31 -44 -46 -98q-16 -55 -16 -109
q0 -67 22 -128q22 -62 62 -109t97 -75t128 -28q78 0 144 39q65 38 110 98z" />
    <glyph glyph-name="d" unicode="d" horiz-adv-x="690" 
d="M387 1165q56 0 101 -19q44 -20 78 -53q33 -33 57 -77t39 -92q14 -49 21 -100t7 -97q0 -51 -8 -108t-25 -113t-43 -107q-27 -51 -65 -89q-38 -39 -88 -62t-113 -23h-348q23 58 40 135q17 76 29 157q11 81 17 160q6 78 6 140q0 41 -3 88t-12 94q-9 46 -25 89t-42 77h377z
M383 1010q-21 0 -37 -10q-17 -10 -27 -25q-11 -16 -16 -35q-6 -20 -6 -39q0 -59 6 -117q1 -6 3 -24q2 -19 6 -42q4 -24 9 -50q5 -27 12 -48q6 -22 13 -36q6 -15 14 -15q12 0 29 23t34 53t30 58t16 38q9 25 15 50q5 25 5 51q0 24 -5 53q-6 29 -18 55q-12 25 -32 43z" />
    <glyph glyph-name="e" unicode="e" horiz-adv-x="760" 
d="M528 694q45 -8 83 -34q38 -27 66 -65q27 -39 43 -84q15 -45 15 -89q0 -45 -17 -85t-47 -70t-70 -47t-85 -17h-516q25 64 46 138q20 73 34 149t22 152q7 75 7 144q0 45 -3 91q-4 46 -12 92q-8 45 -22 89q-15 44 -37 83h510v-260q-12 21 -28 42q-17 21 -38 39
q-21 17 -45 28t-49 11q-42 0 -66 -22t-24 -66q0 -18 7 -35q7 -18 19 -31q12 -14 29 -22t37 -8q29 0 55 21q25 21 37 47v-217q-23 21 -44 32q-22 11 -56 11q-31 0 -54 -20q-24 -20 -24 -52q0 -31 12 -58t32 -47q20 -21 47 -33t57 -12q22 0 41 11t33 28q13 17 21 38q7 20 7 40
q0 23 -6 47z" />
    <glyph glyph-name="f" unicode="f" horiz-adv-x="602" 
d="M123 715q0 115 -13 229q-14 113 -59 221h551v-280q-15 24 -37 50q-23 25 -50 45t-58 33t-62 13q-43 0 -62 -27q-20 -27 -20 -67q0 -23 9 -45q8 -23 24 -42q15 -19 36 -30q21 -12 46 -12q26 0 48 15t34 38l41 -262q-9 16 -24 33q-16 17 -34 31q-18 13 -38 22q-20 8 -39 8
q-24 0 -38 -11q-15 -12 -22 -29q-8 -18 -10 -38q-2 -21 -2 -39q0 -34 8 -78q8 -45 22 -94t33 -99q18 -50 39 -96t44 -84q23 -39 45 -65q-54 -26 -116 -37q-62 -12 -122 -12q-49 0 -101 10q-53 10 -96 34q-44 23 -72 63q-28 39 -28 98q0 72 19 132q19 59 43 117q23 57 42 119
z" />
    <glyph glyph-name="g" unicode="g" horiz-adv-x="823" 
d="M471 1038q26 0 51 -6q24 -6 45 -20q-23 35 -58 57q-36 21 -79 21q-52 0 -95 -25q-44 -25 -75 -64q-31 -40 -48 -89t-17 -97q0 -65 22 -129q21 -65 61 -116q39 -51 96 -83t128 -32q23 0 52 5t57 16t51 29q22 17 32 42q-31 -19 -66 -29q-36 -10 -71 -10q-45 0 -85 18
t-70 48q-31 30 -50 70q-20 39 -24 83q46 -20 100 -26q54 -7 102 -7q73 0 149 11t144 34q-26 -60 -37 -126q-11 -67 -20 -131q-10 -65 -25 -123q-15 -59 -48 -103q-33 -45 -91 -71q-59 -27 -156 -27q-110 0 -193 42q-84 42 -140 114q-56 71 -84 165q-29 93 -29 195
q0 100 28 191t84 160q55 68 138 109q82 40 190 40q55 0 107 -18q51 -19 91 -53t64 -82q23 -49 23 -108q0 -31 -14 -55t-36 -41q-23 -17 -50 -26q-28 -9 -56 -9q-39 0 -74 13t-61 37t-41 58q-16 33 -16 73q0 18 9 32q8 14 22 24q13 9 30 14z" />
    <glyph glyph-name="h" unicode="h" horiz-adv-x="715" 
d="M336 1180q-15 -20 -27 -50q-13 -30 -21 -63q-9 -34 -13 -67q-5 -33 -5 -58q0 -23 4 -45q4 -23 15 -41q10 -18 28 -29q18 -12 45 -12q22 0 35 12q12 11 19 29q6 17 8 37q2 19 2 35q0 31 -4 60t-9 58q-6 29 -11 58t-7 59q0 57 16 106q15 48 45 83t75 55t104 20q42 0 93 -10
t100 -29q48 -20 89 -49q41 -30 64 -69q-38 12 -74 12q-64 0 -111 -27q-48 -27 -82 -71q-34 -45 -55 -102q-22 -57 -34 -117q-13 -60 -18 -118q-5 -59 -5 -106q0 -57 5 -122q5 -66 15 -132q9 -67 24 -130q15 -64 36 -117h-293q10 18 19 46q8 28 14 59q6 30 9 59t3 49
q0 16 -2 35q-2 18 -9 34q-7 15 -19 25t-33 10q-23 0 -36 -14t-19 -34q-7 -20 -9 -42t-2 -37q0 -18 2 -44t6 -52q3 -27 9 -52t14 -42h-361q56 96 80 198q23 102 23 211q0 134 -24 268q-25 133 -62 263h344z" />
    <glyph glyph-name="i" unicode="i" horiz-adv-x="451" 
d="M387 1180q-32 -96 -46 -198q-15 -102 -15 -204q0 -65 7 -136q6 -71 21 -141q14 -71 38 -137q24 -67 59 -124h-451q34 57 58 124q24 66 39 137q15 70 22 141q6 71 6 136q0 102 -15 204t-47 198h324z" />
    <glyph glyph-name="j" unicode="j" horiz-adv-x="702" 
d="M702 1165q-21 -40 -36 -95t-24 -114q-10 -59 -14 -116q-5 -58 -5 -103q0 -41 5 -81q4 -40 9 -79l10 -80q4 -41 4 -81q0 -132 -59 -201q-60 -70 -197 -70q-68 0 -130 24q-63 24 -111 67t-76 102q-29 59 -29 129q0 64 20 115t57 87t89 56q51 20 113 23q-39 -17 -64 -50
q-26 -34 -26 -77q0 -24 11 -48q11 -25 29 -44q18 -20 41 -32t48 -12q42 0 69 28q27 27 27 71q0 13 -4 32t-9 39q-6 20 -12 39l-10 33q-9 33 -19 70q-11 36 -19 73t-13 74q-6 36 -6 70q0 38 6 76t20 75h305z" />
    <glyph glyph-name="k" unicode="k" horiz-adv-x="860" 
d="M485 731q31 -10 57 -42q26 -33 50 -79t48 -101q23 -56 50 -112q26 -56 58 -109q31 -53 71 -94t91 -65q50 -25 114 -25q51 0 89 12q37 12 75 46v-8q0 -55 -16 -112q-17 -58 -49 -105q-33 -47 -81 -77t-110 -30q-75 0 -133 26t-101 70q-44 44 -75 101t-50 119
q-20 62 -30 125t-13 118q-1 19 -3 49q-3 29 -8 63q-6 33 -14 67t-20 62q-13 27 -30 45q-18 17 -41 17q-6 0 -9 -5t-4 -12q-2 -7 -2 -16v-14q0 -51 7 -108t21 -113q13 -56 34 -110q20 -54 47 -99h-508q50 58 93 132q42 74 74 155q31 81 49 164q17 83 17 159q0 85 -15 169
q-15 83 -46 161h299q-20 -30 -34 -65q-14 -36 -23 -74t-13 -76t-4 -74q0 -8 2 -20t7 -24q4 -12 12 -20q7 -9 18 -9q22 0 39 21q16 20 28 52q12 31 21 70q8 38 13 74q4 36 6 66t2 44v35h303q-35 -32 -59 -73q-25 -42 -46 -86l-42 -88q-22 -44 -50 -80q-29 -37 -68 -63z" />
    <glyph glyph-name="l" unicode="l" horiz-adv-x="735" 
d="M530 713q39 -15 76 -43q37 -29 66 -66q28 -37 46 -80q17 -43 17 -86q0 -52 -19 -92q-20 -40 -53 -67t-77 -40q-44 -14 -92 -14h-494q32 66 54 146t36 164q13 84 19 167t6 156q0 37 -3 78q-3 40 -10 80q-8 40 -20 78q-13 38 -33 71h461q-58 -35 -99 -84q-41 -50 -67 -108
q-27 -58 -39 -122q-12 -65 -12 -130q0 -34 7 -70q7 -37 24 -67q17 -31 45 -50q28 -20 69 -20q26 0 48 9t38 25q15 16 24 38q9 21 9 47q0 22 -7 42z" />
    <glyph glyph-name="m" unicode="m" horiz-adv-x="1016" 
d="M889 1165q-26 -85 -38 -174q-13 -90 -13 -180q0 -78 11 -164q10 -86 36 -168q26 -83 69 -156q42 -73 107 -124q-20 -25 -46 -41t-55 -25q-30 -10 -61 -14q-32 -4 -63 -4q-58 0 -98 15q-41 15 -66 44q-26 28 -37 70q-12 42 -12 96q0 43 10 86q10 42 10 84q0 8 -2 19
q-3 10 -14 10q-24 0 -40 -20t-25 -47t-13 -55q-4 -29 -4 -46q0 -15 2 -35q1 -21 6 -41q4 -21 12 -39q7 -18 19 -29h-283q13 15 24 43t19 60q7 31 12 62q4 30 4 50q0 10 -1 22q-2 12 -6 22q-5 10 -13 17t-21 7q-10 0 -15 -7q-6 -8 -9 -17q-3 -10 -3 -20q-1 -11 -1 -17
q0 -59 -12 -115q-13 -56 -41 -99q-29 -44 -76 -70t-115 -26q-48 0 -96 23q40 64 71 142q30 78 50 162q19 83 29 167q10 83 10 158q0 46 -4 95t-13 97t-24 95q-16 46 -39 87h411q-5 -18 -8 -44q-4 -26 -5 -53q-2 -28 -2 -55q-1 -27 -1 -46q0 -10 1 -35q0 -25 3 -57
q2 -33 7 -68q4 -35 12 -64q7 -29 18 -48q10 -19 25 -19q20 0 35 18q15 17 26 45q10 28 17 62q6 33 10 65q3 32 5 59q1 26 1 40q0 20 -1 48q-1 27 -4 55q-4 28 -11 54q-8 26 -21 43h340z" />
    <glyph glyph-name="n" unicode="n" horiz-adv-x="748" 
d="M475 287q5 34 9 69q3 34 3 68q0 64 -18 129q-3 8 -10 28q-7 19 -17 44q-10 24 -22 51q-13 26 -26 48t-25 36q-13 14 -23 14q-7 0 -11 -12t-6 -30t-2 -38q-1 -21 -1 -37q0 -43 3 -90q3 -48 10 -96q7 -49 18 -96t26 -88h-383q36 54 60 120t39 137q14 70 20 141t6 134
q0 48 -3 101q-3 52 -9 105q-6 52 -16 103t-25 97h309q-5 -19 -6 -38q-2 -19 -2 -38q0 -32 10 -74q10 -43 26 -81q16 -39 36 -66t40 -27q5 0 7 4q2 3 2 6q0 6 -2 16q-3 10 -7 22q-4 11 -7 22q-4 10 -5 16q-8 28 -11 57t-3 58q0 50 13 97t40 83t68 58q40 22 96 22
q68 0 141 -19q73 -20 135 -51q-53 -17 -93 -57t-69 -94q-30 -55 -50 -118q-20 -64 -32 -128q-12 -65 -17 -125t-5 -106q0 -45 3 -94t10 -98t19 -96q11 -47 27 -89h-270z" />
    <glyph glyph-name="o" unicode="o" horiz-adv-x="860" 
d="M463 1241q77 0 137 -26q59 -27 103 -71q44 -45 74 -104t49 -124q18 -66 26 -134q8 -69 8 -131q0 -95 -27 -183t-80 -155q-54 -67 -132 -107q-79 -40 -181 -40q-109 0 -191 45t-137 119q-56 73 -84 168q-28 94 -28 192q0 43 7 88q6 45 21 88q14 42 36 80t53 67
q30 29 70 48q39 18 89 22q-6 22 -6 39q0 36 20 60q19 23 49 36q29 13 63 18zM512 1112q-36 0 -65 -16q-29 -17 -51 -43q-23 -27 -39 -61q-16 -35 -26 -71t-15 -71q-5 -36 -5 -64q0 -29 5 -64t15 -71q10 -37 26 -71q16 -35 39 -61q22 -27 51 -43q29 -17 65 -17t65 17
q29 16 52 43q22 26 38 61q16 34 26 71q10 36 15 71t5 64q0 28 -5 64q-5 35 -15 71t-26 71q-16 34 -38 61q-23 26 -52 43z" />
    <glyph glyph-name="p" unicode="p" horiz-adv-x="780" 
d="M416 303q0 -68 -18 -115q-18 -48 -52 -78q-35 -30 -85 -43q-51 -14 -116 -14q-68 0 -132 25q-64 24 -115 72q62 47 107 123q44 75 73 162q29 86 43 175q14 88 14 162q0 88 -14 178t-49 170h446q60 0 109 -25q48 -25 82 -66q34 -42 53 -95q18 -53 18 -109q0 -65 -20 -114
q-20 -50 -57 -84q-37 -35 -88 -52q-52 -18 -115 -18h-56q-31 0 -43 -12t-12 -43q0 -24 4 -48q4 -25 10 -49q5 -25 9 -50zM424 991q-26 0 -44 -11q-18 -12 -28 -30q-11 -19 -15 -41q-5 -23 -5 -45q0 -8 1 -28t3 -45q2 -26 5 -53t7 -49q4 -23 10 -37q6 -15 13 -15q14 0 33 22
q18 22 35 51q17 28 31 55q13 27 17 38q8 23 14 46q5 23 5 48q0 17 -6 34q-6 16 -16 30q-11 13 -26 22z" />
    <glyph glyph-name="q" unicode="q" horiz-adv-x="903" 
d="M463 1212q76 0 135 -24q58 -25 103 -67q44 -43 75 -99q30 -56 49 -119q18 -64 27 -130q8 -67 8 -130q0 -94 -28 -182q-29 -89 -95 -158q-17 -20 -41 -39q-6 -6 -14 -10t-14 -10q-11 -11 -18 -28q-7 -18 -7 -34q0 -11 9 -19q8 -9 20 -14q12 -6 25 -9t22 -3q28 0 54 6
t53 14q26 7 52 13t54 6q56 0 118 -17q61 -18 118 -49t106 -73q48 -43 78 -92q-39 15 -78 27q-40 12 -82 12q-44 0 -83 -11q-40 -11 -78 -27t-74 -35q-37 -19 -75 -35t-78 -27t-83 -11q-44 0 -91 14q-48 15 -87 42q-39 28 -64 67q-26 40 -26 90q0 40 16 72q16 31 45 59
q-38 -6 -74 -6q-106 0 -188 42t-138 113q-56 70 -85 162q-29 91 -29 189q0 64 16 130q16 65 50 119q33 54 85 90t125 42q-6 18 -6 37q0 34 20 56t50 35q29 12 63 17zM508 1077q-55 0 -93 -33q-39 -34 -63 -82q-25 -49 -36 -103q-11 -55 -11 -97q0 -43 11 -98t36 -104
q24 -49 63 -82q38 -34 93 -34q54 0 92 34q38 33 62 82t36 104q11 55 11 98q0 42 -11 97q-12 54 -36 103q-24 48 -62 82z" />
    <glyph glyph-name="r" unicode="r" horiz-adv-x="891" 
d="M514 1163q70 0 133 -19t111 -57t76 -94t28 -131q0 -62 -28 -104q-28 -43 -71 -70q-44 -27 -98 -39t-106 -12h-39q38 -30 67 -81q28 -51 56 -110q27 -60 57 -121t70 -110q40 -50 94 -81q54 -32 129 -32q50 0 87 13t75 45q0 -58 -16 -116q-17 -59 -49 -107q-33 -47 -81 -77
t-110 -30q-74 0 -132 26t-102 70t-75 102q-31 57 -51 119t-30 125q-11 62 -13 117q-2 28 -4 59q-2 30 -9 59q-8 29 -23 54t-42 41q-3 -34 -5 -67q-3 -34 -3 -68q0 -59 7 -123q6 -65 23 -121h-440q39 58 76 139q36 81 64 169q27 87 44 173t17 156q0 38 -4 78t-13 79t-23 77
q-15 37 -36 69h389zM465 1010q-29 0 -46 -20q-18 -20 -18 -48v-209q24 0 53 16q28 16 52 40t41 53q16 29 16 55q0 20 -7 40t-20 37q-13 16 -31 26z" />
    <glyph glyph-name="s" unicode="s" horiz-adv-x="627" 
d="M0 686q21 -29 52 -64q31 -36 68 -67q36 -31 77 -51q40 -21 79 -21q19 0 36 7q16 6 29 17t21 27q7 16 7 35q0 26 -12 50q-13 23 -33 40l-127 115q-29 26 -53 53q-25 27 -42 57q-17 29 -26 63q-10 33 -10 73q0 52 22 91q21 38 56 63t80 37q44 12 91 12q46 0 96 -14
q49 -15 90 -42q40 -28 67 -69q26 -41 26 -94q0 -44 -25 -74q-25 -31 -71 -31q-26 0 -51 11q-26 10 -46 28q-20 17 -32 41q-13 24 -13 51q0 34 25 55t57 21q25 0 43 -12q-14 31 -45 46q-32 15 -63 15q-45 0 -77 -27t-32 -73q0 -53 27 -91q27 -39 67 -73t88 -69q47 -35 87 -81
t67 -108q27 -63 27 -152q0 -71 -22 -125q-22 -55 -62 -92t-96 -56q-57 -20 -125 -20q-79 0 -155 24t-142 62z" />
    <glyph glyph-name="t" unicode="t" horiz-adv-x="979" 
d="M547 1001q-11 -40 -16 -79q-5 -40 -5 -82q0 -60 9 -134q8 -74 26 -149t46 -143q27 -69 65 -117h-533q42 55 79 130q37 74 65 155t45 163q16 81 16 150q0 28 -3 53q-4 24 -14 41q-11 17 -31 27t-52 10q-26 0 -60 -5t-68 -14q-35 -10 -65 -23q-31 -14 -49 -32q-2 10 -2 18
v17q0 64 19 116q18 52 54 88q35 36 87 56q51 19 116 19q41 0 81 -4l80 -8q40 -5 80 -9t81 -4q37 0 82 5q45 4 90 15t86 29q41 17 70 43q23 -42 38 -93t15 -99q0 -101 -57 -149t-154 -48q-26 0 -55 5q-30 4 -59 12t-56 19z" />
    <glyph glyph-name="u" unicode="u" horiz-adv-x="719" 
d="M664 1403q43 0 81 -15t70 -42q-45 -9 -77 -38q-33 -30 -54 -70t-31 -85q-10 -46 -10 -86q0 -51 6 -102q5 -52 12 -103l12 -102q5 -51 5 -103q0 -74 -25 -139q-26 -66 -71 -114q-46 -49 -109 -77q-64 -28 -139 -28q-136 0 -202 67q-66 66 -66 203q0 94 4 188q4 93 4 187
q0 47 -3 88q-4 40 -12 78t-22 76q-15 38 -37 80h336q-18 -36 -33 -85q-16 -49 -26 -101q-11 -53 -17 -104t-6 -91q0 -29 4 -67q3 -39 16 -73q12 -34 36 -57q24 -24 65 -24q26 0 43 10q17 9 27 25t14 37q4 20 4 42q0 38 -7 76q-8 38 -17 78q-10 39 -17 80q-8 40 -8 82
q0 52 18 107q17 55 50 100q32 45 78 74z" />
    <glyph glyph-name="v" unicode="v" horiz-adv-x="815" 
d="M457 1221q-51 -73 -83 -160q-32 -88 -32 -176q0 -32 4 -67q4 -36 15 -70q10 -34 28 -64q17 -30 43 -51q6 -5 16 -11t19 -6q14 0 16 10t2 21q0 32 -7 64t-13 63q-12 76 -12 154q0 85 19 160q18 75 60 131q41 55 108 88q66 32 161 32q50 0 109 -12q58 -13 106 -33
q-50 -23 -92 -56q-43 -34 -80 -75q-69 -74 -116 -162q-48 -89 -76 -185q-29 -96 -41 -196q-13 -101 -13 -200q0 -69 6 -139h-498q22 37 37 81t24 90t13 93q4 46 4 88q0 70 -9 151q-10 81 -31 161q-22 79 -57 151q-36 72 -87 125h457z" />
    <glyph glyph-name="w" unicode="w" horiz-adv-x="936" 
d="M102 1274q54 0 97 -22q43 -23 73 -60q30 -38 46 -85q16 -48 16 -99q0 -16 -1 -31t-1 -31q0 -5 2 -12q1 -7 4 -13q3 -7 8 -11q5 -5 12 -5q14 0 23 14q8 14 13 32q4 18 6 36q1 18 1 27q0 49 -16 95t-35 89h275q-11 -20 -19 -34q-9 -14 -14 -28q-6 -14 -9 -31t-3 -42
q0 -17 3 -32q2 -16 7 -32q2 -8 10 -26q8 -19 19 -38q10 -19 22 -33q12 -15 23 -15t14 7q2 6 2 15q0 17 -3 35q-4 18 -7 37q-5 31 -6 62q-2 30 -2 61q0 51 16 91t46 67q29 27 70 41t91 14q59 0 125 -13q66 -14 118 -38q-50 -31 -88 -78q-39 -48 -68 -105q-29 -58 -49 -123
t-33 -130q-13 -66 -18 -128q-6 -63 -6 -116q0 -82 9 -163q8 -82 26 -163h-332q15 18 24 42t14 51q4 26 6 53q1 26 1 49q0 29 -2 58q-3 28 -8 56q-2 12 -8 41q-6 28 -16 58q-11 29 -25 51q-15 22 -33 22q-12 0 -21 -21q-10 -22 -17 -55q-8 -33 -14 -73t-9 -77q-4 -37 -6 -65
q-2 -29 -2 -40q0 -39 2 -77q1 -38 10 -73h-412q31 33 55 77t40 93t24 99q8 49 8 94q0 70 -9 156t-30 172t-55 164q-35 77 -86 130z" />
    <glyph glyph-name="x" unicode="x" horiz-adv-x="883" 
d="M354 1161q-18 -34 -26 -74q-9 -41 -9 -79q0 -23 3 -47t8 -46q2 -8 11 -33q8 -25 20 -51q11 -27 24 -48q12 -21 23 -21q8 0 13 14q4 13 6 30t3 34v22q0 29 -4 59q-4 29 -8 59q-5 29 -8 59q-4 29 -4 59q0 114 60 174q60 59 175 59q81 0 155 -22q74 -23 140 -66
q-72 -33 -142 -78t-125 -102q-55 -58 -88 -130q-34 -72 -34 -159q0 -84 31 -162q30 -78 79 -148q49 -71 111 -132q61 -61 123 -109h-463q25 29 39 68t14 78q0 10 -3 32q-3 21 -9 43t-16 39t-25 17q-29 0 -45 -26q-16 -27 -24 -64q-9 -38 -11 -79q-2 -42 -2 -73v-35h-346
q106 85 161 199q54 114 54 250q0 68 -15 135q-16 66 -44 129q-28 62 -66 119q-39 57 -84 106h348z" />
    <glyph glyph-name="y" unicode="y" horiz-adv-x="870" 
d="M295 1079q-3 -11 -3 -21q-1 -11 -1 -22q0 -62 25 -124q25 -63 67 -109q6 -8 16 -17t19 -12q13 13 23 36q9 22 15 47q6 24 9 49q2 24 2 42q0 32 -5 66t-13 65h421q-63 -53 -123 -120q-60 -68 -107 -145q-48 -77 -76 -161q-29 -84 -29 -170q0 -93 26 -178q26 -86 76 -164
h-637q41 34 89 83q47 49 88 106q41 56 68 116t27 117q0 29 -7 60q-8 31 -20 62q-12 30 -27 59q-15 28 -30 53q-43 68 -85 138q-43 69 -74 144h266z" />
    <glyph glyph-name="z" unicode="z" horiz-adv-x="825" 
d="M715 711q49 -22 78 -71q28 -50 28 -112q0 -74 -27 -131t-70 -95t-98 -57q-55 -20 -110 -20h-516q13 15 27 33q13 18 32 47q18 29 44 73q25 44 62 112q37 67 88 162t120 225q0 14 -11 27q-12 12 -29 21q-18 9 -39 14t-40 5q-25 0 -54 -10q-29 -11 -54 -30t-41 -44
q-17 -25 -17 -53q0 -5 1 -9q1 -5 3 -12q-38 17 -61 57q-23 39 -23 87q0 62 27 107t69 75q41 29 90 43q48 14 91 14h532q-43 -29 -85 -75q-42 -47 -79 -101q-38 -54 -70 -112q-33 -58 -56 -111q-24 -53 -37 -97t-13 -71q0 -37 20 -63q19 -27 68 -27q31 0 59 14q27 13 48 36
t33 54t12 66q0 6 -1 14z" />
    <glyph glyph-name="braceleft" unicode="{" horiz-adv-x="621" 
d="M49 647q39 6 75 22q35 16 62 41q27 24 44 58q16 34 16 76q0 37 -7 73t-15 73q-9 36 -16 73q-7 36 -7 74q0 73 32 136t84 111t119 79q66 30 135 38v-35q-92 -17 -130 -75q-38 -59 -38 -150q0 -39 6 -77q6 -39 14 -77q7 -39 13 -77q6 -39 6 -78q0 -59 -31 -107
q-32 -48 -79 -85t-103 -64t-104 -45q48 -19 104 -47t103 -65q47 -38 79 -86q31 -49 31 -109q0 -39 -5 -76q-6 -38 -13 -76t-12 -76q-6 -39 -6 -78q0 -46 9 -84q8 -37 28 -66q19 -29 51 -49q31 -20 77 -32v-33q-68 10 -134 40q-66 31 -118 78t-84 109q-32 63 -32 138
q0 37 7 73q6 35 15 71q8 36 15 72q6 36 6 73q0 44 -15 79q-16 34 -42 59q-27 25 -63 41q-36 15 -77 23v37z" />
    <glyph glyph-name="bar" unicode="|" horiz-adv-x="266" 
d="M217 1518v-2048h-168v2048h168z" />
    <glyph glyph-name="braceright" unicode="}" horiz-adv-x="621" 
d="M571 610q-40 -8 -75 -23q-36 -16 -63 -41t-42 -59q-16 -35 -16 -79q0 -37 7 -73q6 -36 15 -72q8 -36 15 -71q6 -36 6 -73q0 -75 -32 -138q-32 -62 -84 -109t-118 -78q-67 -30 -135 -40v33q92 23 130 81t38 150q0 39 -6 78q-6 38 -13 76q-8 38 -14 76q-6 37 -6 76
q0 60 32 109q31 48 79 86q47 37 103 65t104 47q-48 18 -103 45q-56 27 -103 64q-48 37 -79 85t-31 107q0 39 6 78q6 38 13 77q6 38 12 77q6 38 6 77q0 45 -8 83q-9 38 -29 67q-20 28 -52 48q-32 19 -79 27v35q69 -8 136 -38q66 -31 119 -79q52 -48 84 -111t32 -136
q0 -38 -6 -74q-7 -37 -15 -73q-9 -37 -15 -73q-7 -36 -7 -73q0 -42 16 -76t43 -58q27 -25 62 -41t73 -22v-37z" />
    <glyph glyph-name="asciitilde" unicode="~" horiz-adv-x="1081" 
d="M49 469q0 69 20 126t58 99q38 41 93 64q55 22 126 22q63 0 126 -21q62 -21 123 -46q60 -26 119 -47t115 -21q29 0 56 11q26 10 47 29q20 18 34 43q13 24 17 52h49q0 -62 -23 -117t-62 -96q-40 -41 -94 -64q-55 -24 -118 -24q-64 0 -123 21q-60 21 -118 47q-59 25 -118 46
q-60 21 -124 21q-30 0 -57 -11q-27 -12 -48 -31q-21 -20 -34 -46q-13 -27 -15 -57h-49z" />
    <glyph glyph-name="uni00A0" unicode="&#xa0;" horiz-adv-x="614" 
 />
    <glyph glyph-name="exclamdown" unicode="&#xa1;" horiz-adv-x="522" 
d="M49 -205q31 65 54 141q23 77 39 158q15 80 23 160q7 80 7 152q0 80 -12 161q-13 80 -47 154q48 -32 104 -49t113 -17q21 0 44 3q22 3 44 10q-25 -75 -33 -152q-8 -78 -8 -156q0 -68 5 -140q5 -73 15 -145q10 -73 25 -145q15 -71 35 -135h-408zM295 723q-35 0 -67 12
q-32 11 -57 33q-26 21 -41 51t-15 66t15 66t41 51q25 21 57 33t67 12q34 0 66 -12t57 -33t40 -51t15 -66t-15 -66t-40 -51q-25 -22 -57 -33z" />
    <glyph glyph-name="cent" unicode="&#xa2;" horiz-adv-x="903" 
d="M854 539q-40 -50 -61 -110q-22 -60 -31 -122q-9 -72 -57 -120q-49 -49 -115 -72q5 -29 11 -57q5 -29 11 -58h-278l12 62q5 30 10 61q-75 25 -132 74q-58 49 -96 113q-39 64 -59 139q-20 74 -20 151q0 82 21 166q21 83 63 156q42 72 105 128t147 83l-12 118h200l-12 -104
q48 -8 92 -28q44 -21 78 -53q33 -33 54 -75q20 -43 20 -94q0 -32 -12 -57q-12 -26 -33 -44t-48 -28q-28 -10 -59 -10q-38 0 -72 13q-35 12 -61 35q-27 22 -43 55q-16 32 -16 71q0 37 25 61q24 23 61 23q29 0 57 -8q27 -8 51 -25q-28 37 -66 60q-39 22 -85 22q-61 0 -107 -27
q-46 -28 -77 -72t-46 -98q-16 -54 -16 -108q0 -67 22 -128q22 -62 62 -109t97 -75t128 -28q78 0 144 39q65 38 110 100z" />
    <glyph glyph-name="sterling" unicode="&#xa3;" horiz-adv-x="1077" 
d="M756 649q54 -20 103 -58q49 -39 87 -89q37 -50 60 -107q22 -58 22 -116q0 -69 -26 -121q-27 -52 -71 -87q-45 -35 -103 -53t-121 -18h-658q29 59 51 131q21 72 35 148q14 75 23 151q8 75 12 141h-100v129h102q-1 42 -6 84l-10 84q-6 42 -10 84q-5 41 -5 82q0 64 19 122
q18 57 54 100q36 42 89 67t121 25q50 0 102 -11q51 -12 98 -35q47 -24 86 -59q38 -35 62 -82q-41 15 -86 15q-50 0 -87 -25q-38 -25 -65 -65q-28 -40 -45 -91q-18 -52 -28 -105q-11 -53 -15 -103t-4 -87h142v-129h-131q7 -38 20 -72t35 -59q21 -26 53 -41q31 -16 74 -16
q34 0 63 12t50 34q21 21 33 50t12 64q0 28 -10 55z" />
    <glyph glyph-name="currency" unicode="&#xa4;" horiz-adv-x="1147" 
d="M1098 543q-42 -63 -59 -138q-17 -76 -21 -151q-4 -59 -28 -106q-25 -47 -64 -80q-40 -33 -91 -50q-51 -18 -108 -18q-116 0 -211 50q-96 50 -167 132q-71 81 -115 184q-45 102 -60 207h-125l43 82h76v39h-119l43 80h80q9 96 42 190t92 169q58 75 141 121q82 46 190 46
q71 0 138 -25t119 -69q51 -45 83 -107q31 -63 31 -138q0 -33 -14 -59q-14 -27 -36 -46q-23 -20 -52 -30q-29 -11 -60 -11q-49 0 -92 19q-44 18 -76 50q-32 31 -51 74t-19 91q0 18 8 34q7 15 20 27q12 11 28 17t34 6q34 0 67 -9q32 -10 60 -30q-32 43 -79 73q-47 29 -103 29
q-66 0 -113 -31q-48 -31 -79 -79t-45 -107q-15 -60 -15 -117q0 -21 2 -43q1 -22 6 -45h492l-45 -80h-428l14 -39h393l-43 -82h-307q26 -39 59 -71q33 -33 72 -57t84 -37q44 -13 92 -13q44 0 85 13q40 13 75 36t65 55q29 31 52 68z" />
    <glyph glyph-name="yen" unicode="&#xa5;" horiz-adv-x="1473" 
d="M1423 1251q-13 -52 -43 -105q-30 -54 -70 -107q-41 -53 -88 -106q-47 -54 -92 -106t-85 -103q-41 -51 -68 -99h264v-82h-303l-10 -37h313v-82h-315q7 -60 35 -119q27 -60 65 -115q38 -56 84 -104q45 -49 90 -86h-850q81 90 139 197q57 106 74 227h-325v82h329v37h-329v82
h317q-21 97 -71 189q-51 91 -119 172t-150 149t-166 116h840q-28 -30 -54 -75q-27 -45 -48 -94q-21 -50 -33 -100q-13 -51 -13 -91q0 -14 2 -33q2 -20 7 -40q4 -20 11 -38q6 -19 15 -30q17 6 35 20t31 25q28 25 55 56q26 30 48 65q21 34 37 72q15 37 22 75q2 11 3 23t1 24
q0 34 -8 73q-9 39 -27 68h450z" />
    <glyph glyph-name="brokenbar" unicode="&#xa6;" horiz-adv-x="266" 
d="M217 1518v-998h-168v998h168zM217 -530h-168v995h168v-995z" />
    <glyph glyph-name="section" unicode="&#xa7;" horiz-adv-x="1419" 
d="M711 1313q90 0 175 -23q84 -24 157 -67q73 -44 134 -104q60 -61 103 -134q43 -74 67 -158q23 -85 23 -176t-23 -175q-24 -85 -67 -158q-43 -74 -103 -134q-61 -60 -134 -103q-73 -44 -157 -67q-85 -24 -175 -24q-137 0 -257 52q-121 52 -211 142t-142 210t-52 257t52 258
q52 120 142 210t211 142zM1135 319q57 72 86 157q28 84 28 175q0 103 -36 196q-37 92 -101 164q-65 72 -152 119q-88 46 -190 58v-504zM770 514v-399q77 8 149 39q72 30 132 79zM649 684v504q-102 -12 -189 -58q-88 -47 -152 -119q-65 -72 -101 -164q-37 -93 -37 -196
q0 -91 30 -175q29 -85 85 -157zM369 233q60 -49 132 -79q71 -31 148 -39v399z" />
    <glyph glyph-name="dieresis" unicode="&#xa8;" horiz-adv-x="492" 
d="M356 1409q18 0 34 -7q15 -7 27 -19q11 -12 18 -28t7 -34t-7 -33q-7 -16 -18 -27q-12 -12 -27 -19q-16 -7 -34 -7t-34 7t-28 19q-12 11 -19 27q-7 15 -7 33t7 34t19 28t28 19zM135 1409q18 0 34 -7t28 -19t19 -28t7 -34t-7 -33q-7 -16 -19 -27q-12 -12 -28 -19t-34 -7
t-33 7q-16 7 -27 19q-12 11 -19 27q-7 15 -7 33t7 34t19 28q11 12 27 19z" />
    <glyph glyph-name="copyright" unicode="&#xa9;" horiz-adv-x="1419" 
d="M711 1294q90 0 175 -23q84 -24 157 -67t134 -103q60 -61 103 -134t67 -157q23 -85 23 -175q0 -91 -23 -175q-24 -85 -67 -158q-43 -74 -103 -134q-61 -61 -134 -104q-73 -44 -157 -68q-85 -23 -175 -23q-91 0 -175 24q-85 24 -158 67q-74 43 -134 104q-61 60 -104 134
q-44 74 -67 158q-24 84 -24 175q0 90 24 175q23 84 67 157q43 73 104 134q60 60 134 103q73 43 158 67zM711 1241q-126 0 -237 -47q-111 -48 -193 -130q-83 -83 -131 -193q-48 -111 -48 -236t48 -236t131 -193q83 -83 194 -131t236 -48q83 0 161 22q77 22 144 62
q67 39 123 95q55 55 95 123q39 67 61 145q22 77 22 161q0 125 -48 236q-48 110 -130 193q-83 82 -193 130zM1145 545q-40 -53 -56 -114q-17 -61 -22 -124q-5 -54 -31 -94q-27 -41 -67 -67q-41 -26 -90 -39q-50 -13 -99 -13q-117 0 -217 47q-100 46 -174 124t-116 182
q-42 103 -42 217q0 102 32 195q32 92 92 162q59 70 145 112q85 41 192 41q60 0 124 -18q64 -19 118 -54q53 -36 87 -89t34 -122q0 -30 -15 -52q-15 -23 -38 -38q-24 -16 -52 -23q-28 -8 -53 -8q-42 0 -83 14q-42 13 -75 38t-54 62q-21 36 -21 81q0 17 9 30q8 13 21 22
q12 8 28 13q15 4 30 4q32 0 65 -8q32 -8 60 -25q-35 39 -80 62q-46 22 -99 22q-58 0 -104 -22q-46 -23 -77 -60q-32 -38 -49 -88t-17 -104q0 -80 30 -150q30 -71 83 -123q52 -53 122 -83q70 -31 150 -31t152 38q71 37 118 103z" />
    <glyph glyph-name="ordfeminine" unicode="&#xaa;" horiz-adv-x="653" 
d="M526 1260q-20 -50 -28 -101q-9 -52 -9 -104q0 -47 6 -106q6 -60 20 -119q13 -60 35 -114t54 -89h-274q24 17 38 45q13 28 13 57q0 14 -4 29q-5 15 -13 27q-9 12 -21 20q-13 8 -28 8q-20 0 -32 -10q-13 -10 -19 -25q-7 -16 -9 -36q-3 -21 -3 -42q0 -23 2 -43t2 -34h-201
q31 26 54 68t40 93q16 51 27 109q11 57 18 115q6 58 9 112q2 54 2 99v41h321zM307 1081q-8 0 -18 -17t-18 -39q-9 -22 -15 -43t-6 -30q0 -31 20 -53t52 -22q23 0 36 18q13 17 13 39q0 7 -7 31q-8 24 -18 50t-21 46zM49 453v122h555v-122h-555z" />
    <glyph glyph-name="guillemotleft" unicode="&#xab;" horiz-adv-x="623" 
d="M262 412l164 231h147l-151 -231l151 -232h-147zM49 412l166 231h145l-151 -231l151 -232h-145z" />
    <glyph glyph-name="logicalnot" unicode="&#xac;" horiz-adv-x="944" 
d="M694 301v238h-645v200h846v-438h-201z" />
    <glyph glyph-name="registered" unicode="&#xae;" 
d="M408 1309q73 0 138 -28q65 -29 114 -77q48 -49 76 -114q28 -66 28 -140t-28 -138q-28 -65 -76 -113q-49 -49 -114 -77t-138 -28q-74 0 -139 28q-66 28 -114 77q-49 48 -77 113q-29 64 -29 138t29 140q28 65 77 114q48 48 114 77zM408 1282q-69 0 -129 -26
q-61 -26 -106 -71t-71 -105q-26 -61 -26 -130q0 -68 26 -128t71 -104q45 -45 106 -71q60 -26 129 -26q68 0 128 26t105 71q44 44 70 104t26 128q0 69 -26 130q-26 60 -70 105q-45 45 -105 71zM432 1217q36 0 70 -8q33 -8 59 -25q26 -18 42 -46q15 -28 15 -69q0 -35 -14 -59
q-14 -25 -37 -40q-24 -15 -53 -21q-29 -7 -59 -7q34 -12 57 -37q23 -26 42 -57q18 -32 35 -65t40 -58h-158q-5 25 -7 54t-7 57q-6 27 -18 50q-13 23 -38 38q0 -21 1 -46q0 -25 3 -51q2 -27 7 -53t14 -49h-219q18 30 33 70q15 39 27 81q11 42 18 84q6 41 6 76q0 47 -13 95
t-40 86h194zM412 1137q-17 0 -24 -10q-7 -11 -7 -25l8 -111q13 1 27 10q14 8 25 21q11 12 19 27q7 15 7 28q0 22 -16 41z" />
    <glyph glyph-name="macron" unicode="&#xaf;" horiz-adv-x="588" 
d="M539 1296v-69h-490v69h490z" />
    <glyph glyph-name="degree" unicode="&#xb0;" horiz-adv-x="457" 
d="M229 1247q37 0 70 -14q32 -14 57 -38q24 -24 38 -56q14 -33 14 -70t-14 -69q-14 -33 -38 -57q-25 -25 -57 -39q-33 -15 -70 -15q-38 0 -70 15q-33 14 -57 39q-25 24 -39 57q-14 32 -14 69t14 70q14 32 39 56q24 24 57 38zM229 1176q-22 0 -41 -8q-20 -9 -34 -24t-22 -34
q-9 -20 -9 -41t9 -40q8 -20 22 -34q14 -15 34 -23q19 -9 41 -9t41 9q19 8 33 23q14 14 23 34q8 19 8 40t-8 41q-9 19 -23 34t-33 24z" />
    <glyph glyph-name="plusminus" unicode="&#xb1;" horiz-adv-x="944" 
d="M571 555v-305h-200v305h-322v201h322v305h200v-305h324v-201h-324zM49 0v201h846v-201h-846z" />
    <glyph glyph-name="uni00B2" unicode="&#xb2;" horiz-adv-x="426" 
d="M104 1145l14 6q7 2 13 2q23 0 39 -18t16 -39q0 -20 -16 -34q-17 -15 -37 -15q-40 0 -62 25t-22 63q0 31 13 54q12 23 33 39q20 16 46 24t54 8q37 0 71 -12q33 -12 58 -34q24 -22 39 -53q14 -32 14 -71q0 -32 -10 -56q-11 -24 -28 -44q-18 -20 -40 -36q-22 -17 -45 -32
l-90 -64h186v-178h-289v174q25 16 57 42q31 26 59 58q28 31 48 65q19 34 19 66q0 19 -5 38q-6 18 -16 33q-11 15 -27 25q-17 9 -38 9q-19 0 -35 -12z" />
    <glyph glyph-name="uni00B3" unicode="&#xb3;" horiz-adv-x="453" 
d="M78 870q18 -21 42 -35t52 -14q25 0 47 16q21 16 21 42q0 27 -21 46t-49 19q-32 0 -53 -24l-6 6q2 11 3 22q1 10 1 21q0 18 -2 35t-9 34q11 -5 22 -7q11 -3 24 -3q40 0 65 22t25 64q0 18 -6 34t-17 29q-12 12 -27 20q-16 7 -34 7q-17 0 -30 -9q-13 -10 -20 -26q10 7 23 7
q23 0 37 -18t14 -40q0 -18 -13 -30q-13 -13 -32 -13q-35 0 -60 24q-26 23 -26 58q0 28 13 48q13 19 33 32q20 12 44 18q24 5 47 5q34 0 65 -10t55 -29t38 -47t14 -64q0 -22 -9 -41t-23 -33q-15 -15 -34 -24q-19 -10 -40 -13q33 -7 61 -24q27 -18 48 -43q20 -25 31 -55
q11 -31 11 -64q0 -38 -17 -69q-17 -32 -44 -54q-28 -23 -63 -35t-70 -12q-38 0 -76 9t-72 28z" />
    <glyph glyph-name="acute" unicode="&#xb4;" horiz-adv-x="592" 
d="M109 1235h-60l258 332h236z" />
    <glyph glyph-name="mu" unicode="&#xb5;" horiz-adv-x="1100" 
d="M899 1104q43 0 82 -15q38 -15 70 -42q-45 -9 -77 -39q-33 -30 -54 -70t-31 -85t-10 -85q0 -51 6 -102q5 -52 11 -103l12 -102q5 -51 5 -103q0 -75 -25 -140q-26 -66 -72 -114t-109 -76q-64 -28 -140 -28q-6 -133 -72 -194q-67 -60 -198 -60q-71 0 -135 29q-65 29 -113 82
q64 56 109 144t74 188q28 100 42 200q13 100 13 180q0 97 -13 197t-47 192h338q-17 -38 -31 -85q-14 -48 -24 -98t-15 -99q-6 -50 -6 -90q0 -29 4 -67q3 -39 16 -73t37 -57q23 -24 64 -24q26 0 43 10q17 9 27 25t14 37q4 20 4 42q0 38 -8 76t-17 78q-10 39 -18 80
q-8 40 -8 82q0 52 18 107q17 55 50 100t80 74z" />
    <glyph glyph-name="paragraph" unicode="&#xb6;" horiz-adv-x="2152" 
d="M1737 1116q-123 0 -230 -47q-108 -48 -188 -129q-80 -82 -126 -191t-46 -231q0 -117 41 -221q41 -105 115 -183q73 -78 175 -124q101 -45 222 -45q51 0 98 16q47 17 83 48q36 30 58 74q21 44 21 99q0 35 -16 72q-28 -56 -82 -88q-54 -33 -117 -33q-38 0 -74 13
q-37 12 -66 36q-29 23 -47 56q-18 32 -18 73q0 46 20 83t52 63q32 25 73 39t82 14q69 0 130 -25q61 -26 107 -70q45 -45 72 -104q27 -60 27 -129q0 -84 -32 -154q-33 -71 -88 -121t-128 -78q-74 -28 -155 -28q-89 0 -173 21q-85 22 -160 63t-138 100t-111 134
q-36 -72 -88 -132q-53 -59 -118 -102q-65 -42 -140 -66t-156 -24q-82 0 -155 23q-74 23 -137 64t-114 98t-86 125q-36 67 -55 143q-20 76 -20 155q0 118 31 227q30 109 86 205q56 95 135 174q78 78 173 134q95 55 204 86t227 31h832v-144zM508 694q0 -79 29 -152
q28 -73 79 -128q51 -56 121 -89q70 -34 152 -34q35 0 71 9q36 8 68 24q-24 94 -24 194q0 88 21 173q20 85 59 162q38 77 94 144t127 119h-400q-85 0 -157 -35q-73 -35 -126 -93q-54 -59 -84 -135z" />
    <glyph glyph-name="periodcentered" unicode="&#xb7;" horiz-adv-x="457" 
d="M229 786q32 0 64 -10q32 -11 58 -31q25 -20 41 -48q16 -29 16 -64t-16 -63q-16 -29 -41 -48q-26 -20 -58 -30q-32 -11 -64 -11t-64 11q-33 10 -58 30q-26 19 -42 48q-16 28 -16 63t16 64q16 28 42 48q25 20 58 31z" />
    <glyph glyph-name="cedilla" unicode="&#xb8;" horiz-adv-x="483" 
d="M289 12q22 -2 48 -10q25 -9 47 -23q21 -14 36 -35q14 -21 14 -48q0 -30 -17 -52q-17 -21 -42 -36q-26 -14 -55 -21q-29 -6 -54 -6q-55 0 -110 11q-56 12 -107 38v39q19 -12 41 -18q22 -5 45 -5q16 0 37 4q20 4 39 13q18 9 31 23q12 15 12 36q0 23 -16 38q-17 16 -37 26
l75 104h68z" />
    <glyph glyph-name="uni00B9" unicode="&#xb9;" horiz-adv-x="309" 
d="M238 1260q6 -47 6 -93q0 -55 -5 -110q-6 -55 -6 -111q0 -133 27 -262h-199q-3 20 -3 40q-1 20 -1 40q0 40 5 80q5 39 11 79q5 39 10 79t5 81q0 15 -2 32q-2 16 -6 33q-5 16 -12 31q-8 14 -19 25z" />
    <glyph glyph-name="ordmasculine" unicode="&#xba;" horiz-adv-x="614" 
d="M328 1260q70 0 116 -34q45 -35 72 -87q27 -53 38 -115q11 -63 11 -119q0 -57 -16 -109q-17 -53 -48 -94q-32 -41 -79 -65q-48 -25 -109 -25q-65 0 -114 27q-50 27 -83 72q-33 44 -50 101t-17 116q0 39 9 80q9 40 29 74q20 33 52 56q31 23 76 27q-2 7 -3 13q-1 5 -1 10
q0 21 12 35t30 23q17 8 38 11zM356 1184q-33 0 -56 -21q-23 -22 -37 -52q-14 -31 -20 -65q-7 -35 -7 -61q0 -25 7 -59q6 -34 20 -64q14 -31 37 -52q23 -22 56 -22t56 22q23 21 38 52q14 30 21 64q6 34 6 59q0 26 -6 61q-7 34 -21 65q-15 30 -38 52zM55 453v122h504v-122
h-504z" />
    <glyph glyph-name="guillemotright" unicode="&#xbb;" horiz-adv-x="623" 
d="M360 412l-163 -232h-148l152 232l-152 231h148zM573 412l-165 -232h-146l152 232l-152 231h146z" />
    <glyph glyph-name="onequarter" unicode="&#xbc;" horiz-adv-x="1282" 
d="M1198 862q5 -34 8 -68q2 -34 2 -69q0 -84 -8 -165t-8 -165q0 -100 10 -199q9 -99 31 -196h-299q-6 58 -6 119q0 34 3 67q2 32 5 64l-164 -31l-125 230l191 479q27 -22 42 -57t15 -70q0 -8 -1 -16t-3 -17l-62 -264q-2 -4 -2 -12q0 -6 2 -14q1 -9 5 -16q3 -8 9 -13
q5 -5 13 -5l109 7q5 37 8 74q2 37 2 75q0 21 -3 46t-10 50t-18 47q-12 22 -29 37zM393 0h-114l487 1260h115zM332 1260q5 -35 8 -69q2 -35 2 -69q0 -83 -8 -165q-8 -83 -8 -166q0 -101 10 -200q9 -99 31 -196h-301q-2 31 -3 61q-2 29 -2 60q0 61 7 121q7 59 16 119
q8 59 15 119t7 120q0 22 -3 48q-3 25 -9 50q-7 25 -18 47t-27 38z" />
    <glyph glyph-name="onehalf" unicode="&#xbd;" horiz-adv-x="1280" 
d="M825 696q8 5 18 8t21 3q34 0 57 -26t23 -60q0 -15 -6 -28q-7 -14 -18 -24t-25 -16t-29 -6q-29 0 -52 11q-24 10 -40 28t-24 42q-9 24 -9 52q0 45 19 80q18 35 49 59q30 23 69 35t80 12q57 0 107 -18t87 -51q36 -33 58 -80q21 -47 21 -105q0 -47 -15 -83q-16 -37 -41 -67
q-26 -30 -59 -55t-67 -49l-138 -92h281v-266h-434v258q37 25 85 65q47 39 89 86t71 98t29 99q0 28 -8 57q-9 28 -25 51q-16 22 -39 36q-24 14 -55 14q-15 0 -29 -5t-25 -14t-18 -21zM393 0h-114l487 1260h115zM332 1260q5 -35 8 -69q2 -35 2 -69q0 -83 -8 -165
q-8 -83 -8 -166q0 -101 10 -200q9 -99 31 -196h-301q-2 31 -3 61q-2 29 -2 60q0 61 7 121q7 59 16 119q8 59 15 119t7 120q0 22 -3 48q-3 25 -9 50q-7 25 -18 47t-27 38z" />
    <glyph glyph-name="threequarters" unicode="&#xbe;" horiz-adv-x="1442" 
d="M1358 862q6 -34 8 -68t2 -69q0 -84 -8 -165t-8 -165q0 -100 10 -199q9 -99 31 -196h-299q-3 29 -5 60q-2 30 -2 59q0 34 3 67l6 64l-164 -31l-125 230l192 479q26 -22 41 -57t15 -70q0 -8 -1 -16t-3 -17l-62 -264q0 -3 -1 -6t-1 -6q0 -6 2 -14q1 -9 5 -16q3 -8 9 -13
q5 -5 13 -5l108 7q5 37 8 74t3 75q0 21 -3 46t-10 50t-18 47q-12 22 -29 37zM555 0h-113l486 1260h114zM92 676q28 -32 64 -52q35 -20 77 -20q19 0 38 6q18 5 33 16q14 11 23 27q9 15 9 35q0 21 -9 39t-23 31q-15 13 -34 21q-19 7 -39 7q-23 0 -44 -8q-22 -9 -37 -26l-9 8
q3 17 4 33v32q0 26 -2 52t-10 51q31 -15 66 -15q60 0 98 34q37 33 37 93q0 27 -9 52q-10 24 -27 43t-40 30t-51 11q-25 0 -44 -14q-19 -15 -28 -38q8 5 17 7q8 2 16 2q17 0 31 -7t25 -19q10 -12 16 -27t6 -31q0 -28 -21 -47t-47 -19t-49 10q-24 9 -41 26q-18 16 -28 39
q-11 22 -11 48q0 42 20 71q19 29 49 48q30 18 67 27q36 8 71 8q50 0 97 -15q46 -15 82 -43q36 -29 58 -70q21 -42 21 -96q0 -34 -13 -62q-14 -28 -36 -49q-23 -22 -51 -36q-29 -14 -60 -19q49 -11 91 -37q41 -26 71 -63q30 -38 47 -84t17 -96q0 -58 -25 -104
q-26 -47 -67 -80q-42 -33 -94 -50q-52 -18 -105 -18q-57 0 -113 13q-57 12 -106 40z" />
    <glyph glyph-name="questiondown" unicode="&#xbf;" horiz-adv-x="926" 
d="M492 -225q-80 0 -159 19q-79 20 -142 61q-63 42 -102 107q-40 65 -40 157q0 76 21 131q20 55 54 95q34 39 77 66t89 49q45 21 89 41q43 19 78 42q34 22 56 52q21 30 22 73h30q3 -17 6 -35q2 -18 2 -35q0 -56 -16 -98q-17 -43 -42 -77q-25 -35 -54 -65q-30 -31 -55 -64
t-41 -71q-17 -39 -17 -90q0 -45 17 -86q17 -42 47 -74q30 -31 71 -50q40 -19 86 -19q28 0 63 8q34 9 64 26t50 42t20 59v10q0 5 -2 10q-19 -17 -41 -26q-23 -10 -49 -10q-29 0 -53 11q-25 11 -43 30t-28 44q-11 25 -11 54q0 28 11 51q10 23 29 40q18 16 42 25t51 9
q43 0 80 -19t65 -49q28 -31 44 -70q16 -40 16 -81q0 -76 -35 -132q-36 -55 -91 -91q-56 -36 -124 -53zM539 721q-34 0 -66 12t-57 34q-25 21 -40 52q-16 30 -16 66t16 66q15 30 40 51t57 33t66 12t67 -12q32 -12 58 -33q25 -21 40 -51t15 -66t-15 -66q-15 -31 -40 -52
q-26 -22 -58 -34z" />
    <glyph glyph-name="Agrave" unicode="&#xc0;" horiz-adv-x="1137" 
d="M983 1251q-38 -96 -56 -199t-18 -206q0 -61 5 -134q5 -74 16 -152t29 -158t44 -153q25 -74 58 -138t76 -111h-545q51 34 76 90q24 55 24 115q0 27 -8 56q-9 28 -25 52q-16 23 -40 39q-25 15 -56 15t-53 -15q-23 -15 -37 -38q-15 -23 -22 -51q-7 -29 -7 -56q0 -65 3 -129
q2 -65 2 -131q0 -49 -19 -93q-19 -43 -51 -76t-75 -52q-44 -19 -93 -19q-64 0 -132 22t-132 58t-120 82q-55 47 -93 96q43 -18 88 -29q46 -10 92 -10q69 0 125 41q55 42 99 113q43 71 76 166q32 94 56 199q23 104 38 214q15 109 24 211q9 101 13 189q3 88 3 149v43h635z
M549 899q-11 0 -24 -16t-25 -41q-13 -25 -24 -55q-12 -30 -21 -58t-14 -51t-5 -33q0 -30 11 -57q10 -27 29 -47q18 -21 44 -33q25 -12 55 -12q23 0 42 9t32 25q13 15 20 35t7 41q0 13 -7 40q-7 26 -18 59q-11 32 -25 67q-14 34 -28 63q-15 28 -27 46zM278 1628h236l258 -332
h-59z" />
    <glyph glyph-name="Aacute" unicode="&#xc1;" horiz-adv-x="1137" 
d="M983 1251q-38 -96 -56 -199t-18 -206q0 -61 5 -134q5 -74 16 -152t29 -158t44 -153q25 -74 58 -138t76 -111h-545q51 34 76 90q24 55 24 115q0 27 -8 56q-9 28 -25 52q-16 23 -40 39q-25 15 -56 15t-53 -15q-23 -15 -37 -38q-15 -23 -22 -51q-7 -29 -7 -56q0 -65 3 -129
q2 -65 2 -131q0 -49 -19 -93q-19 -43 -51 -76t-75 -52q-44 -19 -93 -19q-64 0 -132 22t-132 58t-120 82q-55 47 -93 96q43 -18 88 -29q46 -10 92 -10q69 0 125 41q55 42 99 113q43 71 76 166q32 94 56 199q23 104 38 214q15 109 24 211q9 101 13 189q3 88 3 149v43h635z
M549 899q-11 0 -24 -16t-25 -41q-13 -25 -24 -55q-12 -30 -21 -58t-14 -51t-5 -33q0 -30 11 -57q10 -27 29 -47q18 -21 44 -33q25 -12 55 -12q23 0 42 9t32 25q13 15 20 35t7 41q0 13 -7 40q-7 26 -18 59q-11 32 -25 67q-14 34 -28 63q-15 28 -27 46zM605 1311h-60l258 332
h236z" />
    <glyph glyph-name="Acircumflex" unicode="&#xc2;" horiz-adv-x="1137" 
d="M983 1251q-38 -96 -56 -199t-18 -206q0 -61 5 -134q5 -74 16 -152t29 -158t44 -153q25 -74 58 -138t76 -111h-545q51 34 76 90q24 55 24 115q0 27 -8 56q-9 28 -25 52q-16 23 -40 39q-25 15 -56 15t-53 -15q-23 -15 -37 -38q-15 -23 -22 -51q-7 -29 -7 -56q0 -65 3 -129
q2 -65 2 -131q0 -49 -19 -93q-19 -43 -51 -76t-75 -52q-44 -19 -93 -19q-64 0 -132 22t-132 58t-120 82q-55 47 -93 96q43 -18 88 -29q46 -10 92 -10q69 0 125 41q55 42 99 113q43 71 76 166q32 94 56 199q23 104 38 214q15 109 24 211q9 101 13 189q3 88 3 149v43h635z
M549 899q-11 0 -24 -16t-25 -41q-13 -25 -24 -55q-12 -30 -21 -58t-14 -51t-5 -33q0 -30 11 -57q10 -27 29 -47q18 -21 44 -33q25 -12 55 -12q23 0 42 9t32 25q13 15 20 35t7 41q0 13 -7 40q-7 26 -18 59q-11 32 -25 67q-14 34 -28 63q-15 28 -27 46zM600 1575h74l213 -248
h-47l-203 133l-205 -133h-47z" />
    <glyph glyph-name="Atilde" unicode="&#xc3;" horiz-adv-x="1137" 
d="M983 1251q-38 -96 -56 -199t-18 -206q0 -61 5 -134q5 -74 16 -152t29 -158t44 -153q25 -74 58 -138t76 -111h-545q51 34 76 90q24 55 24 115q0 27 -8 56q-9 28 -25 52q-16 23 -40 39q-25 15 -56 15t-53 -15q-23 -15 -37 -38q-15 -23 -22 -51q-7 -29 -7 -56q0 -65 3 -129
q2 -65 2 -131q0 -49 -19 -93q-19 -43 -51 -76t-75 -52q-44 -19 -93 -19q-64 0 -132 22t-132 58t-120 82q-55 47 -93 96q43 -18 88 -29q46 -10 92 -10q69 0 125 41q55 42 99 113q43 71 76 166q32 94 56 199q23 104 38 214q15 109 24 211q9 101 13 189q3 88 3 149v43h635z
M549 899q-11 0 -24 -16t-25 -41q-13 -25 -24 -55q-12 -30 -21 -58t-14 -51t-5 -33q0 -30 11 -57q10 -27 29 -47q18 -21 44 -33q25 -12 55 -12q23 0 42 9t32 25q13 15 20 35t7 41q0 13 -7 40q-7 26 -18 59q-11 32 -25 67q-14 34 -28 63q-15 28 -27 46zM334 1329q0 42 12 77
q12 34 35 59t57 39q33 13 76 13q38 0 76 -13t75 -28t73 -28q35 -13 69 -13q18 0 34 7q15 6 28 17q12 11 20 26t10 32h31q0 -38 -14 -71t-38 -57q-24 -25 -57 -39q-33 -15 -71 -15q-39 0 -75 13t-72 28t-72 28t-74 13q-18 0 -34 -7t-29 -19t-21 -28q-9 -16 -10 -34h-29z" />
    <glyph glyph-name="Adieresis" unicode="&#xc4;" horiz-adv-x="1137" 
d="M983 1251q-38 -96 -56 -199t-18 -206q0 -61 5 -134q5 -74 16 -152t29 -158t44 -153q25 -74 58 -138t76 -111h-545q51 34 76 90q24 55 24 115q0 27 -8 56q-9 28 -25 52q-16 23 -40 39q-25 15 -56 15t-53 -15q-23 -15 -37 -38q-15 -23 -22 -51q-7 -29 -7 -56q0 -65 3 -129
q2 -65 2 -131q0 -49 -19 -93q-19 -43 -51 -76t-75 -52q-44 -19 -93 -19q-64 0 -132 22t-132 58t-120 82q-55 47 -93 96q43 -18 88 -29q46 -10 92 -10q69 0 125 41q55 42 99 113q43 71 76 166q32 94 56 199q23 104 38 214q15 109 24 211q9 101 13 189q3 88 3 149v43h635z
M549 899q-11 0 -24 -16t-25 -41q-13 -25 -24 -55q-12 -30 -21 -58t-14 -51t-5 -33q0 -30 11 -57q10 -27 29 -47q18 -21 44 -33q25 -12 55 -12q23 0 42 9t32 25q13 15 20 35t7 41q0 13 -7 40q-7 26 -18 59q-11 32 -25 67q-14 34 -28 63q-15 28 -27 46zM739 1470q18 0 34 -7
q15 -7 27 -19q11 -12 18 -28t7 -34t-7 -33q-7 -16 -18 -27q-12 -12 -27 -19q-16 -7 -34 -7t-34 7t-28 19q-12 11 -19 27q-7 15 -7 33t7 34t19 28t28 19zM518 1470q18 0 34 -7t28 -19t19 -28t7 -34t-7 -33q-7 -16 -19 -27q-12 -12 -28 -19t-34 -7t-33 7q-16 7 -27 19
q-12 11 -19 27q-7 15 -7 33t7 34t19 28q11 12 27 19z" />
    <glyph glyph-name="Aring" unicode="&#xc5;" horiz-adv-x="1137" 
d="M983 1251q-38 -96 -56 -199t-18 -206q0 -61 5 -134q5 -74 16 -152t29 -158t44 -153q25 -74 58 -138t76 -111h-545q51 34 76 90q24 55 24 115q0 27 -8 56q-9 28 -25 52q-16 23 -40 39q-25 15 -56 15t-53 -15q-23 -15 -37 -38q-15 -23 -22 -51q-7 -29 -7 -56q0 -65 3 -129
q2 -65 2 -131q0 -49 -19 -93q-19 -43 -51 -76t-75 -52q-44 -19 -93 -19q-64 0 -132 22t-132 58t-120 82q-55 47 -93 96q43 -18 88 -29q46 -10 92 -10q69 0 125 41q55 42 99 113q43 71 76 166q32 94 56 199q23 104 38 214q15 109 24 211q9 101 13 189q3 88 3 149v43h635z
M549 899q-11 0 -24 -16t-25 -41q-13 -25 -24 -55q-12 -30 -21 -58t-14 -51t-5 -33q0 -30 11 -57q10 -27 29 -47q18 -21 44 -33q25 -12 55 -12q23 0 42 9t32 25q13 15 20 35t7 41q0 13 -7 40q-7 26 -18 59q-11 32 -25 67q-14 34 -28 63q-15 28 -27 46zM633 1567q35 0 67 -13
q31 -14 55 -37q23 -24 37 -55q13 -32 13 -67q0 -36 -13 -67q-14 -32 -37 -56q-24 -24 -55 -37q-32 -14 -67 -14q-36 0 -67 14q-32 13 -56 37t-37 56q-14 31 -14 67q0 35 14 67q13 31 37 55q24 23 56 37zM633 1504q-23 0 -43 -8q-20 -9 -35 -24t-23 -35q-9 -20 -9 -42
q0 -23 9 -43q8 -20 23 -35t35 -24t43 -9q22 0 42 9t35 24t24 35q8 20 8 43q0 22 -8 42q-9 20 -24 35t-35 24z" />
    <glyph glyph-name="AE" unicode="&#xc6;" horiz-adv-x="1757" 
d="M1452 1251v-346q-15 28 -37 57q-22 28 -49 51q-28 23 -59 38q-32 14 -66 14q-60 0 -89 -31q-30 -32 -30 -86q0 -26 10 -49q9 -23 26 -40q16 -18 38 -28t47 -10q18 0 37 7t36 19q16 12 29 28t21 34v-291q-13 12 -26 23t-28 19q-15 7 -34 12q-19 4 -43 4q-46 0 -76 -27
q-31 -27 -31 -67q0 -28 12 -62q11 -35 35 -65q24 -31 62 -51q37 -21 88 -21q23 0 47 11t44 32q20 20 33 49q13 28 13 64q0 31 -8 62t-22 54q52 -9 102 -41q49 -33 88 -82q39 -50 63 -112q23 -62 23 -129q0 -60 -23 -113t-62 -92q-40 -40 -93 -63t-113 -23h-682q27 18 46 42
q19 23 32 50q12 27 18 56q5 28 5 57q0 28 -9 57q-9 28 -25 52q-17 23 -41 38t-54 15q-25 0 -46 -11q-22 -12 -38 -33t-25 -50q-10 -30 -10 -66q0 -35 1 -67q0 -32 1 -63l2 -64v-66q0 -49 -19 -93q-19 -43 -51 -76q-33 -33 -76 -52q-44 -19 -92 -19q-60 0 -126 20
q-66 21 -130 56q-65 35 -122 82t-99 100q47 -20 90 -30q44 -9 90 -9q74 0 132 46t103 124q44 78 76 180t55 214q22 112 36 227q13 114 21 217q7 102 10 185q2 83 2 132h960zM692 899q-9 0 -21 -14q-12 -15 -24 -38q-13 -23 -25 -51q-12 -29 -21 -57q-10 -29 -15 -54
q-6 -25 -6 -40q0 -41 14 -69t35 -46t45 -26t45 -8q45 0 73 32q27 32 27 78q0 19 -7 48q-8 29 -20 62q-12 32 -27 65t-29 59t-26 43z" />
    <glyph glyph-name="Ccedilla" unicode="&#xc7;" horiz-adv-x="1016" 
d="M1083 416q-49 -75 -68 -160q-20 -86 -26 -174q-5 -69 -33 -124t-73 -94q-46 -38 -105 -59q-60 -20 -127 -20q-107 0 -201 39t-170 104q-77 66 -134 153t-91 183q-28 78 -41 159q-14 81 -14 163q0 77 11 153t34 150q28 84 75 159q46 75 109 131t143 89q79 32 173 32
q84 0 162 -29t138 -81q60 -53 96 -126t36 -161q0 -38 -16 -69t-42 -53q-26 -23 -60 -35q-35 -13 -71 -13q-56 0 -106 22q-50 21 -88 58q-38 36 -60 86t-22 107q0 21 9 39t24 31q14 13 33 21q18 7 38 7q41 0 80 -11q38 -11 70 -36q-38 52 -92 87q-55 34 -121 34
q-77 0 -132 -36q-56 -36 -91 -92q-36 -57 -53 -125q-17 -69 -17 -134t14 -130q14 -66 41 -126q27 -61 67 -113q39 -53 90 -92q50 -39 111 -61q61 -23 132 -23q51 0 99 15q47 15 88 42q41 26 75 62t59 79zM563 -240q22 -2 48 -10q25 -9 47 -23q21 -14 36 -35q14 -21 14 -48
q0 -30 -17 -52q-17 -21 -42 -36q-26 -14 -55 -21q-29 -6 -54 -6q-55 0 -110 11q-56 12 -107 38v39q19 -12 41 -18q22 -5 45 -5q16 0 37 4q20 4 39 13q18 9 31 23q12 15 12 36q0 23 -16 38q-17 16 -37 26l75 104h68z" />
    <glyph glyph-name="Egrave" unicode="&#xc8;" horiz-adv-x="981" 
d="M702 655q61 -10 112 -46t88 -87q37 -52 58 -112q21 -61 21 -119q0 -60 -23 -113t-63 -92q-40 -40 -93 -63t-114 -23h-688q31 93 59 203t49 225q21 114 34 227q12 113 12 211q0 48 -4 101q-4 52 -16 103t-33 98q-22 47 -56 83h680v-346q-15 28 -37 57q-22 28 -49 51
q-28 23 -59 38q-32 14 -66 14q-56 0 -88 -30q-33 -30 -33 -87q0 -25 9 -48t25 -40q16 -18 39 -28q22 -11 48 -11q20 0 39 7t36 19q16 12 29 28t21 34v-291q-31 31 -60 45q-29 13 -73 13q-20 0 -39 -6q-19 -7 -33 -19q-15 -13 -24 -30q-9 -18 -9 -39q0 -41 16 -77t43 -63
t63 -43q35 -16 75 -16q30 0 55 14t43 37q17 22 27 50t10 55q0 29 -7 61zM114 1618h236l258 -332h-59z" />
    <glyph glyph-name="Eacute" unicode="&#xc9;" horiz-adv-x="981" 
d="M702 655q61 -10 112 -46t88 -87q37 -52 58 -112q21 -61 21 -119q0 -60 -23 -113t-63 -92q-40 -40 -93 -63t-114 -23h-688q31 93 59 203t49 225q21 114 34 227q12 113 12 211q0 48 -4 101q-4 52 -16 103t-33 98q-22 47 -56 83h680v-346q-15 28 -37 57q-22 28 -49 51
q-28 23 -59 38q-32 14 -66 14q-56 0 -88 -30q-33 -30 -33 -87q0 -25 9 -48t25 -40q16 -18 39 -28q22 -11 48 -11q20 0 39 7t36 19q16 12 29 28t21 34v-291q-31 31 -60 45q-29 13 -73 13q-20 0 -39 -6q-19 -7 -33 -19q-15 -13 -24 -30q-9 -18 -9 -39q0 -41 16 -77t43 -63
t63 -43q35 -16 75 -16q30 0 55 14t43 37q17 22 27 50t10 55q0 29 -7 61zM390 1303h-60l258 332h236z" />
    <glyph glyph-name="Ecircumflex" unicode="&#xca;" horiz-adv-x="981" 
d="M702 655q61 -10 112 -46t88 -87q37 -52 58 -112q21 -61 21 -119q0 -60 -23 -113t-63 -92q-40 -40 -93 -63t-114 -23h-688q31 93 59 203t49 225q21 114 34 227q12 113 12 211q0 48 -4 101q-4 52 -16 103t-33 98q-22 47 -56 83h680v-346q-15 28 -37 57q-22 28 -49 51
q-28 23 -59 38q-32 14 -66 14q-56 0 -88 -30q-33 -30 -33 -87q0 -25 9 -48t25 -40q16 -18 39 -28q22 -11 48 -11q20 0 39 7t36 19q16 12 29 28t21 34v-291q-31 31 -60 45q-29 13 -73 13q-20 0 -39 -6q-19 -7 -33 -19q-15 -13 -24 -30q-9 -18 -9 -39q0 -41 16 -77t43 -63
t63 -43q35 -16 75 -16q30 0 55 14t43 37q17 22 27 50t10 55q0 29 -7 61zM422 1567h74l213 -248h-47l-203 133l-205 -133h-47z" />
    <glyph glyph-name="Edieresis" unicode="&#xcb;" horiz-adv-x="981" 
d="M702 655q61 -10 112 -46t88 -87q37 -52 58 -112q21 -61 21 -119q0 -60 -23 -113t-63 -92q-40 -40 -93 -63t-114 -23h-688q31 93 59 203t49 225q21 114 34 227q12 113 12 211q0 48 -4 101q-4 52 -16 103t-33 98q-22 47 -56 83h680v-346q-15 28 -37 57q-22 28 -49 51
q-28 23 -59 38q-32 14 -66 14q-56 0 -88 -30q-33 -30 -33 -87q0 -25 9 -48t25 -40q16 -18 39 -28q22 -11 48 -11q20 0 39 7t36 19q16 12 29 28t21 34v-291q-31 31 -60 45q-29 13 -73 13q-20 0 -39 -6q-19 -7 -33 -19q-15 -13 -24 -30q-9 -18 -9 -39q0 -41 16 -77t43 -63
t63 -43q35 -16 75 -16q30 0 55 14t43 37q17 22 27 50t10 55q0 29 -7 61zM557 1491q18 0 34 -7q15 -7 27 -19q11 -12 18 -28t7 -34t-7 -33q-7 -16 -18 -27q-12 -12 -27 -19q-16 -7 -34 -7t-34 7t-28 19q-12 11 -19 27q-7 15 -7 33t7 34t19 28t28 19zM336 1491q18 0 34 -7
t28 -19t19 -28t7 -34t-7 -33q-7 -16 -19 -27q-12 -12 -28 -19t-34 -7t-33 7q-16 7 -27 19q-12 11 -19 27q-7 15 -7 33t7 34t19 28q11 12 27 19z" />
    <glyph glyph-name="Igrave" unicode="&#xcc;" horiz-adv-x="602" 
d="M518 1251q-45 -128 -64 -264q-20 -136 -20 -270q0 -87 9 -181q9 -95 29 -189t52 -183t78 -164h-602q46 75 78 164t52 183q19 94 28 189q8 94 8 181q0 134 -18 270q-19 136 -64 264h434zM55 1637h236l258 -332h-59z" />
    <glyph glyph-name="Iacute" unicode="&#xcd;" horiz-adv-x="602" 
d="M518 1251q-45 -128 -64 -264q-20 -136 -20 -270q0 -87 9 -181q9 -95 29 -189t52 -183t78 -164h-602q46 75 78 164t52 183q19 94 28 189q8 94 8 181q0 134 -18 270q-19 136 -64 264h434zM113 1309h-60l258 332h236z" />
    <glyph glyph-name="Icircumflex" unicode="&#xce;" horiz-adv-x="602" 
d="M518 1251q-45 -128 -64 -264q-20 -136 -20 -270q0 -87 9 -181q9 -95 29 -189t52 -183t78 -164h-602q46 75 78 164t52 183q19 94 28 189q8 94 8 181q0 134 -18 270q-19 136 -64 264h434zM264 1575h74l213 -248h-47l-203 133l-205 -133h-47z" />
    <glyph glyph-name="Idieresis" unicode="&#xcf;" horiz-adv-x="602" 
d="M518 1251q-45 -128 -64 -264q-20 -136 -20 -270q0 -87 9 -181q9 -95 29 -189t52 -183t78 -164h-602q46 75 78 164t52 183q19 94 28 189q8 94 8 181q0 134 -18 270q-19 136 -64 264h434zM411 1511q18 0 34 -7q15 -7 27 -19q11 -12 18 -28t7 -34t-7 -33q-7 -16 -18 -27
q-12 -12 -27 -19q-16 -7 -34 -7t-34 7t-28 19q-12 11 -19 27q-7 15 -7 33t7 34t19 28t28 19zM190 1511q18 0 34 -7t28 -19t19 -28t7 -34t-7 -33q-7 -16 -19 -27q-12 -12 -28 -19t-34 -7t-33 7q-16 7 -27 19q-12 11 -19 27q-7 15 -7 33t7 34t19 28q11 12 27 19z" />
    <glyph glyph-name="Eth" unicode="&#xd0;" horiz-adv-x="963" 
d="M508 1251q101 0 177 -49t127 -130q50 -81 76 -186q25 -105 25 -216q0 -82 -12 -163q-13 -82 -38 -156q-26 -75 -64 -139t-89 -111t-114 -74q-64 -27 -141 -27h-463q21 51 43 126q21 75 39 172q18 96 32 213q14 116 21 251h-111v82h113q2 37 2 75v78q0 48 -9 91
q-10 42 -26 76q-17 34 -40 57q-23 22 -50 30h502zM496 844v-82h-103q6 -63 15 -118t20 -96q11 -42 23 -65q11 -24 20 -24q7 0 23 15q15 15 34 41t40 61t38 76q17 40 28 83t11 86q0 58 -13 100t-33 70q-21 27 -46 40t-49 13q-38 0 -61 -17t-35 -45q-13 -29 -17 -65t-4 -73
h109z" />
    <glyph glyph-name="Ntilde" unicode="&#xd1;" horiz-adv-x="1028" 
d="M539 1251q-8 -45 -13 -91q-6 -47 -6 -93q0 -71 19 -141t45 -135q4 -12 19 -43t34 -64t39 -58q19 -26 33 -26q10 0 16 18q5 18 8 44t4 55v49q0 56 -4 119q-5 62 -14 126q-9 63 -24 125q-15 61 -36 115h570q-60 -31 -105 -85q-46 -54 -80 -122t-57 -145q-23 -78 -37 -155
q-14 -78 -20 -151q-6 -74 -6 -134q0 -56 4 -114q3 -59 12 -118q8 -59 21 -116q13 -58 32 -111h-329q5 25 8 50q2 24 2 50q0 72 -24 148q-24 75 -70 131q-3 3 -9 12q-7 8 -15 17q-9 8 -18 15t-16 7q-5 0 -6 -4q-2 -5 -2 -10q0 -7 4 -20q3 -14 8 -29q4 -15 9 -28q4 -14 6 -22
q18 -77 18 -155q0 -67 -17 -129q-18 -63 -53 -111q-36 -48 -90 -77q-55 -29 -129 -29q-45 0 -93 7q-49 7 -97 19t-94 29t-86 37q70 22 124 76t93 127q39 72 66 157q26 85 42 171t23 166q6 80 6 143q0 60 -4 125t-13 131q-10 65 -25 128t-36 119h363zM305 1309q0 42 12 77
q12 34 35 59t57 39q33 13 76 13q38 0 76 -13t75 -28t73 -28q35 -13 69 -13q18 0 34 7q15 6 28 17q12 11 20 26t10 32h31q0 -38 -14 -71t-38 -57q-24 -25 -57 -39q-33 -15 -71 -15q-39 0 -75 13t-72 28t-72 28t-74 13q-18 0 -34 -7t-29 -19t-21 -28q-9 -16 -10 -34h-29z" />
    <glyph glyph-name="Ograve" unicode="&#xd2;" horiz-adv-x="1153" 
d="M616 1352q93 0 169 -31q76 -32 136 -86q60 -55 104 -127q43 -72 72 -152q28 -81 42 -165q14 -85 14 -164q0 -87 -14 -173q-15 -86 -45 -164q-31 -79 -77 -146q-46 -68 -109 -117q-63 -50 -143 -79q-81 -28 -179 -28q-96 0 -177 27q-81 28 -146 77q-65 48 -114 114
q-50 66 -83 144q-33 77 -49 163q-17 85 -17 173q0 86 21 176q20 90 64 165t114 126q69 51 168 60q-7 22 -7 51q0 48 27 78q26 30 65 48q39 17 84 24zM682 1184q-51 0 -91 -26q-41 -26 -72 -65q-31 -40 -51 -87q-21 -48 -32 -91q-11 -42 -16 -84q-6 -42 -6 -86q0 -90 24 -180
q12 -41 33 -86t52 -82q30 -38 70 -63t89 -25q50 0 90 25t71 63q31 37 52 82t33 86q12 45 17 90t5 90q0 44 -4 86q-5 42 -16 84q-11 43 -32 91q-21 47 -51 87q-31 39 -72 65zM278 1725h236l258 -332h-59z" />
    <glyph glyph-name="Oacute" unicode="&#xd3;" horiz-adv-x="1153" 
d="M616 1352q93 0 169 -31q76 -32 136 -86q60 -55 104 -127q43 -72 72 -152q28 -81 42 -165q14 -85 14 -164q0 -87 -14 -173q-15 -86 -45 -164q-31 -79 -77 -146q-46 -68 -109 -117q-63 -50 -143 -79q-81 -28 -179 -28q-96 0 -177 27q-81 28 -146 77q-65 48 -114 114
q-50 66 -83 144q-33 77 -49 163q-17 85 -17 173q0 86 21 176q20 90 64 165t114 126q69 51 168 60q-7 22 -7 51q0 48 27 78q26 30 65 48q39 17 84 24zM682 1184q-51 0 -91 -26q-41 -26 -72 -65q-31 -40 -51 -87q-21 -48 -32 -91q-11 -42 -16 -84q-6 -42 -6 -86q0 -90 24 -180
q12 -41 33 -86t52 -82q30 -38 70 -63t89 -25q50 0 90 25t71 63q31 37 52 82t33 86q12 45 17 90t5 90q0 44 -4 86q-5 42 -16 84q-11 43 -32 91q-21 47 -51 87q-31 39 -72 65zM443 1409h-60l258 332h236z" />
    <glyph glyph-name="Ocircumflex" unicode="&#xd4;" horiz-adv-x="1153" 
d="M616 1352q93 0 169 -31q76 -32 136 -86q60 -55 104 -127q43 -72 72 -152q28 -81 42 -165q14 -85 14 -164q0 -87 -14 -173q-15 -86 -45 -164q-31 -79 -77 -146q-46 -68 -109 -117q-63 -50 -143 -79q-81 -28 -179 -28q-96 0 -177 27q-81 28 -146 77q-65 48 -114 114
q-50 66 -83 144q-33 77 -49 163q-17 85 -17 173q0 86 21 176q20 90 64 165t114 126q69 51 168 60q-7 22 -7 51q0 48 27 78q26 30 65 48q39 17 84 24zM682 1184q-51 0 -91 -26q-41 -26 -72 -65q-31 -40 -51 -87q-21 -48 -32 -91q-11 -42 -16 -84q-6 -42 -6 -86q0 -90 24 -180
q12 -41 33 -86t52 -82q30 -38 70 -63t89 -25q50 0 90 25t71 63q31 37 52 82t33 86q12 45 17 90t5 90q0 44 -4 86q-5 42 -16 84q-11 43 -32 91q-21 47 -51 87q-31 39 -72 65zM586 1637h74l213 -248h-47l-203 133l-205 -133h-47z" />
    <glyph glyph-name="Otilde" unicode="&#xd5;" horiz-adv-x="1153" 
d="M616 1352q93 0 169 -31q76 -32 136 -86q60 -55 104 -127q43 -72 72 -152q28 -81 42 -165q14 -85 14 -164q0 -87 -14 -173q-15 -86 -45 -164q-31 -79 -77 -146q-46 -68 -109 -117q-63 -50 -143 -79q-81 -28 -179 -28q-96 0 -177 27q-81 28 -146 77q-65 48 -114 114
q-50 66 -83 144q-33 77 -49 163q-17 85 -17 173q0 86 21 176q20 90 64 165t114 126q69 51 168 60q-7 22 -7 51q0 48 27 78q26 30 65 48q39 17 84 24zM682 1184q-51 0 -91 -26q-41 -26 -72 -65q-31 -40 -51 -87q-21 -48 -32 -91q-11 -42 -16 -84q-6 -42 -6 -86q0 -90 24 -180
q12 -41 33 -86t52 -82q30 -38 70 -63t89 -25q50 0 90 25t71 63q31 37 52 82t33 86q12 45 17 90t5 90q0 44 -4 86q-5 42 -16 84q-11 43 -32 91q-21 47 -51 87q-31 39 -72 65zM321 1387q0 42 12 77q12 34 35 59t57 39q33 13 76 13q38 0 76 -13t75 -28t73 -28q35 -13 69 -13
q18 0 34 7q15 6 28 17q12 11 20 26t10 32h31q0 -38 -14 -71t-38 -57q-24 -25 -57 -39q-33 -15 -71 -15q-39 0 -75 13t-72 28t-72 28t-74 13q-18 0 -34 -7t-29 -19t-21 -28q-9 -16 -10 -34h-29z" />
    <glyph glyph-name="Odieresis" unicode="&#xd6;" horiz-adv-x="1153" 
d="M616 1352q93 0 169 -31q76 -32 136 -86q60 -55 104 -127q43 -72 72 -152q28 -81 42 -165q14 -85 14 -164q0 -87 -14 -173q-15 -86 -45 -164q-31 -79 -77 -146q-46 -68 -109 -117q-63 -50 -143 -79q-81 -28 -179 -28q-96 0 -177 27q-81 28 -146 77q-65 48 -114 114
q-50 66 -83 144q-33 77 -49 163q-17 85 -17 173q0 86 21 176q20 90 64 165t114 126q69 51 168 60q-7 22 -7 51q0 48 27 78q26 30 65 48q39 17 84 24zM682 1184q-51 0 -91 -26q-41 -26 -72 -65q-31 -40 -51 -87q-21 -48 -32 -91q-11 -42 -16 -84q-6 -42 -6 -86q0 -90 24 -180
q12 -41 33 -86t52 -82q30 -38 70 -63t89 -25q50 0 90 25t71 63q31 37 52 82t33 86q12 45 17 90t5 90q0 44 -4 86q-5 42 -16 84q-11 43 -32 91q-21 47 -51 87q-31 39 -72 65zM694 1567q18 0 34 -7q15 -7 27 -19q11 -12 18 -28t7 -34t-7 -33q-7 -16 -18 -27q-12 -12 -27 -19
q-16 -7 -34 -7t-34 7t-28 19q-12 11 -19 27q-7 15 -7 33t7 34t19 28t28 19zM473 1567q18 0 34 -7t28 -19t19 -28t7 -34t-7 -33q-7 -16 -19 -27q-12 -12 -28 -19t-34 -7t-33 7q-16 7 -27 19q-12 11 -19 27q-7 15 -7 33t7 34t19 28q11 12 27 19z" />
    <glyph glyph-name="multiply" unicode="&#xd7;" horiz-adv-x="838" 
d="M561 639l227 -227l-141 -144l-227 230l-230 -230l-141 144l227 227l-227 227l141 144l230 -230l227 230l141 -144z" />
    <glyph glyph-name="Oslash" unicode="&#xd8;" horiz-adv-x="1251" 
d="M666 1352q111 0 200 -45q88 -46 154 -123l61 84l43 -33l-71 -96q74 -104 112 -237q37 -133 37 -275q0 -89 -15 -176t-45 -165q-31 -79 -77 -146q-47 -67 -110 -116t-143 -77q-80 -27 -177 -27q-116 0 -208 38q-92 39 -163 105l-57 -79l-43 30l63 88q-45 52 -78 113
q-34 61 -56 128q-22 66 -33 136t-11 139q0 99 24 191q23 92 70 164q46 72 115 118q68 46 158 54q-3 12 -4 26q-2 13 -2 25q0 32 16 61q15 28 47 49q31 21 80 34zM924 1053q-38 60 -87 96q-49 35 -106 35q-55 0 -104 -34q-49 -35 -85 -94q-37 -60 -58 -140t-21 -171
q0 -71 14 -134t37 -117zM541 440q37 -60 86 -95q48 -36 104 -36t105 35q49 34 85 94q36 59 57 138t21 169q0 72 -13 136t-36 118z" />
    <glyph glyph-name="Ugrave" unicode="&#xd9;" horiz-adv-x="987" 
d="M72 1507q82 0 149 -17q66 -17 113 -54q46 -38 71 -98t25 -146q0 -71 -13 -140q-13 -70 -28 -138q-15 -69 -28 -136q-13 -68 -13 -135q0 -37 12 -72q11 -35 33 -62q21 -27 52 -43q31 -17 71 -17t71 16q30 16 52 43q21 27 35 62q14 34 23 71q8 36 11 73q3 36 3 66
q0 48 -11 113t-30 132q-20 66 -46 127q-26 60 -55 99h424q-27 -16 -47 -46q-20 -31 -34 -69q-15 -38 -25 -81q-10 -44 -16 -86t-8 -80q-3 -38 -3 -66q0 -127 5 -251t5 -250q0 -183 -87 -272q-88 -89 -269 -89q-109 0 -197 40q-88 39 -149 105q-62 66 -95 153q-34 86 -34 181
q0 75 10 150q9 75 21 150q11 75 21 150q9 75 9 150l2 15q0 54 -13 115q-14 61 -42 115q-29 54 -73 95q-43 40 -103 52q43 35 93 55zM174 1690h236l258 -332h-59z" />
    <glyph glyph-name="Uacute" unicode="&#xda;" horiz-adv-x="987" 
d="M72 1507q82 0 149 -17q66 -17 113 -54q46 -38 71 -98t25 -146q0 -71 -13 -140q-13 -70 -28 -138q-15 -69 -28 -136q-13 -68 -13 -135q0 -37 12 -72q11 -35 33 -62q21 -27 52 -43q31 -17 71 -17t71 16q30 16 52 43q21 27 35 62q14 34 23 71q8 36 11 73q3 36 3 66
q0 48 -11 113t-30 132q-20 66 -46 127q-26 60 -55 99h424q-27 -16 -47 -46q-20 -31 -34 -69q-15 -38 -25 -81q-10 -44 -16 -86t-8 -80q-3 -38 -3 -66q0 -127 5 -251t5 -250q0 -183 -87 -272q-88 -89 -269 -89q-109 0 -197 40q-88 39 -149 105q-62 66 -95 153q-34 86 -34 181
q0 75 10 150q9 75 21 150q11 75 21 150q9 75 9 150l2 15q0 54 -13 115q-14 61 -42 115q-29 54 -73 95q-43 40 -103 52q43 35 93 55zM525 1368h-60l258 332h236z" />
    <glyph glyph-name="Ucircumflex" unicode="&#xdb;" horiz-adv-x="987" 
d="M72 1507q82 0 149 -17q66 -17 113 -54q46 -38 71 -98t25 -146q0 -71 -13 -140q-13 -70 -28 -138q-15 -69 -28 -136q-13 -68 -13 -135q0 -37 12 -72q11 -35 33 -62q21 -27 52 -43q31 -17 71 -17t71 16q30 16 52 43q21 27 35 62q14 34 23 71q8 36 11 73q3 36 3 66
q0 48 -11 113t-30 132q-20 66 -46 127q-26 60 -55 99h424q-27 -16 -47 -46q-20 -31 -34 -69q-15 -38 -25 -81q-10 -44 -16 -86t-8 -80q-3 -38 -3 -66q0 -127 5 -251t5 -250q0 -183 -87 -272q-88 -89 -269 -89q-109 0 -197 40q-88 39 -149 105q-62 66 -95 153q-34 86 -34 181
q0 75 10 150q9 75 21 150q11 75 21 150q9 75 9 150l2 15q0 54 -13 115q-14 61 -42 115q-29 54 -73 95q-43 40 -103 52q43 35 93 55zM567 1622h74l213 -248h-47l-203 133l-205 -133h-47z" />
    <glyph glyph-name="Udieresis" unicode="&#xdc;" horiz-adv-x="987" 
d="M72 1507q82 0 149 -17q66 -17 113 -54q46 -38 71 -98t25 -146q0 -71 -13 -140q-13 -70 -28 -138q-15 -69 -28 -136q-13 -68 -13 -135q0 -37 12 -72q11 -35 33 -62q21 -27 52 -43q31 -17 71 -17t71 16q30 16 52 43q21 27 35 62q14 34 23 71q8 36 11 73q3 36 3 66
q0 48 -11 113t-30 132q-20 66 -46 127q-26 60 -55 99h424q-27 -16 -47 -46q-20 -31 -34 -69q-15 -38 -25 -81q-10 -44 -16 -86t-8 -80q-3 -38 -3 -66q0 -127 5 -251t5 -250q0 -183 -87 -272q-88 -89 -269 -89q-109 0 -197 40q-88 39 -149 105q-62 66 -95 153q-34 86 -34 181
q0 75 10 150q9 75 21 150q11 75 21 150q9 75 9 150l2 15q0 54 -13 115q-14 61 -42 115q-29 54 -73 95q-43 40 -103 52q43 35 93 55zM686 1563q18 0 34 -7q15 -7 27 -19q11 -12 18 -28t7 -34t-7 -33q-7 -16 -18 -27q-12 -12 -27 -19q-16 -7 -34 -7t-34 7t-28 19
q-12 11 -19 27q-7 15 -7 33t7 34t19 28t28 19zM465 1563q18 0 34 -7t28 -19t19 -28t7 -34t-7 -33q-7 -16 -19 -27q-12 -12 -28 -19t-34 -7t-33 7q-16 7 -27 19q-12 11 -19 27q-7 15 -7 33t7 34t19 28q11 12 27 19z" />
    <glyph glyph-name="Yacute" unicode="&#xdd;" horiz-adv-x="1376" 
d="M453 1251q-15 -18 -27 -41t-20 -48q-9 -26 -14 -51q-5 -26 -5 -48q0 -72 31 -140q30 -68 78 -120q11 -14 28 -29q16 -16 33 -24q17 17 30 43q12 26 21 56q8 29 13 58q4 28 4 49q0 31 -7 72q-7 40 -19 81t-28 79t-34 63h839q-73 -37 -150 -89q-78 -53 -151 -117
q-74 -65 -139 -139q-66 -75 -115 -156q-50 -82 -79 -169t-29 -175q0 -112 36 -214t101 -192h-850q34 25 74 59t80 75q40 40 78 85q37 45 66 93q29 47 47 96q17 48 17 94q0 60 -25 121q-26 61 -65 123q-39 61 -84 124q-46 63 -86 126t-68 127q-29 64 -32 128h451zM543 1331
h-60l258 332h236z" />
    <glyph glyph-name="Thorn" unicode="&#xde;" horiz-adv-x="1055" 
d="M485 242q0 -22 4 -42q3 -20 3 -38q0 -174 -88 -254q-89 -80 -273 -80q-99 0 -184 34q-85 35 -148 95q59 45 116 127t102 191q45 108 73 238q27 130 27 273q0 146 -23 262q-23 115 -63 203q195 0 292 -45q96 -45 101 -147h233q77 0 141 -32q64 -33 111 -88q46 -55 72 -126
q25 -71 25 -147q0 -84 -26 -150q-26 -67 -75 -112q-49 -46 -118 -70q-69 -25 -156 -25h-74q-9 0 -21 -1q-13 -1 -24 -7q-12 -7 -19 -20zM530 887q-23 0 -45 -9q-22 -10 -39 -30q-17 -21 -27 -53q-11 -33 -11 -78q0 -18 2 -47q1 -29 4 -62q2 -34 7 -68q4 -35 10 -63
q5 -28 12 -45q7 -18 16 -18q14 0 44 33q30 32 61 83q31 50 54 111t23 119q0 26 -9 49t-24 41q-15 17 -35 27z" />
    <glyph glyph-name="germandbls" unicode="&#xdf;" horiz-adv-x="1280" 
d="M606 219q-45 -49 -107 -69q-63 -21 -128 -21q-79 0 -155 24t-142 62l-25 412q21 -29 52 -63q31 -35 68 -66t78 -51q40 -21 79 -21q18 0 35 7q17 6 30 17q12 11 20 27q7 16 7 35q0 26 -12 49q-13 22 -33 39l-127 115q-29 26 -53 53q-25 26 -42 56q-17 29 -26 63
q-10 34 -10 74q0 53 22 91q21 38 56 63t80 37q45 11 92 11q46 0 95 -14q49 -15 90 -42q40 -28 67 -68q26 -41 26 -93q0 -45 -25 -74q-25 -30 -71 -30q-26 0 -51 10q-26 10 -46 28q-20 17 -32 41q-12 23 -12 50q0 17 7 31q6 14 18 25q11 10 26 16q14 6 30 6q23 0 43 -13
q-14 29 -45 46q-32 16 -63 16q-45 0 -77 -28t-32 -75q0 -44 20 -79t50 -64t65 -54t66 -48q31 -25 58 -55q26 -30 46 -64q8 -14 15 -29q6 -16 14 -29q6 -11 17 -20q11 -10 20 -18q18 -18 41 -37q23 -20 49 -35q26 -16 54 -26q27 -11 53 -11q18 0 35 7q17 6 30 17q12 11 20 27
q7 16 7 35q0 26 -12 49q-13 22 -31 39l-129 115q-29 26 -53 53q-24 26 -41 56q-17 29 -27 63t-10 74q0 53 22 91q21 38 56 63t80 37q45 11 92 11q46 0 95 -14q49 -15 90 -42q40 -28 67 -68q26 -41 26 -93q0 -45 -25 -74q-25 -30 -71 -30q-26 0 -51 10t-44 28q-20 17 -32 41
q-12 23 -12 50q0 34 24 56q23 22 55 22q23 0 43 -13q-14 29 -45 46q-31 16 -63 16q-22 0 -42 -7q-20 -8 -35 -21q-15 -14 -23 -33q-9 -19 -9 -42q0 -53 27 -91q27 -39 67 -73t88 -69q47 -35 87 -81t67 -108q27 -63 27 -151q0 -71 -22 -125q-22 -55 -62 -92q-40 -38 -96 -57
q-57 -19 -125 -19q-85 0 -165 26z" />
    <glyph glyph-name="agrave" unicode="&#xe0;" 
d="M698 1108q-29 -72 -41 -150t-12 -155q0 -68 9 -156q8 -88 28 -177q19 -89 51 -169t80 -133h-407q38 26 57 68q18 41 18 86q0 21 -6 43q-7 21 -19 39q-12 17 -30 29q-18 11 -41 11q-24 0 -41 -11t-28 -28q-11 -18 -16 -39t-5 -42q0 -41 1 -80q1 -40 1 -80h-297
q45 38 80 100q34 61 59 137q24 76 40 161t26 171q9 85 13 166q3 81 3 148v61h477zM375 842q-9 0 -18 -12q-10 -12 -19 -30q-10 -19 -19 -41q-9 -23 -15 -44q-7 -21 -11 -38q-4 -18 -4 -26q0 -22 8 -42q7 -20 21 -35t33 -24t42 -9q35 0 56 25q20 25 20 59q0 7 -5 26t-13 44
q-9 24 -19 50q-11 26 -21 48q-11 21 -20 35zM112 1491h236l258 -332h-59z" />
    <glyph glyph-name="aacute" unicode="&#xe1;" 
d="M698 1108q-29 -72 -41 -150t-12 -155q0 -68 9 -156q8 -88 28 -177q19 -89 51 -169t80 -133h-407q38 26 57 68q18 41 18 86q0 21 -6 43q-7 21 -19 39q-12 17 -30 29q-18 11 -41 11q-24 0 -41 -11t-28 -28q-11 -18 -16 -39t-5 -42q0 -41 1 -80q1 -40 1 -80h-297
q45 38 80 100q34 61 59 137q24 76 40 161t26 171q9 85 13 166q3 81 3 148v61h477zM375 842q-9 0 -18 -12q-10 -12 -19 -30q-10 -19 -19 -41q-9 -23 -15 -44q-7 -21 -11 -38q-4 -18 -4 -26q0 -22 8 -42q7 -20 21 -35t33 -24t42 -9q35 0 56 25q20 25 20 59q0 7 -5 26t-13 44
q-9 24 -19 50q-11 26 -21 48q-11 21 -20 35zM269 1174h-60l258 332h236z" />
    <glyph glyph-name="acircumflex" unicode="&#xe2;" 
d="M698 1108q-29 -72 -41 -150t-12 -155q0 -68 9 -156q8 -88 28 -177q19 -89 51 -169t80 -133h-407q38 26 57 68q18 41 18 86q0 21 -6 43q-7 21 -19 39q-12 17 -30 29q-18 11 -41 11q-24 0 -41 -11t-28 -28q-11 -18 -16 -39t-5 -42q0 -41 1 -80q1 -40 1 -80h-297
q45 38 80 100q34 61 59 137q24 76 40 161t26 171q9 85 13 166q3 81 3 148v61h477zM375 842q-9 0 -18 -12q-10 -12 -19 -30q-10 -19 -19 -41q-9 -23 -15 -44q-7 -21 -11 -38q-4 -18 -4 -26q0 -22 8 -42q7 -20 21 -35t33 -24t42 -9q35 0 56 25q20 25 20 59q0 7 -5 26t-13 44
q-9 24 -19 50q-11 26 -21 48q-11 21 -20 35zM389 1428h74l213 -248h-47l-203 133l-205 -133h-47z" />
    <glyph glyph-name="atilde" unicode="&#xe3;" 
d="M698 1108q-29 -72 -41 -150t-12 -155q0 -68 9 -156q8 -88 28 -177q19 -89 51 -169t80 -133h-407q38 26 57 68q18 41 18 86q0 21 -6 43q-7 21 -19 39q-12 17 -30 29q-18 11 -41 11q-24 0 -41 -11t-28 -28q-11 -18 -16 -39t-5 -42q0 -41 1 -80q1 -40 1 -80h-297
q45 38 80 100q34 61 59 137q24 76 40 161t26 171q9 85 13 166q3 81 3 148v61h477zM375 842q-9 0 -18 -12q-10 -12 -19 -30q-10 -19 -19 -41q-9 -23 -15 -44q-7 -21 -11 -38q-4 -18 -4 -26q0 -22 8 -42q7 -20 21 -35t33 -24t42 -9q35 0 56 25q20 25 20 59q0 7 -5 26t-13 44
q-9 24 -19 50q-11 26 -21 48q-11 21 -20 35zM127 1176q0 42 12 77q12 34 35 59t57 39q33 13 76 13q38 0 76 -13t75 -28t73 -28q35 -13 69 -13q18 0 34 7q15 6 28 17q12 11 20 26t10 32h31q0 -38 -14 -71t-38 -57q-24 -25 -57 -39q-33 -15 -71 -15q-39 0 -75 13t-72 28
t-72 28t-74 13q-18 0 -34 -7t-29 -19t-21 -28q-9 -16 -10 -34h-29z" />
    <glyph glyph-name="adieresis" unicode="&#xe4;" 
d="M698 1108q-29 -72 -41 -150t-12 -155q0 -68 9 -156q8 -88 28 -177q19 -89 51 -169t80 -133h-407q38 26 57 68q18 41 18 86q0 21 -6 43q-7 21 -19 39q-12 17 -30 29q-18 11 -41 11q-24 0 -41 -11t-28 -28q-11 -18 -16 -39t-5 -42q0 -41 1 -80q1 -40 1 -80h-297
q45 38 80 100q34 61 59 137q24 76 40 161t26 171q9 85 13 166q3 81 3 148v61h477zM375 842q-9 0 -18 -12q-10 -12 -19 -30q-10 -19 -19 -41q-9 -23 -15 -44q-7 -21 -11 -38q-4 -18 -4 -26q0 -22 8 -42q7 -20 21 -35t33 -24t42 -9q35 0 56 25q20 25 20 59q0 7 -5 26t-13 44
q-9 24 -19 50q-11 26 -21 48q-11 21 -20 35zM549 1350q18 0 34 -7q15 -7 27 -19q11 -12 18 -28t7 -34t-7 -33q-7 -16 -18 -27q-12 -12 -27 -19q-16 -7 -34 -7t-34 7t-28 19q-12 11 -19 27q-7 15 -7 33t7 34t19 28t28 19zM328 1350q18 0 34 -7t28 -19t19 -28t7 -34t-7 -33
q-7 -16 -19 -27q-12 -12 -28 -19t-34 -7t-33 7q-16 7 -27 19q-12 11 -19 27q-7 15 -7 33t7 34t19 28q11 12 27 19z" />
    <glyph glyph-name="aring" unicode="&#xe5;" 
d="M698 1108q-29 -72 -41 -150t-12 -155q0 -68 9 -156q8 -88 28 -177q19 -89 51 -169t80 -133h-407q38 26 57 68q18 41 18 86q0 21 -6 43q-7 21 -19 39q-12 17 -30 29q-18 11 -41 11q-24 0 -41 -11t-28 -28q-11 -18 -16 -39t-5 -42q0 -41 1 -80q1 -40 1 -80h-297
q45 38 80 100q34 61 59 137q24 76 40 161t26 171q9 85 13 166q3 81 3 148v61h477zM375 842q-9 0 -18 -12q-10 -12 -19 -30q-10 -19 -19 -41q-9 -23 -15 -44q-7 -21 -11 -38q-4 -18 -4 -26q0 -22 8 -42q7 -20 21 -35t33 -24t42 -9q35 0 56 25q20 25 20 59q0 7 -5 26t-13 44
q-9 24 -19 50q-11 26 -21 48q-11 21 -20 35zM428 1442q35 0 67 -13q31 -14 55 -37q23 -24 37 -55q13 -32 13 -67q0 -36 -13 -67q-14 -32 -37 -56q-24 -24 -55 -37q-32 -14 -67 -14q-36 0 -67 14q-32 13 -56 37t-37 56q-14 31 -14 67q0 35 14 67q13 31 37 55q24 23 56 37z
M428 1379q-23 0 -43 -8q-20 -9 -35 -24t-23 -35q-9 -20 -9 -42q0 -23 9 -43q8 -20 23 -35t35 -24t43 -9q22 0 42 9t35 24t24 35q8 20 8 43q0 22 -8 42q-9 20 -24 35t-35 24z" />
    <glyph glyph-name="ae" unicode="&#xe6;" horiz-adv-x="1143" 
d="M901 1163v-260q-12 21 -28 42q-17 21 -37 38t-44 28t-49 11q-43 0 -66 -21q-24 -22 -24 -65q0 -18 7 -35q7 -18 19 -31q12 -14 29 -22q16 -8 35 -8q29 0 56 20q26 19 37 47v-219q-23 23 -45 34t-54 11q-31 0 -55 -19q-25 -20 -25 -52q0 -31 12 -58t33 -47q20 -21 47 -33
t58 -12q22 0 41 11q18 10 31 27q13 16 21 37q7 21 7 42q0 23 -5 46q-5 22 -17 42q45 -8 84 -35q38 -28 66 -66q28 -39 44 -84q15 -46 15 -90t-17 -84q-18 -40 -48 -70t-70 -47q-40 -18 -85 -18h-509q37 26 55 68q18 41 18 86q0 21 -6 43q-7 21 -19 39t-30 30q-18 11 -41 11
q-24 0 -41 -11t-28 -28q-11 -18 -16 -39t-5 -41q0 -50 1 -98q1 -49 1 -99q0 -37 -14 -69q-14 -33 -38 -57t-56 -38q-33 -14 -70 -14q-48 0 -99 16t-99 43t-90 62q-41 35 -69 72q32 -14 66 -22q34 -9 70 -9q52 0 93 32q42 31 75 85q33 53 57 124t42 150q17 79 29 162
q11 82 18 159q6 76 9 142q2 65 2 111v30h721zM332 899q-9 0 -18 -12q-10 -12 -19 -30q-10 -19 -19 -41q-9 -23 -15 -44q-7 -22 -11 -39t-4 -24q0 -23 8 -43q7 -21 21 -36q14 -16 33 -25t42 -9q18 0 32 7t24 19q9 12 15 27q5 15 5 31q0 8 -5 28q-5 19 -13 44q-9 24 -19 50
q-11 26 -21 48q-11 21 -20 35z" />
    <glyph glyph-name="ccedilla" unicode="&#xe7;" horiz-adv-x="777" 
d="M805 553q-40 -51 -60 -111q-21 -61 -30 -123q-8 -49 -34 -87t-63 -64q-38 -26 -83 -39q-46 -14 -93 -14q-103 0 -185 42t-139 112q-57 69 -87 159q-31 89 -31 184q0 65 14 132q13 66 40 128q26 61 65 115q39 53 90 93q51 39 113 62t135 23q54 0 108 -17q53 -17 96 -50
q42 -33 69 -80q26 -47 26 -107q0 -32 -12 -58t-33 -44t-48 -27q-28 -10 -59 -10q-38 0 -72 13q-35 12 -61 35q-27 22 -43 54t-16 72q0 37 25 60q24 22 61 22q59 0 108 -31q-28 38 -66 60q-39 22 -85 22q-61 0 -107 -27q-46 -28 -77 -71q-31 -44 -46 -98q-16 -55 -16 -109
q0 -67 22 -128q22 -62 62 -109t97 -75t128 -28q78 0 144 39q65 38 110 98zM391 73q22 -2 48 -10q25 -9 47 -23q21 -14 36 -35q14 -21 14 -48q0 -30 -17 -52q-17 -21 -42 -36q-26 -14 -55 -21q-29 -6 -54 -6q-55 0 -110 11q-56 12 -107 38v39q19 -12 41 -18q22 -5 45 -5
q16 0 37 4q20 4 39 13q18 9 31 23q12 15 12 36q0 23 -16 38q-17 16 -37 26l75 104h68z" />
    <glyph glyph-name="egrave" unicode="&#xe8;" horiz-adv-x="760" 
d="M528 694q45 -8 83 -34q38 -27 66 -65q27 -39 43 -84q15 -45 15 -89q0 -45 -17 -85t-47 -70t-70 -47t-85 -17h-516q25 64 46 138q20 73 34 149t22 152q7 75 7 144q0 45 -3 91q-4 46 -12 92q-8 45 -22 89q-15 44 -37 83h510v-260q-12 21 -28 42q-17 21 -38 39
q-21 17 -45 28t-49 11q-42 0 -66 -22t-24 -66q0 -18 7 -35q7 -18 19 -31q12 -14 29 -22t37 -8q29 0 55 21q25 21 37 47v-217q-23 21 -44 32q-22 11 -56 11q-31 0 -54 -20q-24 -20 -24 -52q0 -31 12 -58t32 -47q20 -21 47 -33t57 -12q22 0 41 11t33 28q13 17 21 38q7 20 7 40
q0 23 -6 47zM34 1516h236l258 -332h-59z" />
    <glyph glyph-name="eacute" unicode="&#xe9;" horiz-adv-x="760" 
d="M528 694q45 -8 83 -34q38 -27 66 -65q27 -39 43 -84q15 -45 15 -89q0 -45 -17 -85t-47 -70t-70 -47t-85 -17h-516q25 64 46 138q20 73 34 149t22 152q7 75 7 144q0 45 -3 91q-4 46 -12 92q-8 45 -22 89q-15 44 -37 83h510v-260q-12 21 -28 42q-17 21 -38 39
q-21 17 -45 28t-49 11q-42 0 -66 -22t-24 -66q0 -18 7 -35q7 -18 19 -31q12 -14 29 -22t37 -8q29 0 55 21q25 21 37 47v-217q-23 21 -44 32q-22 11 -56 11q-31 0 -54 -20q-24 -20 -24 -52q0 -31 12 -58t32 -47q20 -21 47 -33t57 -12q22 0 41 11t33 28q13 17 21 38q7 20 7 40
q0 23 -6 47zM209 1178h-60l258 332h236z" />
    <glyph glyph-name="ecircumflex" unicode="&#xea;" horiz-adv-x="760" 
d="M528 694q45 -8 83 -34q38 -27 66 -65q27 -39 43 -84q15 -45 15 -89q0 -45 -17 -85t-47 -70t-70 -47t-85 -17h-516q25 64 46 138q20 73 34 149t22 152q7 75 7 144q0 45 -3 91q-4 46 -12 92q-8 45 -22 89q-15 44 -37 83h510v-260q-12 21 -28 42q-17 21 -38 39
q-21 17 -45 28t-49 11q-42 0 -66 -22t-24 -66q0 -18 7 -35q7 -18 19 -31q12 -14 29 -22t37 -8q29 0 55 21q25 21 37 47v-217q-23 21 -44 32q-22 11 -56 11q-31 0 -54 -20q-24 -20 -24 -52q0 -31 12 -58t32 -47q20 -21 47 -33t57 -12q22 0 41 11t33 28q13 17 21 38q7 20 7 40
q0 23 -6 47zM291 1434h74l213 -248h-47l-203 133l-205 -133h-47z" />
    <glyph glyph-name="edieresis" unicode="&#xeb;" horiz-adv-x="760" 
d="M528 694q45 -8 83 -34q38 -27 66 -65q27 -39 43 -84q15 -45 15 -89q0 -45 -17 -85t-47 -70t-70 -47t-85 -17h-516q25 64 46 138q20 73 34 149t22 152q7 75 7 144q0 45 -3 91q-4 46 -12 92q-8 45 -22 89q-15 44 -37 83h510v-260q-12 21 -28 42q-17 21 -38 39
q-21 17 -45 28t-49 11q-42 0 -66 -22t-24 -66q0 -18 7 -35q7 -18 19 -31q12 -14 29 -22t37 -8q29 0 55 21q25 21 37 47v-217q-23 21 -44 32q-22 11 -56 11q-31 0 -54 -20q-24 -20 -24 -52q0 -31 12 -58t32 -47q20 -21 47 -33t57 -12q22 0 41 11t33 28q13 17 21 38q7 20 7 40
q0 23 -6 47zM426 1362q18 0 34 -7q15 -7 27 -19q11 -12 18 -28t7 -34t-7 -33q-7 -16 -18 -27q-12 -12 -27 -19q-16 -7 -34 -7t-34 7t-28 19q-12 11 -19 27q-7 15 -7 33t7 34t19 28t28 19zM205 1362q18 0 34 -7t28 -19t19 -28t7 -34t-7 -33q-7 -16 -19 -27q-12 -12 -28 -19
t-34 -7t-33 7q-16 7 -27 19q-12 11 -19 27q-7 15 -7 33t7 34t19 28q11 12 27 19z" />
    <glyph glyph-name="igrave" unicode="&#xec;" horiz-adv-x="451" 
d="M387 1180q-32 -96 -46 -198q-15 -102 -15 -204q0 -65 7 -136q6 -71 21 -141q14 -71 38 -137q24 -67 59 -124h-451q34 57 58 124q24 66 39 137q15 70 22 141q6 71 6 136q0 102 -15 204t-47 198h324zM-21 1567h236l258 -332h-59z" />
    <glyph glyph-name="iacute" unicode="&#xed;" horiz-adv-x="451" 
d="M387 1180q-32 -96 -46 -198q-15 -102 -15 -204q0 -65 7 -136q6 -71 21 -141q14 -71 38 -137q24 -67 59 -124h-451q34 57 58 124q24 66 39 137q15 70 22 141q6 71 6 136q0 102 -15 204t-47 198h324zM39 1235h-60l258 332h236z" />
    <glyph glyph-name="icircumflex" unicode="&#xee;" horiz-adv-x="451" 
d="M387 1180q-32 -96 -46 -198q-15 -102 -15 -204q0 -65 7 -136q6 -71 21 -141q14 -71 38 -137q24 -67 59 -124h-451q34 57 58 124q24 66 39 137q15 70 22 141q6 71 6 136q0 102 -15 204t-47 198h324zM190 1485h74l213 -248h-47l-203 133l-205 -133h-47z" />
    <glyph glyph-name="idieresis" unicode="&#xef;" horiz-adv-x="451" 
d="M387 1180q-32 -96 -46 -198q-15 -102 -15 -204q0 -65 7 -136q6 -71 21 -141q14 -71 38 -137q24 -67 59 -124h-451q34 57 58 124q24 66 39 137q15 70 22 141q6 71 6 136q0 102 -15 204t-47 198h324zM336 1409q18 0 34 -7q15 -7 27 -19q11 -12 18 -28t7 -34t-7 -33
q-7 -16 -18 -27q-12 -12 -27 -19q-16 -7 -34 -7t-34 7t-28 19q-12 11 -19 27q-7 15 -7 33t7 34t19 28t28 19zM115 1409q18 0 34 -7t28 -19t19 -28t7 -34t-7 -33q-7 -16 -19 -27q-12 -12 -28 -19t-34 -7t-33 7q-16 7 -27 19q-12 11 -19 27q-7 15 -7 33t7 34t19 28
q11 12 27 19z" />
    <glyph glyph-name="eth" unicode="&#xf0;" horiz-adv-x="754" 
d="M401 1163q56 0 101 -19q44 -20 78 -53t58 -77q23 -44 38 -92q15 -49 22 -99t7 -96q0 -52 -8 -109q-8 -58 -25 -114t-44 -107t-65 -89q-38 -39 -88 -62t-113 -23h-348q25 59 43 133q17 73 29 150t19 153q7 75 10 138h-82v61h84q2 28 2 57v58q0 23 -4 53q-5 29 -16 57
t-29 50t-45 30h376zM391 858v-61h-76q0 -6 3 -25q2 -20 6 -45q4 -26 10 -54q5 -28 12 -51q6 -24 14 -39q7 -16 15 -16t19 12t23 30t24 40q11 22 21 43q9 21 16 37t9 23q17 43 17 90q0 23 -5 52q-6 28 -18 54q-13 25 -33 43q-21 17 -51 17q-31 0 -48 -15q-17 -16 -25 -38
q-9 -23 -11 -49q-2 -27 -2 -48h80z" />
    <glyph glyph-name="ntilde" unicode="&#xf1;" horiz-adv-x="748" 
d="M475 287q5 34 9 69q3 34 3 68q0 64 -18 129q-3 8 -10 28q-7 19 -17 44q-10 24 -22 51q-13 26 -26 48t-25 36q-13 14 -23 14q-7 0 -11 -12t-6 -30t-2 -38q-1 -21 -1 -37q0 -43 3 -90q3 -48 10 -96q7 -49 18 -96t26 -88h-383q36 54 60 120t39 137q14 70 20 141t6 134
q0 48 -3 101q-3 52 -9 105q-6 52 -16 103t-25 97h309q-5 -19 -6 -38q-2 -19 -2 -38q0 -32 10 -74q10 -43 26 -81q16 -39 36 -66t40 -27q5 0 7 4q2 3 2 6q0 6 -2 16q-3 10 -7 22q-4 11 -7 22q-4 10 -5 16q-8 28 -11 57t-3 58q0 50 13 97t40 83t68 58q40 22 96 22
q68 0 141 -19q73 -20 135 -51q-53 -17 -93 -57t-69 -94q-30 -55 -50 -118q-20 -64 -32 -128q-12 -65 -17 -125t-5 -106q0 -45 3 -94t10 -98t19 -96q11 -47 27 -89h-270zM69 1340q0 42 12 77q12 34 35 59t57 39q33 13 76 13q38 0 76 -13t75 -28t73 -28q35 -13 69 -13
q18 0 34 7q15 6 28 17q12 11 20 26t10 32h31q0 -38 -14 -71t-38 -57q-24 -25 -57 -39q-33 -15 -71 -15q-39 0 -75 13t-72 28t-72 28t-74 13q-18 0 -34 -7t-29 -19t-21 -28q-9 -16 -10 -34h-29z" />
    <glyph glyph-name="ograve" unicode="&#xf2;" horiz-adv-x="860" 
d="M463 1241q77 0 137 -26q59 -27 103 -71q44 -45 74 -104t49 -124q18 -66 26 -134q8 -69 8 -131q0 -95 -27 -183t-80 -155q-54 -67 -132 -107q-79 -40 -181 -40q-109 0 -191 45t-137 119q-56 73 -84 168q-28 94 -28 192q0 43 7 88q6 45 21 88q14 42 36 80t53 67
q30 29 70 48q39 18 89 22q-6 22 -6 39q0 36 20 60q19 23 49 36q29 13 63 18zM512 1112q-36 0 -65 -16q-29 -17 -51 -43q-23 -27 -39 -61q-16 -35 -26 -71t-15 -71q-5 -36 -5 -64q0 -29 5 -64t15 -71q10 -37 26 -71q16 -35 39 -61q22 -27 51 -43q29 -17 65 -17t65 17
q29 16 52 43q22 26 38 61q16 34 26 71q10 36 15 71t5 64q0 28 -5 64q-5 35 -15 71t-26 71q-16 34 -38 61q-23 26 -52 43zM182 1567h236l258 -332h-59z" />
    <glyph glyph-name="oacute" unicode="&#xf3;" horiz-adv-x="860" 
d="M463 1241q77 0 137 -26q59 -27 103 -71q44 -45 74 -104t49 -124q18 -66 26 -134q8 -69 8 -131q0 -95 -27 -183t-80 -155q-54 -67 -132 -107q-79 -40 -181 -40q-109 0 -191 45t-137 119q-56 73 -84 168q-28 94 -28 192q0 43 7 88q6 45 21 88q14 42 36 80t53 67
q30 29 70 48q39 18 89 22q-6 22 -6 39q0 36 20 60q19 23 49 36q29 13 63 18zM512 1112q-36 0 -65 -16q-29 -17 -51 -43q-23 -27 -39 -61q-16 -35 -26 -71t-15 -71q-5 -36 -5 -64q0 -29 5 -64t15 -71q10 -37 26 -71q16 -35 39 -61q22 -27 51 -43q29 -17 65 -17t65 17
q29 16 52 43q22 26 38 61q16 34 26 71q10 36 15 71t5 64q0 28 -5 64q-5 35 -15 71t-26 71q-16 34 -38 61q-23 26 -52 43zM242 1235h-60l258 332h236z" />
    <glyph glyph-name="ocircumflex" unicode="&#xf4;" horiz-adv-x="860" 
d="M463 1241q77 0 137 -26q59 -27 103 -71q44 -45 74 -104t49 -124q18 -66 26 -134q8 -69 8 -131q0 -95 -27 -183t-80 -155q-54 -67 -132 -107q-79 -40 -181 -40q-109 0 -191 45t-137 119q-56 73 -84 168q-28 94 -28 192q0 43 7 88q6 45 21 88q14 42 36 80t53 67
q30 29 70 48q39 18 89 22q-6 22 -6 39q0 36 20 60q19 23 49 36q29 13 63 18zM512 1112q-36 0 -65 -16q-29 -17 -51 -43q-23 -27 -39 -61q-16 -35 -26 -71t-15 -71q-5 -36 -5 -64q0 -29 5 -64t15 -71q10 -37 26 -71q16 -35 39 -61q22 -27 51 -43q29 -17 65 -17t65 17
q29 16 52 43q22 26 38 61q16 34 26 71q10 36 15 71t5 64q0 28 -5 64q-5 35 -15 71t-26 71q-16 34 -38 61q-23 26 -52 43zM393 1485h74l213 -248h-47l-203 133l-205 -133h-47z" />
    <glyph glyph-name="otilde" unicode="&#xf5;" horiz-adv-x="860" 
d="M463 1241q77 0 137 -26q59 -27 103 -71q44 -45 74 -104t49 -124q18 -66 26 -134q8 -69 8 -131q0 -95 -27 -183t-80 -155q-54 -67 -132 -107q-79 -40 -181 -40q-109 0 -191 45t-137 119q-56 73 -84 168q-28 94 -28 192q0 43 7 88q6 45 21 88q14 42 36 80t53 67
q30 29 70 48q39 18 89 22q-6 22 -6 39q0 36 20 60q19 23 49 36q29 13 63 18zM512 1112q-36 0 -65 -16q-29 -17 -51 -43q-23 -27 -39 -61q-16 -35 -26 -71t-15 -71q-5 -36 -5 -64q0 -29 5 -64t15 -71q10 -37 26 -71q16 -35 39 -61q22 -27 51 -43q29 -17 65 -17t65 17
q29 16 52 43q22 26 38 61q16 34 26 71q10 36 15 71t5 64q0 28 -5 64q-5 35 -15 71t-26 71q-16 34 -38 61q-23 26 -52 43zM170 1268q0 42 12 77q12 34 35 59t57 39q33 13 76 13q38 0 76 -13t75 -28t73 -28q35 -13 69 -13q18 0 34 7q15 6 28 17q12 11 20 26t10 32h31
q0 -38 -14 -71t-38 -57q-24 -25 -57 -39q-33 -15 -71 -15q-39 0 -75 13t-72 28t-72 28t-74 13q-18 0 -34 -7t-29 -19t-21 -28q-9 -16 -10 -34h-29z" />
    <glyph glyph-name="odieresis" unicode="&#xf6;" horiz-adv-x="860" 
d="M463 1241q77 0 137 -26q59 -27 103 -71q44 -45 74 -104t49 -124q18 -66 26 -134q8 -69 8 -131q0 -95 -27 -183t-80 -155q-54 -67 -132 -107q-79 -40 -181 -40q-109 0 -191 45t-137 119q-56 73 -84 168q-28 94 -28 192q0 43 7 88q6 45 21 88q14 42 36 80t53 67
q30 29 70 48q39 18 89 22q-6 22 -6 39q0 36 20 60q19 23 49 36q29 13 63 18zM512 1112q-36 0 -65 -16q-29 -17 -51 -43q-23 -27 -39 -61q-16 -35 -26 -71t-15 -71q-5 -36 -5 -64q0 -29 5 -64t15 -71q10 -37 26 -71q16 -35 39 -61q22 -27 51 -43q29 -17 65 -17t65 17
q29 16 52 43q22 26 38 61q16 34 26 71q10 36 15 71t5 64q0 28 -5 64q-5 35 -15 71t-26 71q-16 34 -38 61q-23 26 -52 43zM565 1444q18 0 34 -7q15 -7 27 -19q11 -12 18 -28t7 -34t-7 -33q-7 -16 -18 -27q-12 -12 -27 -19q-16 -7 -34 -7t-34 7t-28 19q-12 11 -19 27
q-7 15 -7 33t7 34t19 28t28 19zM344 1444q18 0 34 -7t28 -19t19 -28t7 -34t-7 -33q-7 -16 -19 -27q-12 -12 -28 -19t-34 -7t-33 7q-16 7 -27 19q-12 11 -19 27q-7 15 -7 33t7 34t19 28q11 12 27 19z" />
    <glyph glyph-name="divide" unicode="&#xf7;" horiz-adv-x="944" 
d="M471 1047q26 0 49 -10t40 -27q17 -18 27 -40q9 -23 9 -48q0 -26 -9 -48q-10 -23 -27 -40t-40 -27t-49 -10t-48 10q-23 10 -40 27t-27 40q-10 22 -10 48q0 25 10 48q10 22 27 40q17 17 40 27zM49 539v200h846v-200h-846zM471 481q26 0 49 -10t40 -27t27 -40q9 -23 9 -48
q0 -26 -9 -48q-10 -23 -27 -40t-40 -27t-49 -10t-48 10q-23 10 -40 28q-17 17 -27 40q-10 22 -10 47t10 48t27 40t40 27z" />
    <glyph glyph-name="oslash" unicode="&#xf8;" horiz-adv-x="963" 
d="M512 1239q80 0 147 -33q66 -34 117 -94l47 64l33 -25l-53 -72q28 -41 49 -87q21 -47 35 -96q13 -50 20 -101q6 -51 6 -101q0 -65 -11 -129q-11 -65 -33 -124q-23 -59 -57 -109q-35 -51 -82 -88q-47 -38 -107 -59t-134 -21q-78 0 -149 27q-72 26 -129 81l-43 -59l-33 23
l47 65q-34 39 -59 86q-25 46 -41 96q-17 49 -25 102q-8 52 -8 103q0 64 16 132q15 68 48 124t86 95q52 38 127 44q-3 10 -5 19t-2 20q0 36 20 59q19 22 49 35q29 13 63 18zM705 1014q-12 19 -27 37t-33 32q-18 13 -39 21t-45 8q-36 0 -65 -16q-29 -17 -51 -44
q-23 -27 -39 -61q-16 -35 -26 -71q-10 -37 -15 -72q-5 -36 -5 -64q0 -49 9 -97q8 -48 28 -93zM418 555q12 -19 27 -37q14 -18 32 -31q18 -14 39 -22t45 -8q36 0 66 17q29 16 51 43q22 26 38 61q16 34 26 71q10 36 15 71t5 64q0 50 -8 98q-9 48 -29 93z" />
    <glyph glyph-name="ugrave" unicode="&#xf9;" horiz-adv-x="719" 
d="M664 1403q43 0 81 -15t70 -42q-45 -9 -77 -38q-33 -30 -54 -70t-31 -85q-10 -46 -10 -86q0 -51 6 -102q5 -52 12 -103l12 -102q5 -51 5 -103q0 -74 -25 -139q-26 -66 -71 -114q-46 -49 -109 -77q-64 -28 -139 -28q-136 0 -202 67q-66 66 -66 203q0 94 4 188q4 93 4 187
q0 47 -3 88q-4 40 -12 78t-22 76q-15 38 -37 80h336q-18 -36 -33 -85q-16 -49 -26 -101q-11 -53 -17 -104t-6 -91q0 -29 4 -67q3 -39 16 -73q12 -34 36 -57q24 -24 65 -24q26 0 43 10q17 9 27 25t14 37q4 20 4 42q0 38 -7 76q-8 38 -17 78q-10 39 -17 80q-8 40 -8 82
q0 52 18 107q17 55 50 100q32 45 78 74zM-70 1643h236l258 -332h-59z" />
    <glyph glyph-name="uacute" unicode="&#xfa;" horiz-adv-x="719" 
d="M664 1403q43 0 81 -15t70 -42q-45 -9 -77 -38q-33 -30 -54 -70t-31 -85q-10 -46 -10 -86q0 -51 6 -102q5 -52 12 -103l12 -102q5 -51 5 -103q0 -74 -25 -139q-26 -66 -71 -114q-46 -49 -109 -77q-64 -28 -139 -28q-136 0 -202 67q-66 66 -66 203q0 94 4 188q4 93 4 187
q0 47 -3 88q-4 40 -12 78t-22 76q-15 38 -37 80h336q-18 -36 -33 -85q-16 -49 -26 -101q-11 -53 -17 -104t-6 -91q0 -29 4 -67q3 -39 16 -73q12 -34 36 -57q24 -24 65 -24q26 0 43 10q17 9 27 25t14 37q4 20 4 42q0 38 -7 76q-8 38 -17 78q-10 39 -17 80q-8 40 -8 82
q0 52 18 107q17 55 50 100q32 45 78 74zM304 1317h-60l258 332h236z" />
    <glyph glyph-name="ucircumflex" unicode="&#xfb;" horiz-adv-x="719" 
d="M664 1403q43 0 81 -15t70 -42q-45 -9 -77 -38q-33 -30 -54 -70t-31 -85q-10 -46 -10 -86q0 -51 6 -102q5 -52 12 -103l12 -102q5 -51 5 -103q0 -74 -25 -139q-26 -66 -71 -114q-46 -49 -109 -77q-64 -28 -139 -28q-136 0 -202 67q-66 66 -66 203q0 94 4 188q4 93 4 187
q0 47 -3 88q-4 40 -12 78t-22 76q-15 38 -37 80h336q-18 -36 -33 -85q-16 -49 -26 -101q-11 -53 -17 -104t-6 -91q0 -29 4 -67q3 -39 16 -73q12 -34 36 -57q24 -24 65 -24q26 0 43 10q17 9 27 25t14 37q4 20 4 42q0 38 -7 76q-8 38 -17 78q-10 39 -17 80q-8 40 -8 82
q0 52 18 107q17 55 50 100q32 45 78 74zM284 1637h74l213 -248h-47l-203 133l-205 -133h-47z" />
    <glyph glyph-name="udieresis" unicode="&#xfc;" horiz-adv-x="719" 
d="M664 1403q43 0 81 -15t70 -42q-45 -9 -77 -38q-33 -30 -54 -70t-31 -85q-10 -46 -10 -86q0 -51 6 -102q5 -52 12 -103l12 -102q5 -51 5 -103q0 -74 -25 -139q-26 -66 -71 -114q-46 -49 -109 -77q-64 -28 -139 -28q-136 0 -202 67q-66 66 -66 203q0 94 4 188q4 93 4 187
q0 47 -3 88q-4 40 -12 78t-22 76q-15 38 -37 80h336q-18 -36 -33 -85q-16 -49 -26 -101q-11 -53 -17 -104t-6 -91q0 -29 4 -67q3 -39 16 -73q12 -34 36 -57q24 -24 65 -24q26 0 43 10q17 9 27 25t14 37q4 20 4 42q0 38 -7 76q-8 38 -17 78q-10 39 -17 80q-8 40 -8 82
q0 52 18 107q17 55 50 100q32 45 78 74zM428 1530q18 0 34 -7q15 -7 27 -19q11 -12 18 -28t7 -34t-7 -33q-7 -16 -18 -27q-12 -12 -27 -19q-16 -7 -34 -7t-34 7t-28 19q-12 11 -19 27q-7 15 -7 33t7 34t19 28t28 19zM207 1530q18 0 34 -7t28 -19t19 -28t7 -34t-7 -33
q-7 -16 -19 -27q-12 -12 -28 -19t-34 -7t-33 7q-16 7 -27 19q-12 11 -19 27q-7 15 -7 33t7 34t19 28q11 12 27 19z" />
    <glyph glyph-name="yacute" unicode="&#xfd;" horiz-adv-x="870" 
d="M295 1079q-3 -11 -3 -21q-1 -11 -1 -22q0 -62 25 -124q25 -63 67 -109q6 -8 16 -17t19 -12q13 13 23 36q9 22 15 47q6 24 9 49q2 24 2 42q0 32 -5 66t-13 65h421q-63 -53 -123 -120q-60 -68 -107 -145q-48 -77 -76 -161q-29 -84 -29 -170q0 -93 26 -178q26 -86 76 -164
h-637q41 34 89 83q47 49 88 106q41 56 68 116t27 117q0 29 -7 60q-8 31 -20 62q-12 30 -27 59q-15 28 -30 53q-43 68 -85 138q-43 69 -74 144h266zM359 1141h-60l258 332h236z" />
    <glyph glyph-name="thorn" unicode="&#xfe;" horiz-adv-x="844" 
d="M403 406q0 -16 3 -30q2 -14 2 -30q0 -68 -18 -115q-18 -48 -52 -78q-35 -30 -85 -43q-51 -14 -116 -14q-68 0 -132 25q-65 24 -116 72q62 47 107 123q45 75 74 162q29 86 43 175q14 88 14 162q0 88 -14 178t-50 170q25 0 57 -1q31 -1 63 -5q32 -5 63 -14q31 -10 56 -26
q24 -16 39 -40t17 -59h174q60 0 109 -25q48 -25 83 -66q34 -42 53 -95q18 -53 18 -109q0 -65 -20 -114q-21 -50 -57 -83q-37 -34 -89 -51q-52 -18 -115 -18h-57q-25 0 -39 -10zM438 889q-26 0 -44 -12t-29 -30q-11 -19 -16 -41q-5 -23 -5 -44q0 -8 1 -28t3 -45q2 -26 6 -53
q3 -27 7 -49q4 -23 10 -37q5 -15 12 -15q15 0 34 22q18 22 36 50q17 28 31 55q13 27 18 38q8 23 13 47q5 23 5 48q0 17 -6 34q-6 16 -16 30q-11 13 -26 22z" />
    <glyph glyph-name="ydieresis" unicode="&#xff;" horiz-adv-x="870" 
d="M295 1079q-3 -11 -3 -21q-1 -11 -1 -22q0 -62 25 -124q25 -63 67 -109q6 -8 16 -17t19 -12q13 13 23 36q9 22 15 47q6 24 9 49q2 24 2 42q0 32 -5 66t-13 65h421q-63 -53 -123 -120q-60 -68 -107 -145q-48 -77 -76 -161q-29 -84 -29 -170q0 -93 26 -178q26 -86 76 -164
h-637q41 34 89 83q47 49 88 106q41 56 68 116t27 117q0 29 -7 60q-8 31 -20 62q-12 30 -27 59q-15 28 -30 53q-43 68 -85 138q-43 69 -74 144h266zM501 1323q18 0 34 -7q15 -7 27 -19q11 -12 18 -28t7 -34t-7 -33q-7 -16 -18 -27q-12 -12 -27 -19q-16 -7 -34 -7t-34 7
t-28 19q-12 11 -19 27q-7 15 -7 33t7 34t19 28t28 19zM280 1323q18 0 34 -7t28 -19t19 -28t7 -34t-7 -33q-7 -16 -19 -27q-12 -12 -28 -19t-34 -7t-33 7q-16 7 -27 19q-12 11 -19 27q-7 15 -7 33t7 34t19 28q11 12 27 19z" />
    <glyph glyph-name="dotlessi" unicode="&#x131;" horiz-adv-x="451" 
d="M387 1180q-32 -96 -46 -198q-15 -102 -15 -204q0 -65 7 -136q6 -71 21 -141q14 -71 38 -137q24 -67 59 -124h-451q34 57 58 124q24 66 39 137q15 70 22 141q6 71 6 136q0 102 -15 204t-47 198h324z" />
    <glyph glyph-name="OE" unicode="&#x152;" horiz-adv-x="1890" 
d="M666 1352q80 0 152 -25t134 -76h633v-346q-15 28 -37 57q-22 28 -49 51q-28 23 -59 38q-32 14 -66 14q-56 0 -88 -30q-33 -30 -33 -87q0 -25 9 -48t26 -40q16 -18 38 -28q22 -11 48 -11q20 0 39 7t36 19q16 12 29 28t21 34v-291q-31 31 -60 45q-29 13 -73 13
q-21 0 -39 -6q-19 -7 -33 -19q-15 -13 -23 -30q-9 -18 -9 -39q0 -41 16 -77q15 -36 42 -63t63 -43q35 -16 75 -16q30 0 55 14t43 37q17 22 27 50t10 55q0 29 -6 61q-7 31 -24 55q60 -10 111 -46t88 -87q37 -52 58 -112q21 -61 21 -119q0 -60 -23 -113t-63 -92
q-40 -40 -93 -63t-114 -23h-628q-65 -40 -137 -60q-73 -20 -148 -20q-96 0 -177 27q-81 28 -146 77q-65 48 -114 114q-50 66 -83 144q-33 77 -49 163q-17 85 -17 173q0 58 9 118q9 59 28 116q19 56 49 107q29 51 70 91q40 39 93 64q52 25 118 31q-6 24 -6 51q0 48 26 78
t65 48q39 17 84 24zM731 1184q-51 0 -91 -26q-41 -26 -72 -65q-31 -40 -51 -87q-21 -48 -32 -91q-11 -42 -16 -84q-6 -42 -6 -86q0 -90 24 -180q12 -41 33 -86t52 -82q30 -38 70 -63t89 -25q50 0 90 25t71 63q31 37 52 82t33 86q12 45 17 90t5 90q0 44 -4 86q-5 42 -16 84
q-11 43 -32 91q-21 47 -51 87q-31 39 -72 65z" />
    <glyph glyph-name="oe" unicode="&#x153;" horiz-adv-x="1442" 
d="M512 1239q60 0 115 -19q54 -19 100 -57h475v-260q-12 21 -28 42q-17 21 -38 38t-45 28t-49 11q-42 0 -66 -21q-24 -22 -24 -65q0 -18 7 -35q7 -18 19 -31q12 -14 29 -22t37 -8q29 0 55 20q25 19 38 47v-219q-23 23 -45 34t-54 11t-56 -19q-24 -20 -24 -52q0 -31 12 -58
t32 -47q20 -21 47 -33t57 -12q22 0 41 11q19 10 33 27q13 16 21 37q7 21 7 42q0 46 -22 88q45 -8 83 -35q38 -28 66 -66q27 -39 43 -84q15 -46 15 -90t-17 -84q-18 -40 -47 -70q-30 -30 -70 -47q-40 -18 -85 -18h-474q-48 -29 -101 -44q-54 -15 -110 -15q-108 0 -190 45
q-83 45 -138 119q-56 73 -84 168q-28 94 -28 192q0 64 16 132q15 68 48 124t86 95q52 38 127 44q-3 10 -5 19t-2 20q0 36 20 59q19 22 49 35q29 13 63 18zM561 1112q-36 0 -65 -16q-29 -17 -51 -44q-23 -27 -39 -61q-16 -35 -26 -71q-10 -37 -15 -72q-5 -36 -5 -64t5 -63
q5 -36 15 -72q10 -37 26 -71q16 -35 39 -61q22 -27 51 -43q29 -17 65 -17t66 17q29 16 51 43q22 26 38 61q16 34 26 71q10 36 15 71t5 64q0 28 -4 64q-5 35 -15 72q-11 36 -27 71q-16 34 -38 61t-51 44z" />
    <glyph glyph-name="Scaron" unicode="&#x160;" horiz-adv-x="836" 
d="M0 584q27 -39 69 -88q41 -49 90 -92t103 -72t107 -29q25 0 47 9t38 25t26 38q9 21 9 47q0 35 -15 68q-16 32 -42 57l-170 160q-39 36 -71 73t-55 78q-23 40 -35 87q-13 46 -13 102q0 71 28 124q27 53 74 88q46 34 106 51q59 17 124 17q64 0 131 -20q66 -20 119 -58
q53 -39 87 -95t34 -128q0 -30 -8 -56q-8 -27 -24 -46q-16 -20 -40 -31q-24 -12 -55 -12q-36 0 -70 15q-35 14 -61 39t-42 58q-16 32 -16 68q0 23 9 43q8 19 23 33t36 22q20 8 43 8q28 0 57 -16q-10 21 -26 37q-17 15 -36 26q-20 10 -42 16q-22 5 -43 5q-31 0 -57 -10
t-45 -28q-20 -19 -31 -44q-11 -26 -11 -57q0 -36 10 -69t27 -62t40 -54t50 -47l142 -112q51 -41 91 -92q39 -52 67 -110q28 -59 43 -123q14 -64 14 -130q0 -95 -28 -170q-29 -75 -81 -128q-53 -52 -129 -80t-170 -28q-103 0 -205 33q-102 34 -192 88zM227 1610l205 -133
l203 133h47l-213 -248h-74l-215 248h47z" />
    <glyph glyph-name="scaron" unicode="&#x161;" horiz-adv-x="627" 
d="M0 686q21 -29 52 -64q31 -36 68 -67q36 -31 77 -51q40 -21 79 -21q19 0 36 7q16 6 29 17t21 27q7 16 7 35q0 26 -12 50q-13 23 -33 40l-127 115q-29 26 -53 53q-25 27 -42 57q-17 29 -26 63q-10 33 -10 73q0 52 22 91q21 38 56 63t80 37q44 12 91 12q46 0 96 -14
q49 -15 90 -42q40 -28 67 -69q26 -41 26 -94q0 -44 -25 -74q-25 -31 -71 -31q-26 0 -51 11q-26 10 -46 28q-20 17 -32 41q-13 24 -13 51q0 34 25 55t57 21q25 0 43 -12q-14 31 -45 46q-32 15 -63 15q-45 0 -77 -27t-32 -73q0 -53 27 -91q27 -39 67 -73t88 -69q47 -35 87 -81
t67 -108q27 -63 27 -152q0 -71 -22 -125q-22 -55 -62 -92t-96 -56q-57 -20 -125 -20q-79 0 -155 24t-142 62zM108 1504l205 -133l203 133h47l-213 -248h-74l-215 248h47z" />
    <glyph glyph-name="Ydieresis" unicode="&#x178;" horiz-adv-x="1376" 
d="M453 1251q-15 -18 -27 -41t-20 -48q-9 -26 -14 -51q-5 -26 -5 -48q0 -72 31 -140q30 -68 78 -120q11 -14 28 -29q16 -16 33 -24q17 17 30 43q12 26 21 56q8 29 13 58q4 28 4 49q0 31 -7 72q-7 40 -19 81t-28 79t-34 63h839q-73 -37 -150 -89q-78 -53 -151 -117
q-74 -65 -139 -139q-66 -75 -115 -156q-50 -82 -79 -169t-29 -175q0 -112 36 -214t101 -192h-850q34 25 74 59t80 75q40 40 78 85q37 45 66 93q29 47 47 96q17 48 17 94q0 60 -25 121q-26 61 -65 123q-39 61 -84 124q-46 63 -86 126t-68 127q-29 64 -32 128h451zM669 1475
q18 0 34 -7q15 -7 27 -19q11 -12 18 -28t7 -34t-7 -33q-7 -16 -18 -27q-12 -12 -27 -19q-16 -7 -34 -7t-34 7t-28 19q-12 11 -19 27q-7 15 -7 33t7 34t19 28t28 19zM448 1475q18 0 34 -7t28 -19t19 -28t7 -34t-7 -33q-7 -16 -19 -27q-12 -12 -28 -19t-34 -7t-33 7
q-16 7 -27 19q-12 11 -19 27q-7 15 -7 33t7 34t19 28q11 12 27 19z" />
    <glyph glyph-name="Zcaron" unicode="&#x17d;" horiz-adv-x="1094" 
d="M942 641q32 -15 58 -39t45 -55q18 -32 28 -69q10 -38 10 -79q0 -98 -35 -173q-36 -75 -93 -125q-58 -50 -129 -75q-72 -26 -144 -26h-682q17 19 35 43t43 63q24 38 58 96q33 58 82 148q49 89 116 214q67 124 158 296q0 19 -15 35q-16 16 -39 28t-51 19q-28 6 -53 6
q-32 0 -69 -14q-38 -14 -71 -38q-33 -25 -55 -58t-22 -70q0 -8 1 -14q1 -7 3 -15q-26 12 -46 32q-21 19 -35 44t-22 54t-8 61q0 81 36 141q36 59 91 98q54 39 119 58q64 18 121 18h702q-57 -39 -112 -99q-56 -61 -106 -132q-50 -72 -92 -148q-42 -77 -72 -147
q-31 -70 -48 -128q-18 -58 -18 -93q0 -25 6 -47q5 -22 19 -38q13 -17 35 -26q22 -10 54 -10q41 0 78 18q36 17 64 48q27 30 43 71t16 88q0 9 -1 20zM413 1555l205 -133l203 133h47l-213 -248h-74l-215 248h47z" />
    <glyph glyph-name="zcaron" unicode="&#x17e;" horiz-adv-x="825" 
d="M715 711q49 -22 78 -71q28 -50 28 -112q0 -74 -27 -131t-70 -95t-98 -57q-55 -20 -110 -20h-516q13 15 27 33q13 18 32 47q18 29 44 73q25 44 62 112q37 67 88 162t120 225q0 14 -11 27q-12 12 -29 21q-18 9 -39 14t-40 5q-25 0 -54 -10q-29 -11 -54 -30t-41 -44
q-17 -25 -17 -53q0 -5 1 -9q1 -5 3 -12q-38 17 -61 57q-23 39 -23 87q0 62 27 107t69 75q41 29 90 43q48 14 91 14h532q-43 -29 -85 -75q-42 -47 -79 -101q-38 -54 -70 -112q-33 -58 -56 -111q-24 -53 -37 -97t-13 -71q0 -37 20 -63q19 -27 68 -27q31 0 59 14q27 13 48 36
t33 54t12 66q0 6 -1 14zM229 1471l205 -133l203 133h47l-213 -248h-74l-215 248h47z" />
    <glyph glyph-name="florin" unicode="&#x192;" horiz-adv-x="1675" 
d="M1460 158q-51 -53 -121 -84t-145 -31q-40 -22 -85 -32q-45 -11 -91 -11h-23q-35 -19 -75 -28t-82 -9t-82 9q-41 9 -76 28h-23q-46 0 -90 11q-45 10 -86 32q-75 0 -145 31q-71 31 -121 84q-36 26 -69 58q-33 31 -58 69q-25 37 -40 80q-15 42 -15 90q0 71 32 131
q31 60 80 108q-24 47 -37 98q-14 50 -14 103q0 116 59 216t162 175q101 74 236 116q134 42 287 42q152 0 287 -42t235 -116q103 -75 162 -175t59 -216q0 -53 -13 -103q-13 -51 -38 -98q49 -48 81 -108q31 -60 31 -131q0 -48 -15 -90q-15 -43 -40 -80q-25 -38 -58 -69z
M1262 92q48 10 91 34q43 23 75 58t51 80q18 44 18 96q0 44 -12 83q-13 39 -39 73q-6 6 -6 12q0 10 6 16q6 5 14 5q11 0 19 -8q29 -39 44 -85t15 -96q0 -47 -12 -90q34 39 55 86q21 46 21 99q0 65 -32 120q-33 55 -81 99l-4 6q-2 3 -2 8q0 6 4 10q53 94 53 197q0 105 -54 197
q-55 92 -151 161q-96 70 -223 111q-128 41 -274 41q-147 0 -275 -41q-129 -41 -223 -111q-96 -69 -150 -161q-55 -92 -55 -197q0 -51 14 -100q13 -50 39 -97q2 -2 2 -8q0 -8 -4 -16q-48 -44 -80 -99t-32 -120q0 -53 21 -99q20 -47 55 -86q-13 42 -13 90q0 101 60 181
q8 8 18 8q8 0 15 -5q6 -6 6 -16q0 -5 -7 -12q-51 -68 -51 -156q0 -52 19 -96q18 -45 51 -80q32 -35 75 -58q43 -24 91 -34q-47 42 -75 99q-28 56 -28 124q0 53 18 101t52 86q7 10 16 10q8 0 14 -6q5 -6 5 -14v-7q-1 -3 -4 -8q-28 -34 -44 -75q-16 -42 -16 -87q0 -54 21 -100
q21 -47 57 -82q35 -36 82 -59q47 -24 98 -31q-54 42 -86 103q-32 60 -32 133q0 12 6 18t14 6t14 -6t6 -18q0 -61 26 -111q26 -51 69 -87q43 -37 98 -57t113 -20q57 0 112 20t98 57q43 36 69 87q26 50 26 111q0 12 6 18t14 6t15 -6q6 -6 6 -18q0 -73 -32 -133
q-33 -61 -87 -103q51 7 98 31q47 23 83 59q35 35 56 82q21 46 21 100q0 45 -16 87q-16 41 -43 75q-3 5 -3 8q-1 3 -1 7q0 8 5 14t13 6q9 0 16 -10q34 -38 52 -86t18 -101q0 -68 -28 -124zM954 811v-16q0 -7 -2 -15q8 2 16 3t17 1q22 0 45 -4q23 -5 43 -15q19 -11 33 -27
q13 -16 16 -38q22 10 52 15q29 4 55 4q33 0 64 -8q30 -8 54 -24q24 -17 38 -42t14 -59q0 -16 -5 -32q-6 -16 -14 -30q-8 -8 -18 -8q-9 0 -15 6q-6 5 -6 13q0 5 1 7q0 2 4 7q12 15 12 37q0 40 -32 65t-77 25q-49 0 -88 -13q-39 -14 -66 -33q-28 -20 -42 -43q-15 -23 -15 -42
q0 -11 3 -22t12 -20t26 -14q16 -6 43 -6q17 0 33 2q15 2 31 7q0 2 2 2h4q8 0 14 -7t6 -16q-3 -34 -21 -64t-46 -53q-29 -20 -64 -32q-35 -13 -75 -13q-48 0 -92 19q-45 18 -76 53q-31 -35 -75 -53q-45 -19 -93 -19q-41 0 -76 13q-35 12 -64 32q-27 23 -45 53q-19 30 -22 64
q0 9 6 16t12 7h4q2 0 4 -2q16 -5 32 -7q15 -2 32 -2q28 0 46 6q17 5 27 14q9 9 12 20t3 22q0 18 -15 41t-43 43q-29 20 -69 34q-40 13 -90 13q-22 0 -41 -6q-20 -7 -34 -19q-15 -12 -23 -28q-9 -17 -9 -37q0 -21 13 -37q3 -5 4 -7v-7q0 -19 -21 -19q-10 0 -18 8
q-8 14 -13 30q-6 16 -6 32q0 34 14 59t38 42q24 16 55 24q30 8 63 8q26 0 56 -4q29 -5 51 -15q3 22 17 38t34 27q19 10 41 15q22 4 41 4q9 0 19 -1q9 -1 18 -3q-2 10 -2 18v19q0 26 3 50q2 23 7 40q9 35 25 35q15 0 24 -35q3 -11 4 -23l4 -28l-36 -45h39q0 -15 -2 -30
t-5 -27q37 -25 37 -64q0 -34 -18 -51q-18 -18 -43 -29q-23 -9 -42 -22q-20 -14 -20 -31q0 -18 15 -31q14 -13 35 -21q21 -9 46 -12q24 -4 44 -4t44 4q24 3 45 12q20 8 34 21t14 31q0 16 -17 29q-18 13 -43 24q-24 10 -42 27q-19 16 -19 53q0 39 37 64q-3 14 -4 30
q-2 16 -2 33q0 26 3 50q2 23 7 40q9 35 25 35q15 0 24 -35q3 -11 5 -24q1 -14 3 -29l-37 -43h39zM979 492q-29 -25 -69 -34t-72 -9q-16 0 -35 2t-37 7q-19 5 -37 14q-18 8 -33 20q-31 -25 -68 -37q-37 -13 -75 -13h-22q-10 0 -21 2q10 -23 27 -40q17 -18 39 -30
q21 -12 45 -18t49 -6q43 0 85 20q41 19 64 56q5 6 10 8q4 2 9 2t10 -2t8 -8q22 -37 64 -56q42 -20 86 -20q24 0 48 6t45 18t38 30q17 17 26 40q-9 -2 -20 -2h-21q-38 0 -75 13zM989 758q-48 0 -80 -23q-28 -19 -28 -45q0 -29 28 -45q33 -22 80 -22t78 22q29 16 29 45
q0 26 -29 45zM686 758q-46 0 -78 -23q-28 -19 -28 -45q0 -29 28 -45q33 -22 78 -22q47 0 80 22q29 16 29 45q0 26 -29 45zM680 1065q-53 -12 -98 -30q-46 -19 -80 -46t-53 -63t-19 -84q0 -16 2 -30q2 -15 2 -34q0 -9 -6 -14q-6 -6 -14 -6q-6 0 -11 4q-6 3 -8 14q-6 34 -6 66
q0 69 26 134q26 64 74 114q-37 23 -66 59t-40 86q0 9 6 14q6 4 14 4q7 0 13 -3q6 -4 8 -13q7 -33 27 -59t47 -43q27 -18 59 -27q32 -10 64 -10q30 0 60 9q29 8 55 24q25 15 45 39q19 23 28 53q6 14 20 14q18 0 21 -14q9 -30 29 -53q19 -24 45 -39q26 -16 56 -24q30 -9 60 -9
q31 0 63 10q32 9 59 27q27 17 47 43q19 26 26 59q2 9 8 13q6 3 12 3q8 0 15 -5q6 -5 6 -19q-9 -44 -35 -77t-63 -54q51 -53 79 -118q27 -66 27 -138v-33q-1 -16 -4 -33q-3 -11 -8 -14q-6 -4 -12 -4q-8 0 -14 7q-7 7 -7 19q6 28 6 58q0 51 -16 88q-17 37 -46 63
q-29 25 -68 41q-40 16 -87 25q-29 5 -58 14q-29 8 -55 21q-26 12 -48 31q-22 18 -38 44q-24 -42 -63 -67z" />
    <glyph glyph-name="circumflex" unicode="&#x2c6;" horiz-adv-x="600" 
d="M264 1485h74l213 -248h-47l-203 133l-205 -133h-47z" />
    <glyph glyph-name="caron" unicode="&#x2c7;" horiz-adv-x="600" 
d="M96 1481l205 -133l203 133h47l-213 -248h-74l-215 248h47z" />
    <glyph glyph-name="ring" unicode="&#x2da;" horiz-adv-x="444" 
d="M223 1581q35 0 67 -13q31 -14 55 -37q23 -24 37 -55q13 -32 13 -67q0 -36 -13 -67q-14 -32 -37 -56q-24 -24 -55 -37q-32 -14 -67 -14q-36 0 -67 14q-32 13 -56 37t-37 56q-14 31 -14 67q0 35 14 67q13 31 37 55q24 23 56 37zM223 1518q-23 0 -43 -8q-20 -9 -35 -24
t-23 -35q-9 -20 -9 -42q0 -23 9 -43q8 -20 23 -35t35 -24t43 -9q22 0 42 9t35 24t24 35q8 20 8 43q0 22 -8 42q-9 20 -24 35t-35 24z" />
    <glyph glyph-name="tilde" unicode="&#x2dc;" horiz-adv-x="694" 
d="M49 1229q0 42 12 77q12 34 35 59t57 39q33 13 76 13q38 0 76 -13t75 -28t73 -28q35 -13 69 -13q18 0 34 7q15 6 28 17q12 11 20 26t10 32h31q0 -38 -14 -71t-38 -57q-24 -25 -57 -39q-33 -15 -71 -15q-39 0 -75 13t-72 28t-72 28t-74 13q-18 0 -34 -7t-29 -19t-21 -28
q-9 -16 -10 -34h-29z" />
    <glyph glyph-name="endash" unicode="&#x2013;" horiz-adv-x="893" 
d="M49 539v200h795v-200h-795z" />
    <glyph glyph-name="emdash" unicode="&#x2014;" horiz-adv-x="1569" 
d="M49 539v200h1471v-200h-1471z" />
    <glyph glyph-name="quoteleft" unicode="&#x2018;" horiz-adv-x="401" 
d="M49 979q31 33 55 77t42 92q17 48 28 98q11 49 16 93h160q-12 -86 -12 -174q0 -46 3 -93t11 -93h-303z" />
    <glyph glyph-name="quoteright" unicode="&#x2019;" horiz-adv-x="401" 
d="M352 1339q-32 -33 -56 -77t-41 -92q-18 -48 -28 -97q-11 -50 -16 -94h-160q6 43 8 86t2 86q0 93 -12 188h303z" />
    <glyph glyph-name="quotesinglbase" unicode="&#x201a;" horiz-adv-x="401" 
d="M352 -176q-32 -33 -56 -77t-41 -93q-18 -48 -28 -98q-11 -49 -16 -93h-160q6 44 8 86q2 43 2 86q0 48 -3 94q-3 47 -9 95h303z" />
    <glyph glyph-name="quotedblleft" unicode="&#x201c;" horiz-adv-x="668" 
d="M49 979q32 33 56 77t42 92q17 48 28 98q10 49 15 93h160q-12 -86 -12 -174q0 -37 3 -74q2 -37 5 -75q24 34 42 74q18 39 32 81q13 42 22 85q9 42 15 83h159q-12 -86 -12 -174q0 -46 3 -93t11 -93h-569z" />
    <glyph glyph-name="quotedblright" unicode="&#x201d;" horiz-adv-x="668" 
d="M618 1339q-32 -34 -56 -77q-24 -44 -41 -92t-27 -97q-11 -49 -17 -94h-160q7 43 9 86t2 86q0 37 -2 75q-2 37 -7 74q-23 -34 -40 -73q-18 -40 -31 -81q-14 -42 -23 -84q-9 -43 -14 -83h-160q6 43 8 86t2 86q0 93 -12 188h569z" />
    <glyph glyph-name="quotedblbase" unicode="&#x201e;" horiz-adv-x="668" 
d="M618 -176q-32 -34 -56 -78t-41 -92t-27 -97q-11 -49 -17 -94h-160q7 44 9 86q2 43 2 86q0 38 -2 75q-2 38 -7 75q-23 -34 -40 -74q-18 -39 -31 -81q-14 -42 -23 -85q-9 -42 -14 -82h-160q6 44 8 86q2 43 2 86q0 48 -3 94q-3 47 -9 95h569z" />
    <glyph glyph-name="dagger" unicode="&#x2020;" horiz-adv-x="584" 
d="M360 1382q12 -41 28 -96q16 -56 33 -118q17 -63 33 -129q16 -67 29 -129q12 -63 20 -118q7 -55 7 -94q0 -44 -9 -90q-9 -47 -25 -93t-36 -89q-21 -43 -43 -80l138 -346h-486l137 346q-23 37 -43 80q-21 43 -36 89t-24 93q-9 46 -9 90q0 39 8 94q7 55 20 118q12 62 28 129
q16 66 33 129q16 62 32 118q16 55 28 96h137zM301 979q21 0 39 -8q17 -9 30 -23q12 -15 20 -34q7 -19 7 -40q0 -25 -11 -47q-11 -23 -23 -47q-13 -24 -24 -50q-11 -27 -11 -60q0 -47 20 -90q19 -44 60 -70h38q16 45 27 93q10 47 10 95q0 49 -10 116q-11 67 -26 138
q-16 70 -33 138q-18 67 -31 118h-182q-13 -51 -30 -118q-18 -68 -33 -138q-16 -71 -27 -138t-11 -116q0 -48 10 -95q10 -48 27 -93h27q3 0 14 6q10 5 15 8q38 25 56 68q17 43 17 88q0 30 -9 56q-10 25 -21 48q-12 23 -21 45q-10 22 -10 45q0 21 7 40t20 34q12 14 30 23z" />
    <glyph glyph-name="daggerdbl" unicode="&#x2021;" horiz-adv-x="584" 
d="M360 1382q12 -41 28 -96q16 -56 33 -118q17 -63 33 -129q16 -67 29 -129q12 -63 20 -118q7 -55 7 -94q0 -44 -9 -90q-9 -47 -25 -93t-36 -89q-21 -43 -43 -80l138 -346h-486l137 346q-23 37 -43 80q-21 43 -36 89t-24 93q-9 46 -9 90q0 39 8 94q7 55 20 118q12 62 28 129
q16 66 33 129q16 62 32 118q16 55 28 96h137zM446 510q16 45 27 93q10 47 10 95q0 49 -10 116q-11 67 -26 138q-16 70 -33 138q-18 67 -31 118h-182q-13 -51 -30 -118q-18 -68 -33 -138q-16 -71 -27 -138t-11 -116q0 -48 10 -95q10 -48 27 -93h49q-2 11 -3 22q-1 10 -1 21
q0 23 6 55q6 31 19 60q12 29 33 49t51 20t51 -20t34 -49t19 -60q6 -32 6 -55q0 -11 -1 -21q-1 -11 -3 -22h49zM291 1024q19 0 35 -8q16 -9 27 -22q11 -14 18 -32q6 -18 6 -36t-6 -35q-7 -17 -18 -31t-27 -22q-16 -9 -35 -9t-34 9q-16 8 -27 22t-17 31t-6 35t6 36t17 32
q11 13 27 22z" />
    <glyph glyph-name="bullet" unicode="&#x2022;" horiz-adv-x="756" 
d="M377 967q68 0 128 -26t105 -70q45 -45 71 -105t26 -127q0 -68 -26 -127q-26 -60 -71 -104q-45 -45 -105 -71t-128 -26t-127 26q-60 26 -104 71q-45 44 -71 104q-26 59 -26 127q0 67 26 127t71 105q44 44 104 70z" />
    <glyph glyph-name="ellipsis" unicode="&#x2026;" horiz-adv-x="1370" 
d="M229 303q32 0 64 -10q32 -11 58 -30q25 -20 41 -48t16 -63q0 -36 -16 -64q-16 -29 -41 -49q-26 -20 -58 -30q-32 -11 -64 -11t-64 11q-33 10 -58 30q-26 20 -42 49q-16 28 -16 64q0 35 16 63t42 48q25 19 58 30zM686 303q32 0 64 -10q32 -11 58 -30q25 -20 41 -48
q15 -28 15 -63q0 -36 -15 -64q-16 -29 -41 -49q-26 -20 -58 -30q-32 -11 -64 -11t-64 11q-33 10 -58 30q-26 20 -42 49q-16 28 -16 64q0 35 16 63t42 48q25 19 58 30zM1143 303q32 0 64 -10q32 -11 58 -30q25 -20 41 -48q15 -28 15 -63q0 -36 -15 -64q-16 -29 -41 -49
q-26 -20 -58 -30q-32 -11 -64 -11t-64 11q-33 10 -58 30q-26 20 -42 49q-16 28 -16 64q0 35 16 63t42 48q25 19 58 30z" />
    <glyph glyph-name="perthousand" unicode="&#x2030;" horiz-adv-x="1698" 
d="M1391 707q43 0 80 -16q36 -17 65 -44q28 -28 50 -64q21 -37 35 -77t21 -81t7 -77q0 -37 -7 -77q-7 -41 -21 -81t-35 -76q-22 -36 -50 -63q-29 -28 -65 -44q-37 -17 -80 -17q-44 0 -80 17q-36 16 -64 44q-29 27 -50 63q-22 36 -36 76t-21 81q-7 40 -7 77q0 36 7 77t21 81
t36 77q21 36 50 64q28 27 64 44zM1444 618q-32 0 -54 -20q-22 -21 -36 -50q-14 -30 -20 -62q-7 -33 -7 -58q0 -24 7 -56q6 -32 20 -61q14 -30 36 -50q22 -21 54 -21q31 0 53 21q22 20 36 50q14 29 20 61t6 56q0 25 -6 58q-6 32 -20 62q-14 29 -36 50zM307 1300q44 0 80 -16
t65 -43q28 -28 50 -64q21 -37 35 -76q14 -40 21 -81t7 -78t-7 -77q-7 -41 -21 -81t-35 -76q-22 -36 -50 -63q-29 -28 -65 -44q-37 -17 -80 -17t-79 17q-37 16 -65 44q-29 27 -50 63q-22 36 -36 76t-21 81q-7 40 -7 77t7 78t21 81q14 39 36 76q21 36 50 64q28 27 64 43z
M360 1212q-32 0 -54 -20q-22 -21 -35 -50q-14 -30 -20 -62q-7 -32 -7 -56q0 -25 7 -57q6 -33 20 -62q13 -30 35 -50q22 -21 54 -21q31 0 53 21q22 20 36 50q14 29 20 62q6 32 6 57q0 24 -6 56t-20 62q-14 29 -36 50zM946 1264l-631 -1264h-133l633 1264h131zM834 707
q44 0 80 -16q36 -17 65 -44q29 -28 50 -64q21 -37 35 -77t21 -81t7 -77q0 -37 -7 -77q-7 -41 -21 -81t-35 -76t-50 -63q-29 -28 -65 -44q-36 -17 -80 -17t-80 17q-36 16 -65 44q-29 27 -50 63q-22 36 -36 76t-21 81q-7 40 -7 77q0 36 7 77t21 81t36 77q21 36 50 64
q29 27 65 44zM887 618q-32 0 -53 -20q-22 -21 -36 -50q-14 -30 -20 -62q-6 -33 -6 -58q0 -24 6 -56t20 -61q14 -30 36 -50q21 -21 53 -21q31 0 53 21q22 20 36 50q13 29 19 61t6 56q0 25 -6 58q-6 32 -19 62q-14 29 -36 50z" />
    <glyph glyph-name="guilsinglleft" unicode="&#x2039;" horiz-adv-x="410" 
d="M49 412l166 231h145l-151 -231l151 -232h-145z" />
    <glyph glyph-name="guilsinglright" unicode="&#x203a;" horiz-adv-x="410" 
d="M360 412l-163 -232h-148l152 232l-152 231h148z" />
    <glyph glyph-name="Euro" unicode="&#x20ac;" horiz-adv-x="1147" 
d="M1098 543q-42 -63 -59 -138q-17 -76 -21 -151q-4 -59 -28 -106q-25 -47 -64 -80q-40 -33 -91 -50q-51 -18 -108 -18q-116 0 -211 50q-96 50 -167 132q-71 81 -115 184q-45 102 -60 207h-125l43 82h76v39h-119l43 80h80q9 96 42 190t92 169q58 75 141 121q82 46 190 46
q71 0 138 -25t119 -69q51 -45 83 -107q31 -63 31 -138q0 -33 -14 -59q-14 -27 -36 -46q-23 -20 -52 -30q-29 -11 -60 -11q-49 0 -92 19q-44 18 -76 50q-32 31 -51 74t-19 91q0 18 8 34q7 15 20 27q12 11 28 17t34 6q34 0 67 -9q32 -10 60 -30q-32 43 -79 73q-47 29 -103 29
q-66 0 -113 -31q-48 -31 -79 -79t-45 -107q-15 -60 -15 -117q0 -21 2 -43q1 -22 6 -45h492l-45 -80h-428l14 -39h393l-43 -82h-307q26 -39 59 -71q33 -33 72 -57t84 -37q44 -13 92 -13q44 0 85 13q40 13 75 36t65 55q29 31 52 68z" />
    <glyph glyph-name="trademark" unicode="&#x2122;" horiz-adv-x="1278" 
d="M887 1264q-22 -25 -27 -60q-6 -36 -6 -67q0 -10 2 -39t8 -59q6 -31 17 -54q10 -24 26 -24q10 0 18 14q7 14 13 36q5 22 9 48t7 50q2 24 3 43t1 26v44q-1 25 -6 42h256q-43 -50 -65 -117q-23 -68 -23 -133q0 -48 6 -97q6 -50 19 -98q12 -49 33 -94q21 -46 51 -84
q-16 -6 -31 -10t-31 -4q-30 0 -56 12q-26 11 -45 31q-20 19 -31 46q-11 26 -11 56q0 12 1 24q1 11 1 23v9q-1 6 -2 13q-2 6 -5 11q-4 4 -9 4q-9 0 -15 -8q-6 -9 -9 -20q-3 -12 -4 -24t-1 -18q0 -26 7 -55t26 -49h-176q15 14 23 37q7 23 7 45q0 7 -3 26q-4 18 -10 37
q-7 18 -16 33q-9 14 -20 14q-8 0 -10 -6t-2 -12q0 -25 6 -49q6 -25 6 -51q0 -69 -36 -106q-36 -38 -105 -38q-38 0 -76 11q-39 11 -63 43q44 33 74 84t49 110q18 58 26 118t8 112q0 45 -4 89q-5 43 -16 85h211zM389 1147q-11 -35 -12 -72q-2 -38 -2 -74q0 -41 6 -87
q6 -47 17 -94t28 -91t39 -78h-330q22 30 45 82q23 51 42 108t31 112q11 54 11 91q0 17 -1 38q-1 20 -7 38q-6 17 -18 29q-13 12 -37 12q-16 0 -37 -3q-22 -3 -43 -8q-22 -6 -41 -14q-19 -9 -31 -20q0 91 41 143q40 52 131 52q50 0 99 -8q49 -9 100 -9q23 0 51 3t57 10
q28 7 53 18t42 27q14 -26 24 -58t10 -61q0 -63 -36 -93q-37 -30 -97 -30q-32 0 -69 12z" />
    </font>
</defs>
</svg>
